<?xml version="1.0" encoding="utf-8" standalone="no"?>
<!DOCTYPE svg PUBLIC "-//W3C//DTD SVG 1.1//EN"
  "http://www.w3.org/Graphics/SVG/1.1/DTD/svg11.dtd">
<svg xmlns:xlink="http://www.w3.org/1999/xlink" width="460.8pt" height="345.6pt" viewBox="0 0 460.8 345.6" xmlns="http://www.w3.org/2000/svg" version="1.1">
 <metadata>
  <rdf:RDF xmlns:dc="http://purl.org/dc/elements/1.1/" xmlns:cc="http://creativecommons.org/ns#" xmlns:rdf="http://www.w3.org/1999/02/22-rdf-syntax-ns#">
   <cc:Work>
    <dc:type rdf:resource="http://purl.org/dc/dcmitype/StillImage"/>
    <dc:date>2022-12-28T13:52:05.656903</dc:date>
    <dc:format>image/svg+xml</dc:format>
    <dc:creator>
     <cc:Agent>
      <dc:title>Matplotlib v3.6.2, https://matplotlib.org/</dc:title>
     </cc:Agent>
    </dc:creator>
   </cc:Work>
  </rdf:RDF>
 </metadata>
 <defs>
  <style type="text/css">*{stroke-linejoin: round; stroke-linecap: butt}</style>
 </defs>
 <g id="figure_1">
  <g id="patch_1">
   <path d="M 0 345.6 
L 460.8 345.6 
L 460.8 0 
L 0 0 
z
" style="fill: #ffffff"/>
  </g>
  <g id="axes_1">
   <g id="patch_2">
    <path d="M 57.6 307.584 
L 414.72 307.584 
L 414.72 41.472 
L 57.6 41.472 
z
" style="fill: #ffffff"/>
   </g>
   <g id="patch_3">
    <path d="M 73.832727 307.584 
L 77.079273 307.584 
L 77.079273 289.481143 
L 73.832727 289.481143 
z
" clip-path="url(#pd6a8873d8e)" style="fill: #1f77b4"/>
   </g>
   <g id="patch_4">
    <path d="M 77.079273 307.584 
L 80.325818 307.584 
L 80.325818 307.584 
L 77.079273 307.584 
z
" clip-path="url(#pd6a8873d8e)" style="fill: #1f77b4"/>
   </g>
   <g id="patch_5">
    <path d="M 80.325818 307.584 
L 83.572364 307.584 
L 83.572364 307.584 
L 80.325818 307.584 
z
" clip-path="url(#pd6a8873d8e)" style="fill: #1f77b4"/>
   </g>
   <g id="patch_6">
    <path d="M 83.572364 307.584 
L 86.818909 307.584 
L 86.818909 307.584 
L 83.572364 307.584 
z
" clip-path="url(#pd6a8873d8e)" style="fill: #1f77b4"/>
   </g>
   <g id="patch_7">
    <path d="M 86.818909 307.584 
L 90.065455 307.584 
L 90.065455 307.584 
L 86.818909 307.584 
z
" clip-path="url(#pd6a8873d8e)" style="fill: #1f77b4"/>
   </g>
   <g id="patch_8">
    <path d="M 90.065455 307.584 
L 93.312 307.584 
L 93.312 307.584 
L 90.065455 307.584 
z
" clip-path="url(#pd6a8873d8e)" style="fill: #1f77b4"/>
   </g>
   <g id="patch_9">
    <path d="M 93.312 307.584 
L 96.558545 307.584 
L 96.558545 307.584 
L 93.312 307.584 
z
" clip-path="url(#pd6a8873d8e)" style="fill: #1f77b4"/>
   </g>
   <g id="patch_10">
    <path d="M 96.558545 307.584 
L 99.805091 307.584 
L 99.805091 307.584 
L 96.558545 307.584 
z
" clip-path="url(#pd6a8873d8e)" style="fill: #1f77b4"/>
   </g>
   <g id="patch_11">
    <path d="M 99.805091 307.584 
L 103.051636 307.584 
L 103.051636 307.584 
L 99.805091 307.584 
z
" clip-path="url(#pd6a8873d8e)" style="fill: #1f77b4"/>
   </g>
   <g id="patch_12">
    <path d="M 103.051636 307.584 
L 106.298182 307.584 
L 106.298182 307.584 
L 103.051636 307.584 
z
" clip-path="url(#pd6a8873d8e)" style="fill: #1f77b4"/>
   </g>
   <g id="patch_13">
    <path d="M 106.298182 307.584 
L 109.544727 307.584 
L 109.544727 307.584 
L 106.298182 307.584 
z
" clip-path="url(#pd6a8873d8e)" style="fill: #1f77b4"/>
   </g>
   <g id="patch_14">
    <path d="M 109.544727 307.584 
L 112.791273 307.584 
L 112.791273 307.584 
L 109.544727 307.584 
z
" clip-path="url(#pd6a8873d8e)" style="fill: #1f77b4"/>
   </g>
   <g id="patch_15">
    <path d="M 112.791273 307.584 
L 116.037818 307.584 
L 116.037818 307.584 
L 112.791273 307.584 
z
" clip-path="url(#pd6a8873d8e)" style="fill: #1f77b4"/>
   </g>
   <g id="patch_16">
    <path d="M 116.037818 307.584 
L 119.284364 307.584 
L 119.284364 307.584 
L 116.037818 307.584 
z
" clip-path="url(#pd6a8873d8e)" style="fill: #1f77b4"/>
   </g>
   <g id="patch_17">
    <path d="M 119.284364 307.584 
L 122.530909 307.584 
L 122.530909 307.584 
L 119.284364 307.584 
z
" clip-path="url(#pd6a8873d8e)" style="fill: #1f77b4"/>
   </g>
   <g id="patch_18">
    <path d="M 122.530909 307.584 
L 125.777455 307.584 
L 125.777455 289.481143 
L 122.530909 289.481143 
z
" clip-path="url(#pd6a8873d8e)" style="fill: #1f77b4"/>
   </g>
   <g id="patch_19">
    <path d="M 125.777455 307.584 
L 129.024 307.584 
L 129.024 289.481143 
L 125.777455 289.481143 
z
" clip-path="url(#pd6a8873d8e)" style="fill: #1f77b4"/>
   </g>
   <g id="patch_20">
    <path d="M 129.024 307.584 
L 132.270545 307.584 
L 132.270545 289.481143 
L 129.024 289.481143 
z
" clip-path="url(#pd6a8873d8e)" style="fill: #1f77b4"/>
   </g>
   <g id="patch_21">
    <path d="M 132.270545 307.584 
L 135.517091 307.584 
L 135.517091 307.584 
L 132.270545 307.584 
z
" clip-path="url(#pd6a8873d8e)" style="fill: #1f77b4"/>
   </g>
   <g id="patch_22">
    <path d="M 135.517091 307.584 
L 138.763636 307.584 
L 138.763636 307.584 
L 135.517091 307.584 
z
" clip-path="url(#pd6a8873d8e)" style="fill: #1f77b4"/>
   </g>
   <g id="patch_23">
    <path d="M 138.763636 307.584 
L 142.010182 307.584 
L 142.010182 289.481143 
L 138.763636 289.481143 
z
" clip-path="url(#pd6a8873d8e)" style="fill: #1f77b4"/>
   </g>
   <g id="patch_24">
    <path d="M 142.010182 307.584 
L 145.256727 307.584 
L 145.256727 307.584 
L 142.010182 307.584 
z
" clip-path="url(#pd6a8873d8e)" style="fill: #1f77b4"/>
   </g>
   <g id="patch_25">
    <path d="M 145.256727 307.584 
L 148.503273 307.584 
L 148.503273 307.584 
L 145.256727 307.584 
z
" clip-path="url(#pd6a8873d8e)" style="fill: #1f77b4"/>
   </g>
   <g id="patch_26">
    <path d="M 148.503273 307.584 
L 151.749818 307.584 
L 151.749818 307.584 
L 148.503273 307.584 
z
" clip-path="url(#pd6a8873d8e)" style="fill: #1f77b4"/>
   </g>
   <g id="patch_27">
    <path d="M 151.749818 307.584 
L 154.996364 307.584 
L 154.996364 289.481143 
L 151.749818 289.481143 
z
" clip-path="url(#pd6a8873d8e)" style="fill: #1f77b4"/>
   </g>
   <g id="patch_28">
    <path d="M 154.996364 307.584 
L 158.242909 307.584 
L 158.242909 307.584 
L 154.996364 307.584 
z
" clip-path="url(#pd6a8873d8e)" style="fill: #1f77b4"/>
   </g>
   <g id="patch_29">
    <path d="M 158.242909 307.584 
L 161.489455 307.584 
L 161.489455 289.481143 
L 158.242909 289.481143 
z
" clip-path="url(#pd6a8873d8e)" style="fill: #1f77b4"/>
   </g>
   <g id="patch_30">
    <path d="M 161.489455 307.584 
L 164.736 307.584 
L 164.736 271.378286 
L 161.489455 271.378286 
z
" clip-path="url(#pd6a8873d8e)" style="fill: #1f77b4"/>
   </g>
   <g id="patch_31">
    <path d="M 164.736 307.584 
L 167.982545 307.584 
L 167.982545 289.481143 
L 164.736 289.481143 
z
" clip-path="url(#pd6a8873d8e)" style="fill: #1f77b4"/>
   </g>
   <g id="patch_32">
    <path d="M 167.982545 307.584 
L 171.229091 307.584 
L 171.229091 253.275429 
L 167.982545 253.275429 
z
" clip-path="url(#pd6a8873d8e)" style="fill: #1f77b4"/>
   </g>
   <g id="patch_33">
    <path d="M 171.229091 307.584 
L 174.475636 307.584 
L 174.475636 271.378286 
L 171.229091 271.378286 
z
" clip-path="url(#pd6a8873d8e)" style="fill: #1f77b4"/>
   </g>
   <g id="patch_34">
    <path d="M 174.475636 307.584 
L 177.722182 307.584 
L 177.722182 307.584 
L 174.475636 307.584 
z
" clip-path="url(#pd6a8873d8e)" style="fill: #1f77b4"/>
   </g>
   <g id="patch_35">
    <path d="M 177.722182 307.584 
L 180.968727 307.584 
L 180.968727 235.172571 
L 177.722182 235.172571 
z
" clip-path="url(#pd6a8873d8e)" style="fill: #1f77b4"/>
   </g>
   <g id="patch_36">
    <path d="M 180.968727 307.584 
L 184.215273 307.584 
L 184.215273 307.584 
L 180.968727 307.584 
z
" clip-path="url(#pd6a8873d8e)" style="fill: #1f77b4"/>
   </g>
   <g id="patch_37">
    <path d="M 184.215273 307.584 
L 187.461818 307.584 
L 187.461818 235.172571 
L 184.215273 235.172571 
z
" clip-path="url(#pd6a8873d8e)" style="fill: #1f77b4"/>
   </g>
   <g id="patch_38">
    <path d="M 187.461818 307.584 
L 190.708364 307.584 
L 190.708364 198.966857 
L 187.461818 198.966857 
z
" clip-path="url(#pd6a8873d8e)" style="fill: #1f77b4"/>
   </g>
   <g id="patch_39">
    <path d="M 190.708364 307.584 
L 193.954909 307.584 
L 193.954909 289.481143 
L 190.708364 289.481143 
z
" clip-path="url(#pd6a8873d8e)" style="fill: #1f77b4"/>
   </g>
   <g id="patch_40">
    <path d="M 193.954909 307.584 
L 197.201455 307.584 
L 197.201455 217.069714 
L 193.954909 217.069714 
z
" clip-path="url(#pd6a8873d8e)" style="fill: #1f77b4"/>
   </g>
   <g id="patch_41">
    <path d="M 197.201455 307.584 
L 200.448 307.584 
L 200.448 289.481143 
L 197.201455 289.481143 
z
" clip-path="url(#pd6a8873d8e)" style="fill: #1f77b4"/>
   </g>
   <g id="patch_42">
    <path d="M 200.448 307.584 
L 203.694545 307.584 
L 203.694545 198.966857 
L 200.448 198.966857 
z
" clip-path="url(#pd6a8873d8e)" style="fill: #1f77b4"/>
   </g>
   <g id="patch_43">
    <path d="M 203.694545 307.584 
L 206.941091 307.584 
L 206.941091 271.378286 
L 203.694545 271.378286 
z
" clip-path="url(#pd6a8873d8e)" style="fill: #1f77b4"/>
   </g>
   <g id="patch_44">
    <path d="M 206.941091 307.584 
L 210.187636 307.584 
L 210.187636 217.069714 
L 206.941091 217.069714 
z
" clip-path="url(#pd6a8873d8e)" style="fill: #1f77b4"/>
   </g>
   <g id="patch_45">
    <path d="M 210.187636 307.584 
L 213.434182 307.584 
L 213.434182 253.275429 
L 210.187636 253.275429 
z
" clip-path="url(#pd6a8873d8e)" style="fill: #1f77b4"/>
   </g>
   <g id="patch_46">
    <path d="M 213.434182 307.584 
L 216.680727 307.584 
L 216.680727 271.378286 
L 213.434182 271.378286 
z
" clip-path="url(#pd6a8873d8e)" style="fill: #1f77b4"/>
   </g>
   <g id="patch_47">
    <path d="M 216.680727 307.584 
L 219.927273 307.584 
L 219.927273 271.378286 
L 216.680727 271.378286 
z
" clip-path="url(#pd6a8873d8e)" style="fill: #1f77b4"/>
   </g>
   <g id="patch_48">
    <path d="M 219.927273 307.584 
L 223.173818 307.584 
L 223.173818 217.069714 
L 219.927273 217.069714 
z
" clip-path="url(#pd6a8873d8e)" style="fill: #1f77b4"/>
   </g>
   <g id="patch_49">
    <path d="M 223.173818 307.584 
L 226.420364 307.584 
L 226.420364 253.275429 
L 223.173818 253.275429 
z
" clip-path="url(#pd6a8873d8e)" style="fill: #1f77b4"/>
   </g>
   <g id="patch_50">
    <path d="M 226.420364 307.584 
L 229.666909 307.584 
L 229.666909 217.069714 
L 226.420364 217.069714 
z
" clip-path="url(#pd6a8873d8e)" style="fill: #1f77b4"/>
   </g>
   <g id="patch_51">
    <path d="M 229.666909 307.584 
L 232.913455 307.584 
L 232.913455 217.069714 
L 229.666909 217.069714 
z
" clip-path="url(#pd6a8873d8e)" style="fill: #1f77b4"/>
   </g>
   <g id="patch_52">
    <path d="M 232.913455 307.584 
L 236.16 307.584 
L 236.16 271.378286 
L 232.913455 271.378286 
z
" clip-path="url(#pd6a8873d8e)" style="fill: #1f77b4"/>
   </g>
   <g id="patch_53">
    <path d="M 236.16 307.584 
L 239.406545 307.584 
L 239.406545 271.378286 
L 236.16 271.378286 
z
" clip-path="url(#pd6a8873d8e)" style="fill: #1f77b4"/>
   </g>
   <g id="patch_54">
    <path d="M 239.406545 307.584 
L 242.653091 307.584 
L 242.653091 235.172571 
L 239.406545 235.172571 
z
" clip-path="url(#pd6a8873d8e)" style="fill: #1f77b4"/>
   </g>
   <g id="patch_55">
    <path d="M 242.653091 307.584 
L 245.899636 307.584 
L 245.899636 253.275429 
L 242.653091 253.275429 
z
" clip-path="url(#pd6a8873d8e)" style="fill: #1f77b4"/>
   </g>
   <g id="patch_56">
    <path d="M 245.899636 307.584 
L 249.146182 307.584 
L 249.146182 198.966857 
L 245.899636 198.966857 
z
" clip-path="url(#pd6a8873d8e)" style="fill: #1f77b4"/>
   </g>
   <g id="patch_57">
    <path d="M 249.146182 307.584 
L 252.392727 307.584 
L 252.392727 253.275429 
L 249.146182 253.275429 
z
" clip-path="url(#pd6a8873d8e)" style="fill: #1f77b4"/>
   </g>
   <g id="patch_58">
    <path d="M 252.392727 307.584 
L 255.639273 307.584 
L 255.639273 180.864 
L 252.392727 180.864 
z
" clip-path="url(#pd6a8873d8e)" style="fill: #1f77b4"/>
   </g>
   <g id="patch_59">
    <path d="M 255.639273 307.584 
L 258.885818 307.584 
L 258.885818 253.275429 
L 255.639273 253.275429 
z
" clip-path="url(#pd6a8873d8e)" style="fill: #1f77b4"/>
   </g>
   <g id="patch_60">
    <path d="M 258.885818 307.584 
L 262.132364 307.584 
L 262.132364 126.555429 
L 258.885818 126.555429 
z
" clip-path="url(#pd6a8873d8e)" style="fill: #1f77b4"/>
   </g>
   <g id="patch_61">
    <path d="M 262.132364 307.584 
L 265.378909 307.584 
L 265.378909 289.481143 
L 262.132364 289.481143 
z
" clip-path="url(#pd6a8873d8e)" style="fill: #1f77b4"/>
   </g>
   <g id="patch_62">
    <path d="M 265.378909 307.584 
L 268.625455 307.584 
L 268.625455 180.864 
L 265.378909 180.864 
z
" clip-path="url(#pd6a8873d8e)" style="fill: #1f77b4"/>
   </g>
   <g id="patch_63">
    <path d="M 268.625455 307.584 
L 271.872 307.584 
L 271.872 235.172571 
L 268.625455 235.172571 
z
" clip-path="url(#pd6a8873d8e)" style="fill: #1f77b4"/>
   </g>
   <g id="patch_64">
    <path d="M 271.872 307.584 
L 275.118545 307.584 
L 275.118545 90.349714 
L 271.872 90.349714 
z
" clip-path="url(#pd6a8873d8e)" style="fill: #1f77b4"/>
   </g>
   <g id="patch_65">
    <path d="M 275.118545 307.584 
L 278.365091 307.584 
L 278.365091 144.658286 
L 275.118545 144.658286 
z
" clip-path="url(#pd6a8873d8e)" style="fill: #1f77b4"/>
   </g>
   <g id="patch_66">
    <path d="M 278.365091 307.584 
L 281.611636 307.584 
L 281.611636 162.761143 
L 278.365091 162.761143 
z
" clip-path="url(#pd6a8873d8e)" style="fill: #1f77b4"/>
   </g>
   <g id="patch_67">
    <path d="M 281.611636 307.584 
L 284.858182 307.584 
L 284.858182 198.966857 
L 281.611636 198.966857 
z
" clip-path="url(#pd6a8873d8e)" style="fill: #1f77b4"/>
   </g>
   <g id="patch_68">
    <path d="M 284.858182 307.584 
L 288.104727 307.584 
L 288.104727 108.452571 
L 284.858182 108.452571 
z
" clip-path="url(#pd6a8873d8e)" style="fill: #1f77b4"/>
   </g>
   <g id="patch_69">
    <path d="M 288.104727 307.584 
L 291.351273 307.584 
L 291.351273 144.658286 
L 288.104727 144.658286 
z
" clip-path="url(#pd6a8873d8e)" style="fill: #1f77b4"/>
   </g>
   <g id="patch_70">
    <path d="M 291.351273 307.584 
L 294.597818 307.584 
L 294.597818 108.452571 
L 291.351273 108.452571 
z
" clip-path="url(#pd6a8873d8e)" style="fill: #1f77b4"/>
   </g>
   <g id="patch_71">
    <path d="M 294.597818 307.584 
L 297.844364 307.584 
L 297.844364 180.864 
L 294.597818 180.864 
z
" clip-path="url(#pd6a8873d8e)" style="fill: #1f77b4"/>
   </g>
   <g id="patch_72">
    <path d="M 297.844364 307.584 
L 301.090909 307.584 
L 301.090909 144.658286 
L 297.844364 144.658286 
z
" clip-path="url(#pd6a8873d8e)" style="fill: #1f77b4"/>
   </g>
   <g id="patch_73">
    <path d="M 301.090909 307.584 
L 304.337455 307.584 
L 304.337455 198.966857 
L 301.090909 198.966857 
z
" clip-path="url(#pd6a8873d8e)" style="fill: #1f77b4"/>
   </g>
   <g id="patch_74">
    <path d="M 304.337455 307.584 
L 307.584 307.584 
L 307.584 90.349714 
L 304.337455 90.349714 
z
" clip-path="url(#pd6a8873d8e)" style="fill: #1f77b4"/>
   </g>
   <g id="patch_75">
    <path d="M 307.584 307.584 
L 310.830545 307.584 
L 310.830545 144.658286 
L 307.584 144.658286 
z
" clip-path="url(#pd6a8873d8e)" style="fill: #1f77b4"/>
   </g>
   <g id="patch_76">
    <path d="M 310.830545 307.584 
L 314.077091 307.584 
L 314.077091 54.144 
L 310.830545 54.144 
z
" clip-path="url(#pd6a8873d8e)" style="fill: #1f77b4"/>
   </g>
   <g id="patch_77">
    <path d="M 314.077091 307.584 
L 317.323636 307.584 
L 317.323636 198.966857 
L 314.077091 198.966857 
z
" clip-path="url(#pd6a8873d8e)" style="fill: #1f77b4"/>
   </g>
   <g id="patch_78">
    <path d="M 317.323636 307.584 
L 320.570182 307.584 
L 320.570182 144.658286 
L 317.323636 144.658286 
z
" clip-path="url(#pd6a8873d8e)" style="fill: #1f77b4"/>
   </g>
   <g id="patch_79">
    <path d="M 320.570182 307.584 
L 323.816727 307.584 
L 323.816727 126.555429 
L 320.570182 126.555429 
z
" clip-path="url(#pd6a8873d8e)" style="fill: #1f77b4"/>
   </g>
   <g id="patch_80">
    <path d="M 323.816727 307.584 
L 327.063273 307.584 
L 327.063273 235.172571 
L 323.816727 235.172571 
z
" clip-path="url(#pd6a8873d8e)" style="fill: #1f77b4"/>
   </g>
   <g id="patch_81">
    <path d="M 327.063273 307.584 
L 330.309818 307.584 
L 330.309818 235.172571 
L 327.063273 235.172571 
z
" clip-path="url(#pd6a8873d8e)" style="fill: #1f77b4"/>
   </g>
   <g id="patch_82">
    <path d="M 330.309818 307.584 
L 333.556364 307.584 
L 333.556364 144.658286 
L 330.309818 144.658286 
z
" clip-path="url(#pd6a8873d8e)" style="fill: #1f77b4"/>
   </g>
   <g id="patch_83">
    <path d="M 333.556364 307.584 
L 336.802909 307.584 
L 336.802909 198.966857 
L 333.556364 198.966857 
z
" clip-path="url(#pd6a8873d8e)" style="fill: #1f77b4"/>
   </g>
   <g id="patch_84">
    <path d="M 336.802909 307.584 
L 340.049455 307.584 
L 340.049455 198.966857 
L 336.802909 198.966857 
z
" clip-path="url(#pd6a8873d8e)" style="fill: #1f77b4"/>
   </g>
   <g id="patch_85">
    <path d="M 340.049455 307.584 
L 343.296 307.584 
L 343.296 217.069714 
L 340.049455 217.069714 
z
" clip-path="url(#pd6a8873d8e)" style="fill: #1f77b4"/>
   </g>
   <g id="patch_86">
    <path d="M 343.296 307.584 
L 346.542545 307.584 
L 346.542545 217.069714 
L 343.296 217.069714 
z
" clip-path="url(#pd6a8873d8e)" style="fill: #1f77b4"/>
   </g>
   <g id="patch_87">
    <path d="M 346.542545 307.584 
L 349.789091 307.584 
L 349.789091 235.172571 
L 346.542545 235.172571 
z
" clip-path="url(#pd6a8873d8e)" style="fill: #1f77b4"/>
   </g>
   <g id="patch_88">
    <path d="M 349.789091 307.584 
L 353.035636 307.584 
L 353.035636 198.966857 
L 349.789091 198.966857 
z
" clip-path="url(#pd6a8873d8e)" style="fill: #1f77b4"/>
   </g>
   <g id="patch_89">
    <path d="M 353.035636 307.584 
L 356.282182 307.584 
L 356.282182 271.378286 
L 353.035636 271.378286 
z
" clip-path="url(#pd6a8873d8e)" style="fill: #1f77b4"/>
   </g>
   <g id="patch_90">
    <path d="M 356.282182 307.584 
L 359.528727 307.584 
L 359.528727 217.069714 
L 356.282182 217.069714 
z
" clip-path="url(#pd6a8873d8e)" style="fill: #1f77b4"/>
   </g>
   <g id="patch_91">
    <path d="M 359.528727 307.584 
L 362.775273 307.584 
L 362.775273 126.555429 
L 359.528727 126.555429 
z
" clip-path="url(#pd6a8873d8e)" style="fill: #1f77b4"/>
   </g>
   <g id="patch_92">
    <path d="M 362.775273 307.584 
L 366.021818 307.584 
L 366.021818 162.761143 
L 362.775273 162.761143 
z
" clip-path="url(#pd6a8873d8e)" style="fill: #1f77b4"/>
   </g>
   <g id="patch_93">
    <path d="M 366.021818 307.584 
L 369.268364 307.584 
L 369.268364 217.069714 
L 366.021818 217.069714 
z
" clip-path="url(#pd6a8873d8e)" style="fill: #1f77b4"/>
   </g>
   <g id="patch_94">
    <path d="M 369.268364 307.584 
L 372.514909 307.584 
L 372.514909 289.481143 
L 369.268364 289.481143 
z
" clip-path="url(#pd6a8873d8e)" style="fill: #1f77b4"/>
   </g>
   <g id="patch_95">
    <path d="M 372.514909 307.584 
L 375.761455 307.584 
L 375.761455 271.378286 
L 372.514909 271.378286 
z
" clip-path="url(#pd6a8873d8e)" style="fill: #1f77b4"/>
   </g>
   <g id="patch_96">
    <path d="M 375.761455 307.584 
L 379.008 307.584 
L 379.008 289.481143 
L 375.761455 289.481143 
z
" clip-path="url(#pd6a8873d8e)" style="fill: #1f77b4"/>
   </g>
   <g id="patch_97">
    <path d="M 379.008 307.584 
L 382.254545 307.584 
L 382.254545 253.275429 
L 379.008 253.275429 
z
" clip-path="url(#pd6a8873d8e)" style="fill: #1f77b4"/>
   </g>
   <g id="patch_98">
    <path d="M 382.254545 307.584 
L 385.501091 307.584 
L 385.501091 271.378286 
L 382.254545 271.378286 
z
" clip-path="url(#pd6a8873d8e)" style="fill: #1f77b4"/>
   </g>
   <g id="patch_99">
    <path d="M 385.501091 307.584 
L 388.747636 307.584 
L 388.747636 307.584 
L 385.501091 307.584 
z
" clip-path="url(#pd6a8873d8e)" style="fill: #1f77b4"/>
   </g>
   <g id="patch_100">
    <path d="M 388.747636 307.584 
L 391.994182 307.584 
L 391.994182 271.378286 
L 388.747636 271.378286 
z
" clip-path="url(#pd6a8873d8e)" style="fill: #1f77b4"/>
   </g>
   <g id="patch_101">
    <path d="M 391.994182 307.584 
L 395.240727 307.584 
L 395.240727 307.584 
L 391.994182 307.584 
z
" clip-path="url(#pd6a8873d8e)" style="fill: #1f77b4"/>
   </g>
   <g id="patch_102">
    <path d="M 395.240727 307.584 
L 398.487273 307.584 
L 398.487273 289.481143 
L 395.240727 289.481143 
z
" clip-path="url(#pd6a8873d8e)" style="fill: #1f77b4"/>
   </g>
   <g id="matplotlib.axis_1">
    <g id="xtick_1">
     <g id="line2d_1">
      <path d="M 65.405648 307.584 
L 65.405648 41.472 
" clip-path="url(#pd6a8873d8e)" style="fill: none; stroke: #b0b0b0; stroke-width: 0.8; stroke-linecap: square"/>
     </g>
     <g id="line2d_2">
      <defs>
       <path id="mbd275eb6a8" d="M 0 0 
L 0 3.5 
" style="stroke: #000000; stroke-width: 0.8"/>
      </defs>
      <g>
       <use xlink:href="#mbd275eb6a8" x="65.405648" y="307.584" style="stroke: #000000; stroke-width: 0.8"/>
      </g>
     </g>
     <g id="text_1">
      <!-- 1200 -->
      <g transform="translate(52.680648 322.182437) scale(0.1 -0.1)">
       <defs>
        <path id="DejaVuSans-31" d="M 794 531 
L 1825 531 
L 1825 4091 
L 703 3866 
L 703 4441 
L 1819 4666 
L 2450 4666 
L 2450 531 
L 3481 531 
L 3481 0 
L 794 0 
L 794 531 
z
" transform="scale(0.015625)"/>
        <path id="DejaVuSans-32" d="M 1228 531 
L 3431 531 
L 3431 0 
L 469 0 
L 469 531 
Q 828 903 1448 1529 
Q 2069 2156 2228 2338 
Q 2531 2678 2651 2914 
Q 2772 3150 2772 3378 
Q 2772 3750 2511 3984 
Q 2250 4219 1831 4219 
Q 1534 4219 1204 4116 
Q 875 4013 500 3803 
L 500 4441 
Q 881 4594 1212 4672 
Q 1544 4750 1819 4750 
Q 2544 4750 2975 4387 
Q 3406 4025 3406 3419 
Q 3406 3131 3298 2873 
Q 3191 2616 2906 2266 
Q 2828 2175 2409 1742 
Q 1991 1309 1228 531 
z
" transform="scale(0.015625)"/>
        <path id="DejaVuSans-30" d="M 2034 4250 
Q 1547 4250 1301 3770 
Q 1056 3291 1056 2328 
Q 1056 1369 1301 889 
Q 1547 409 2034 409 
Q 2525 409 2770 889 
Q 3016 1369 3016 2328 
Q 3016 3291 2770 3770 
Q 2525 4250 2034 4250 
z
M 2034 4750 
Q 2819 4750 3233 4129 
Q 3647 3509 3647 2328 
Q 3647 1150 3233 529 
Q 2819 -91 2034 -91 
Q 1250 -91 836 529 
Q 422 1150 422 2328 
Q 422 3509 836 4129 
Q 1250 4750 2034 4750 
z
" transform="scale(0.015625)"/>
       </defs>
       <use xlink:href="#DejaVuSans-31"/>
       <use xlink:href="#DejaVuSans-32" x="63.623047"/>
       <use xlink:href="#DejaVuSans-30" x="127.246094"/>
       <use xlink:href="#DejaVuSans-30" x="190.869141"/>
      </g>
     </g>
    </g>
    <g id="xtick_2">
     <g id="line2d_3">
      <path d="M 131.65627 307.584 
L 131.65627 41.472 
" clip-path="url(#pd6a8873d8e)" style="fill: none; stroke: #b0b0b0; stroke-width: 0.8; stroke-linecap: square"/>
     </g>
     <g id="line2d_4">
      <g>
       <use xlink:href="#mbd275eb6a8" x="131.65627" y="307.584" style="stroke: #000000; stroke-width: 0.8"/>
      </g>
     </g>
     <g id="text_2">
      <!-- 1300 -->
      <g transform="translate(118.93127 322.182437) scale(0.1 -0.1)">
       <defs>
        <path id="DejaVuSans-33" d="M 2597 2516 
Q 3050 2419 3304 2112 
Q 3559 1806 3559 1356 
Q 3559 666 3084 287 
Q 2609 -91 1734 -91 
Q 1441 -91 1130 -33 
Q 819 25 488 141 
L 488 750 
Q 750 597 1062 519 
Q 1375 441 1716 441 
Q 2309 441 2620 675 
Q 2931 909 2931 1356 
Q 2931 1769 2642 2001 
Q 2353 2234 1838 2234 
L 1294 2234 
L 1294 2753 
L 1863 2753 
Q 2328 2753 2575 2939 
Q 2822 3125 2822 3475 
Q 2822 3834 2567 4026 
Q 2313 4219 1838 4219 
Q 1578 4219 1281 4162 
Q 984 4106 628 3988 
L 628 4550 
Q 988 4650 1302 4700 
Q 1616 4750 1894 4750 
Q 2613 4750 3031 4423 
Q 3450 4097 3450 3541 
Q 3450 3153 3228 2886 
Q 3006 2619 2597 2516 
z
" transform="scale(0.015625)"/>
       </defs>
       <use xlink:href="#DejaVuSans-31"/>
       <use xlink:href="#DejaVuSans-33" x="63.623047"/>
       <use xlink:href="#DejaVuSans-30" x="127.246094"/>
       <use xlink:href="#DejaVuSans-30" x="190.869141"/>
      </g>
     </g>
    </g>
    <g id="xtick_3">
     <g id="line2d_5">
      <path d="M 197.906891 307.584 
L 197.906891 41.472 
" clip-path="url(#pd6a8873d8e)" style="fill: none; stroke: #b0b0b0; stroke-width: 0.8; stroke-linecap: square"/>
     </g>
     <g id="line2d_6">
      <g>
       <use xlink:href="#mbd275eb6a8" x="197.906891" y="307.584" style="stroke: #000000; stroke-width: 0.8"/>
      </g>
     </g>
     <g id="text_3">
      <!-- 1400 -->
      <g transform="translate(185.181891 322.182437) scale(0.1 -0.1)">
       <defs>
        <path id="DejaVuSans-34" d="M 2419 4116 
L 825 1625 
L 2419 1625 
L 2419 4116 
z
M 2253 4666 
L 3047 4666 
L 3047 1625 
L 3713 1625 
L 3713 1100 
L 3047 1100 
L 3047 0 
L 2419 0 
L 2419 1100 
L 313 1100 
L 313 1709 
L 2253 4666 
z
" transform="scale(0.015625)"/>
       </defs>
       <use xlink:href="#DejaVuSans-31"/>
       <use xlink:href="#DejaVuSans-34" x="63.623047"/>
       <use xlink:href="#DejaVuSans-30" x="127.246094"/>
       <use xlink:href="#DejaVuSans-30" x="190.869141"/>
      </g>
     </g>
    </g>
    <g id="xtick_4">
     <g id="line2d_7">
      <path d="M 264.157513 307.584 
L 264.157513 41.472 
" clip-path="url(#pd6a8873d8e)" style="fill: none; stroke: #b0b0b0; stroke-width: 0.8; stroke-linecap: square"/>
     </g>
     <g id="line2d_8">
      <g>
       <use xlink:href="#mbd275eb6a8" x="264.157513" y="307.584" style="stroke: #000000; stroke-width: 0.8"/>
      </g>
     </g>
     <g id="text_4">
      <!-- 1500 -->
      <g transform="translate(251.432513 322.182437) scale(0.1 -0.1)">
       <defs>
        <path id="DejaVuSans-35" d="M 691 4666 
L 3169 4666 
L 3169 4134 
L 1269 4134 
L 1269 2991 
Q 1406 3038 1543 3061 
Q 1681 3084 1819 3084 
Q 2600 3084 3056 2656 
Q 3513 2228 3513 1497 
Q 3513 744 3044 326 
Q 2575 -91 1722 -91 
Q 1428 -91 1123 -41 
Q 819 9 494 109 
L 494 744 
Q 775 591 1075 516 
Q 1375 441 1709 441 
Q 2250 441 2565 725 
Q 2881 1009 2881 1497 
Q 2881 1984 2565 2268 
Q 2250 2553 1709 2553 
Q 1456 2553 1204 2497 
Q 953 2441 691 2322 
L 691 4666 
z
" transform="scale(0.015625)"/>
       </defs>
       <use xlink:href="#DejaVuSans-31"/>
       <use xlink:href="#DejaVuSans-35" x="63.623047"/>
       <use xlink:href="#DejaVuSans-30" x="127.246094"/>
       <use xlink:href="#DejaVuSans-30" x="190.869141"/>
      </g>
     </g>
    </g>
    <g id="xtick_5">
     <g id="line2d_9">
      <path d="M 330.408134 307.584 
L 330.408134 41.472 
" clip-path="url(#pd6a8873d8e)" style="fill: none; stroke: #b0b0b0; stroke-width: 0.8; stroke-linecap: square"/>
     </g>
     <g id="line2d_10">
      <g>
       <use xlink:href="#mbd275eb6a8" x="330.408134" y="307.584" style="stroke: #000000; stroke-width: 0.8"/>
      </g>
     </g>
     <g id="text_5">
      <!-- 1600 -->
      <g transform="translate(317.683134 322.182437) scale(0.1 -0.1)">
       <defs>
        <path id="DejaVuSans-36" d="M 2113 2584 
Q 1688 2584 1439 2293 
Q 1191 2003 1191 1497 
Q 1191 994 1439 701 
Q 1688 409 2113 409 
Q 2538 409 2786 701 
Q 3034 994 3034 1497 
Q 3034 2003 2786 2293 
Q 2538 2584 2113 2584 
z
M 3366 4563 
L 3366 3988 
Q 3128 4100 2886 4159 
Q 2644 4219 2406 4219 
Q 1781 4219 1451 3797 
Q 1122 3375 1075 2522 
Q 1259 2794 1537 2939 
Q 1816 3084 2150 3084 
Q 2853 3084 3261 2657 
Q 3669 2231 3669 1497 
Q 3669 778 3244 343 
Q 2819 -91 2113 -91 
Q 1303 -91 875 529 
Q 447 1150 447 2328 
Q 447 3434 972 4092 
Q 1497 4750 2381 4750 
Q 2619 4750 2861 4703 
Q 3103 4656 3366 4563 
z
" transform="scale(0.015625)"/>
       </defs>
       <use xlink:href="#DejaVuSans-31"/>
       <use xlink:href="#DejaVuSans-36" x="63.623047"/>
       <use xlink:href="#DejaVuSans-30" x="127.246094"/>
       <use xlink:href="#DejaVuSans-30" x="190.869141"/>
      </g>
     </g>
    </g>
    <g id="xtick_6">
     <g id="line2d_11">
      <path d="M 396.658756 307.584 
L 396.658756 41.472 
" clip-path="url(#pd6a8873d8e)" style="fill: none; stroke: #b0b0b0; stroke-width: 0.8; stroke-linecap: square"/>
     </g>
     <g id="line2d_12">
      <g>
       <use xlink:href="#mbd275eb6a8" x="396.658756" y="307.584" style="stroke: #000000; stroke-width: 0.8"/>
      </g>
     </g>
     <g id="text_6">
      <!-- 1700 -->
      <g transform="translate(383.933756 322.182437) scale(0.1 -0.1)">
       <defs>
        <path id="DejaVuSans-37" d="M 525 4666 
L 3525 4666 
L 3525 4397 
L 1831 0 
L 1172 0 
L 2766 4134 
L 525 4134 
L 525 4666 
z
" transform="scale(0.015625)"/>
       </defs>
       <use xlink:href="#DejaVuSans-31"/>
       <use xlink:href="#DejaVuSans-37" x="63.623047"/>
       <use xlink:href="#DejaVuSans-30" x="127.246094"/>
       <use xlink:href="#DejaVuSans-30" x="190.869141"/>
      </g>
     </g>
    </g>
   </g>
   <g id="matplotlib.axis_2">
    <g id="ytick_1">
     <g id="line2d_13">
      <path d="M 57.6 307.584 
L 414.72 307.584 
" clip-path="url(#pd6a8873d8e)" style="fill: none; stroke: #b0b0b0; stroke-width: 0.8; stroke-linecap: square"/>
     </g>
     <g id="line2d_14">
      <defs>
       <path id="m622b5784d1" d="M 0 0 
L -3.5 0 
" style="stroke: #000000; stroke-width: 0.8"/>
      </defs>
      <g>
       <use xlink:href="#m622b5784d1" x="57.6" y="307.584" style="stroke: #000000; stroke-width: 0.8"/>
      </g>
     </g>
     <g id="text_7">
      <!-- 0.000 -->
      <g transform="translate(21.971875 311.383219) scale(0.1 -0.1)">
       <defs>
        <path id="DejaVuSans-2e" d="M 684 794 
L 1344 794 
L 1344 0 
L 684 0 
L 684 794 
z
" transform="scale(0.015625)"/>
       </defs>
       <use xlink:href="#DejaVuSans-30"/>
       <use xlink:href="#DejaVuSans-2e" x="63.623047"/>
       <use xlink:href="#DejaVuSans-30" x="95.410156"/>
       <use xlink:href="#DejaVuSans-30" x="159.033203"/>
       <use xlink:href="#DejaVuSans-30" x="222.65625"/>
      </g>
     </g>
    </g>
    <g id="ytick_2">
     <g id="line2d_15">
      <path d="M 57.6 275.204397 
L 414.72 275.204397 
" clip-path="url(#pd6a8873d8e)" style="fill: none; stroke: #b0b0b0; stroke-width: 0.8; stroke-linecap: square"/>
     </g>
     <g id="line2d_16">
      <g>
       <use xlink:href="#m622b5784d1" x="57.6" y="275.204397" style="stroke: #000000; stroke-width: 0.8"/>
      </g>
     </g>
     <g id="text_8">
      <!-- 0.001 -->
      <g transform="translate(21.971875 279.003616) scale(0.1 -0.1)">
       <use xlink:href="#DejaVuSans-30"/>
       <use xlink:href="#DejaVuSans-2e" x="63.623047"/>
       <use xlink:href="#DejaVuSans-30" x="95.410156"/>
       <use xlink:href="#DejaVuSans-30" x="159.033203"/>
       <use xlink:href="#DejaVuSans-31" x="222.65625"/>
      </g>
     </g>
    </g>
    <g id="ytick_3">
     <g id="line2d_17">
      <path d="M 57.6 242.824794 
L 414.72 242.824794 
" clip-path="url(#pd6a8873d8e)" style="fill: none; stroke: #b0b0b0; stroke-width: 0.8; stroke-linecap: square"/>
     </g>
     <g id="line2d_18">
      <g>
       <use xlink:href="#m622b5784d1" x="57.6" y="242.824794" style="stroke: #000000; stroke-width: 0.8"/>
      </g>
     </g>
     <g id="text_9">
      <!-- 0.002 -->
      <g transform="translate(21.971875 246.624013) scale(0.1 -0.1)">
       <use xlink:href="#DejaVuSans-30"/>
       <use xlink:href="#DejaVuSans-2e" x="63.623047"/>
       <use xlink:href="#DejaVuSans-30" x="95.410156"/>
       <use xlink:href="#DejaVuSans-30" x="159.033203"/>
       <use xlink:href="#DejaVuSans-32" x="222.65625"/>
      </g>
     </g>
    </g>
    <g id="ytick_4">
     <g id="line2d_19">
      <path d="M 57.6 210.445191 
L 414.72 210.445191 
" clip-path="url(#pd6a8873d8e)" style="fill: none; stroke: #b0b0b0; stroke-width: 0.8; stroke-linecap: square"/>
     </g>
     <g id="line2d_20">
      <g>
       <use xlink:href="#m622b5784d1" x="57.6" y="210.445191" style="stroke: #000000; stroke-width: 0.8"/>
      </g>
     </g>
     <g id="text_10">
      <!-- 0.003 -->
      <g transform="translate(21.971875 214.24441) scale(0.1 -0.1)">
       <use xlink:href="#DejaVuSans-30"/>
       <use xlink:href="#DejaVuSans-2e" x="63.623047"/>
       <use xlink:href="#DejaVuSans-30" x="95.410156"/>
       <use xlink:href="#DejaVuSans-30" x="159.033203"/>
       <use xlink:href="#DejaVuSans-33" x="222.65625"/>
      </g>
     </g>
    </g>
    <g id="ytick_5">
     <g id="line2d_21">
      <path d="M 57.6 178.065588 
L 414.72 178.065588 
" clip-path="url(#pd6a8873d8e)" style="fill: none; stroke: #b0b0b0; stroke-width: 0.8; stroke-linecap: square"/>
     </g>
     <g id="line2d_22">
      <g>
       <use xlink:href="#m622b5784d1" x="57.6" y="178.065588" style="stroke: #000000; stroke-width: 0.8"/>
      </g>
     </g>
     <g id="text_11">
      <!-- 0.004 -->
      <g transform="translate(21.971875 181.864807) scale(0.1 -0.1)">
       <use xlink:href="#DejaVuSans-30"/>
       <use xlink:href="#DejaVuSans-2e" x="63.623047"/>
       <use xlink:href="#DejaVuSans-30" x="95.410156"/>
       <use xlink:href="#DejaVuSans-30" x="159.033203"/>
       <use xlink:href="#DejaVuSans-34" x="222.65625"/>
      </g>
     </g>
    </g>
    <g id="ytick_6">
     <g id="line2d_23">
      <path d="M 57.6 145.685985 
L 414.72 145.685985 
" clip-path="url(#pd6a8873d8e)" style="fill: none; stroke: #b0b0b0; stroke-width: 0.8; stroke-linecap: square"/>
     </g>
     <g id="line2d_24">
      <g>
       <use xlink:href="#m622b5784d1" x="57.6" y="145.685985" style="stroke: #000000; stroke-width: 0.8"/>
      </g>
     </g>
     <g id="text_12">
      <!-- 0.005 -->
      <g transform="translate(21.971875 149.485204) scale(0.1 -0.1)">
       <use xlink:href="#DejaVuSans-30"/>
       <use xlink:href="#DejaVuSans-2e" x="63.623047"/>
       <use xlink:href="#DejaVuSans-30" x="95.410156"/>
       <use xlink:href="#DejaVuSans-30" x="159.033203"/>
       <use xlink:href="#DejaVuSans-35" x="222.65625"/>
      </g>
     </g>
    </g>
    <g id="ytick_7">
     <g id="line2d_25">
      <path d="M 57.6 113.306382 
L 414.72 113.306382 
" clip-path="url(#pd6a8873d8e)" style="fill: none; stroke: #b0b0b0; stroke-width: 0.8; stroke-linecap: square"/>
     </g>
     <g id="line2d_26">
      <g>
       <use xlink:href="#m622b5784d1" x="57.6" y="113.306382" style="stroke: #000000; stroke-width: 0.8"/>
      </g>
     </g>
     <g id="text_13">
      <!-- 0.006 -->
      <g transform="translate(21.971875 117.105601) scale(0.1 -0.1)">
       <use xlink:href="#DejaVuSans-30"/>
       <use xlink:href="#DejaVuSans-2e" x="63.623047"/>
       <use xlink:href="#DejaVuSans-30" x="95.410156"/>
       <use xlink:href="#DejaVuSans-30" x="159.033203"/>
       <use xlink:href="#DejaVuSans-36" x="222.65625"/>
      </g>
     </g>
    </g>
    <g id="ytick_8">
     <g id="line2d_27">
      <path d="M 57.6 80.926779 
L 414.72 80.926779 
" clip-path="url(#pd6a8873d8e)" style="fill: none; stroke: #b0b0b0; stroke-width: 0.8; stroke-linecap: square"/>
     </g>
     <g id="line2d_28">
      <g>
       <use xlink:href="#m622b5784d1" x="57.6" y="80.926779" style="stroke: #000000; stroke-width: 0.8"/>
      </g>
     </g>
     <g id="text_14">
      <!-- 0.007 -->
      <g transform="translate(21.971875 84.725998) scale(0.1 -0.1)">
       <use xlink:href="#DejaVuSans-30"/>
       <use xlink:href="#DejaVuSans-2e" x="63.623047"/>
       <use xlink:href="#DejaVuSans-30" x="95.410156"/>
       <use xlink:href="#DejaVuSans-30" x="159.033203"/>
       <use xlink:href="#DejaVuSans-37" x="222.65625"/>
      </g>
     </g>
    </g>
    <g id="ytick_9">
     <g id="line2d_29">
      <path d="M 57.6 48.547176 
L 414.72 48.547176 
" clip-path="url(#pd6a8873d8e)" style="fill: none; stroke: #b0b0b0; stroke-width: 0.8; stroke-linecap: square"/>
     </g>
     <g id="line2d_30">
      <g>
       <use xlink:href="#m622b5784d1" x="57.6" y="48.547176" style="stroke: #000000; stroke-width: 0.8"/>
      </g>
     </g>
     <g id="text_15">
      <!-- 0.008 -->
      <g transform="translate(21.971875 52.346395) scale(0.1 -0.1)">
       <defs>
        <path id="DejaVuSans-38" d="M 2034 2216 
Q 1584 2216 1326 1975 
Q 1069 1734 1069 1313 
Q 1069 891 1326 650 
Q 1584 409 2034 409 
Q 2484 409 2743 651 
Q 3003 894 3003 1313 
Q 3003 1734 2745 1975 
Q 2488 2216 2034 2216 
z
M 1403 2484 
Q 997 2584 770 2862 
Q 544 3141 544 3541 
Q 544 4100 942 4425 
Q 1341 4750 2034 4750 
Q 2731 4750 3128 4425 
Q 3525 4100 3525 3541 
Q 3525 3141 3298 2862 
Q 3072 2584 2669 2484 
Q 3125 2378 3379 2068 
Q 3634 1759 3634 1313 
Q 3634 634 3220 271 
Q 2806 -91 2034 -91 
Q 1263 -91 848 271 
Q 434 634 434 1313 
Q 434 1759 690 2068 
Q 947 2378 1403 2484 
z
M 1172 3481 
Q 1172 3119 1398 2916 
Q 1625 2713 2034 2713 
Q 2441 2713 2670 2916 
Q 2900 3119 2900 3481 
Q 2900 3844 2670 4047 
Q 2441 4250 2034 4250 
Q 1625 4250 1398 4047 
Q 1172 3844 1172 3481 
z
" transform="scale(0.015625)"/>
       </defs>
       <use xlink:href="#DejaVuSans-30"/>
       <use xlink:href="#DejaVuSans-2e" x="63.623047"/>
       <use xlink:href="#DejaVuSans-30" x="95.410156"/>
       <use xlink:href="#DejaVuSans-30" x="159.033203"/>
       <use xlink:href="#DejaVuSans-38" x="222.65625"/>
      </g>
     </g>
    </g>
   </g>
   <g id="line2d_31">
    <path d="M 75.456 305.648289 
L 78.702545 305.461436 
L 81.949091 305.257634 
L 85.195636 305.035479 
L 88.442182 304.793465 
L 91.688727 304.529981 
L 94.935273 304.243302 
L 98.181818 303.931591 
L 101.428364 303.592886 
L 104.674909 303.225099 
L 107.921455 302.826013 
L 111.168 302.393272 
L 114.414545 301.924382 
L 117.661091 301.416703 
L 120.907636 300.867449 
L 124.154182 300.273685 
L 127.400727 299.632322 
L 130.647273 298.940123 
L 133.893818 298.193694 
L 137.140364 297.389494 
L 140.386909 296.523835 
L 143.633455 295.592883 
L 146.88 294.592672 
L 150.126545 293.519107 
L 153.373091 292.367975 
L 156.619636 291.134965 
L 159.866182 289.815676 
L 163.112727 288.405643 
L 166.359273 286.900357 
L 169.605818 285.295294 
L 172.852364 283.585945 
L 176.098909 281.767851 
L 179.345455 279.836646 
L 182.592 277.788096 
L 185.838545 275.618157 
L 189.085091 273.323025 
L 192.331636 270.899199 
L 195.578182 268.34355 
L 198.824727 265.653392 
L 202.071273 262.826562 
L 205.317818 259.861506 
L 208.564364 256.757369 
L 211.810909 253.514092 
L 215.057455 250.132516 
L 218.304 246.614485 
L 221.550545 242.962961 
L 224.797091 239.182133 
L 228.043636 235.277539 
L 231.290182 231.256181 
L 234.536727 227.12664 
L 237.783273 222.899191 
L 241.029818 218.585917 
L 244.276364 214.200806 
L 247.522909 209.759847 
L 250.769455 205.281114 
L 254.016 200.78483 
L 257.262545 196.293409 
L 260.509091 191.831487 
L 263.755636 187.425914 
L 267.002182 183.105719 
L 270.248727 178.902037 
L 273.495273 174.848002 
L 276.741818 170.978584 
L 279.988364 167.330388 
L 283.234909 163.941386 
L 286.481455 160.850607 
L 289.728 158.09775 
L 292.974545 155.722744 
L 296.221091 153.76524 
L 299.467636 152.264037 
L 302.714182 151.256444 
L 305.960727 150.777584 
L 309.207273 150.859637 
L 312.453818 151.531046 
L 315.700364 152.815671 
L 318.946909 154.731939 
L 322.193455 157.29197 
L 325.44 160.500732 
L 328.686545 164.355227 
L 331.933091 168.843748 
L 335.179636 173.945232 
L 338.426182 179.62875 
L 341.672727 185.853163 
L 344.919273 192.56699 
L 348.165818 199.708521 
L 351.412364 207.206218 
L 354.658909 214.979436 
L 357.905455 222.939496 
L 361.152 230.991129 
L 364.398545 239.034305 
L 367.645091 246.966431 
L 370.891636 254.684914 
L 374.138182 262.090026 
L 377.384727 269.088 
L 380.631273 275.594264 
L 383.877818 281.53667 
L 387.124364 286.858558 
L 390.370909 291.521452 
L 393.617455 295.507176 
L 396.864 298.819144 
" clip-path="url(#pd6a8873d8e)" style="fill: none; stroke: #ff7f0e; stroke-width: 2; stroke-linecap: square"/>
   </g>
   <g id="line2d_32">
    <path d="M 75.456 305.545661 
L 78.702545 305.363063 
L 81.949091 305.164607 
L 85.195636 304.948986 
L 88.442182 304.714797 
L 91.688727 304.460534 
L 94.935273 304.184581 
L 98.181818 303.885206 
L 101.428364 303.560555 
L 104.674909 303.208646 
L 107.921455 302.827361 
L 111.168 302.414444 
L 114.414545 301.967488 
L 117.661091 301.483936 
L 120.907636 300.961069 
L 124.154182 300.396008 
L 127.400727 299.785701 
L 130.647273 299.126927 
L 133.893818 298.416286 
L 137.140364 297.650203 
L 140.386909 296.824921 
L 143.633455 295.936508 
L 146.88 294.980854 
L 150.126545 293.953678 
L 153.373091 292.850536 
L 156.619636 291.666827 
L 159.866182 290.397808 
L 163.112727 289.038607 
L 166.359273 287.584247 
L 169.605818 286.029664 
L 172.852364 284.369742 
L 176.098909 282.599341 
L 179.345455 280.71334 
L 182.592 278.706679 
L 185.838545 276.574414 
L 189.085091 274.311776 
L 192.331636 271.914237 
L 195.578182 269.377584 
L 198.824727 266.698003 
L 202.071273 263.872171 
L 205.317818 260.897357 
L 208.564364 257.77153 
L 211.810909 254.493479 
L 215.057455 251.06294 
L 218.304 247.48073 
L 221.550545 243.748892 
L 224.797091 239.870843 
L 228.043636 235.85153 
L 231.290182 231.697585 
L 234.536727 227.417488 
L 237.783273 223.021725 
L 241.029818 218.522943 
L 244.276364 213.936092 
L 247.522909 209.278569 
L 250.769455 204.570329 
L 254.016 199.833988 
L 257.262545 195.094889 
L 260.509091 190.381142 
L 263.755636 185.723621 
L 267.002182 181.15591 
L 270.248727 176.714205 
L 273.495273 172.437144 
L 276.741818 168.365573 
L 279.988364 164.542242 
L 283.234909 161.011411 
L 286.481455 157.818377 
L 289.728 155.008912 
L 292.974545 152.628612 
L 296.221091 150.722153 
L 299.467636 149.33247 
L 302.714182 148.499858 
L 305.960727 148.261002 
L 309.207273 148.647969 
L 312.453818 149.687167 
L 315.700364 151.398298 
L 318.946909 153.793347 
L 322.193455 156.875627 
L 325.44 160.638929 
L 328.686545 165.066812 
L 331.933091 170.132085 
L 335.179636 175.796516 
L 338.426182 182.010818 
L 341.672727 188.714941 
L 344.919273 195.838712 
L 348.165818 203.302838 
L 351.412364 211.020272 
L 354.658909 218.897949 
L 357.905455 226.838855 
L 361.152 234.744382 
L 364.398545 242.516898 
L 367.645091 250.062452 
L 370.891636 257.293487 
L 374.138182 264.131456 
L 377.384727 270.509191 
L 380.631273 276.372905 
L 383.877818 281.683687 
L 387.124364 286.418396 
L 390.370909 290.569866 
L 393.617455 294.146389 
L 396.864 297.170491 
" clip-path="url(#pd6a8873d8e)" style="fill: none; stroke: #2ca02c; stroke-width: 2; stroke-linecap: square"/>
   </g>
   <g id="line2d_33">
    <path d="M 75.456 305.600856 
L 78.702545 305.416443 
L 81.949091 305.215917 
L 85.195636 304.997979 
L 88.442182 304.761235 
L 91.688727 304.504191 
L 94.935273 304.22525 
L 98.181818 303.922704 
L 101.428364 303.594726 
L 104.674909 303.239371 
L 107.921455 302.854561 
L 111.168 302.438087 
L 114.414545 301.987598 
L 117.661091 301.500596 
L 120.907636 300.974431 
L 124.154182 300.406296 
L 127.400727 299.793223 
L 130.647273 299.132073 
L 133.893818 298.419542 
L 137.140364 297.652146 
L 140.386909 296.826229 
L 143.633455 295.937957 
L 146.88 294.98332 
L 150.126545 293.958134 
L 153.373091 292.858045 
L 156.619636 291.678536 
L 159.866182 290.414935 
L 163.112727 289.062428 
L 166.359273 287.616075 
L 169.605818 286.070827 
L 172.852364 284.421554 
L 176.098909 282.663069 
L 179.345455 280.790165 
L 182.592 278.797655 
L 185.838545 276.680419 
L 189.085091 274.433457 
L 192.331636 272.051954 
L 195.578182 269.531347 
L 198.824727 266.867409 
L 202.071273 264.056338 
L 205.317818 261.094854 
L 208.564364 257.980316 
L 211.810909 254.710841 
L 215.057455 251.285434 
L 218.304 247.704141 
L 221.550545 243.968196 
L 224.797091 240.080191 
L 228.043636 236.04425 
L 231.290182 231.866209 
L 234.536727 227.553807 
L 237.783273 223.116874 
L 241.029818 218.567524 
L 244.276364 213.920338 
L 247.522909 209.192542 
L 250.769455 204.404173 
L 254.016 199.578214 
L 257.262545 194.740711 
L 260.509091 189.920846 
L 263.755636 185.150967 
L 267.002182 180.466563 
L 270.248727 175.906169 
L 273.495273 171.511202 
L 276.741818 167.325702 
L 279.988364 163.395988 
L 283.234909 159.770198 
L 286.481455 156.497729 
L 289.728 153.628552 
L 292.974545 151.212422 
L 296.221091 149.297961 
L 299.467636 147.931649 
L 302.714182 147.156715 
L 305.960727 147.011951 
L 309.207273 147.530492 
L 312.453818 148.738567 
L 315.700364 150.654285 
L 318.946909 153.286488 
L 322.193455 156.633725 
L 325.44 160.683408 
L 328.686545 165.411187 
L 331.933091 170.780627 
L 335.179636 176.743205 
L 338.426182 183.238694 
L 341.672727 190.195944 
L 344.919273 197.534082 
L 348.165818 205.164127 
L 351.412364 212.99098 
L 354.658909 220.915745 
L 357.905455 228.838306 
L 361.152 236.660056 
L 364.398545 244.286671 
L 367.645091 251.630794 
L 370.891636 258.614505 
L 374.138182 265.171437 
L 377.384727 271.248436 
L 380.631273 276.806672 
L 383.877818 281.822124 
L 387.124364 286.285443 
L 390.370909 290.201189 
L 393.617455 293.586502 
L 396.864 296.469317 
" clip-path="url(#pd6a8873d8e)" style="fill: none; stroke: #d62728; stroke-width: 2; stroke-linecap: square"/>
   </g>
   <g id="line2d_34">
    <path d="M 75.456 305.538496 
L 78.702545 305.35851 
L 81.949091 305.163084 
L 85.195636 304.950952 
L 88.442182 304.720748 
L 91.688727 304.471006 
L 94.935273 304.200151 
L 98.181818 303.906491 
L 101.428364 303.588214 
L 104.674909 303.243376 
L 107.921455 302.869901 
L 111.168 302.465567 
L 114.414545 302.028001 
L 117.661091 301.554675 
L 120.907636 301.042896 
L 124.154182 300.489802 
L 127.400727 299.892351 
L 130.647273 299.247323 
L 133.893818 298.551307 
L 137.140364 297.800704 
L 140.386909 296.99172 
L 143.633455 296.120366 
L 146.88 295.182457 
L 150.126545 294.173617 
L 153.373091 293.089278 
L 156.619636 291.924692 
L 159.866182 290.674938 
L 163.112727 289.334938 
L 166.359273 287.899471 
L 169.605818 286.363196 
L 172.852364 284.72068 
L 176.098909 282.966429 
L 179.345455 281.094928 
L 182.592 279.100684 
L 185.838545 276.978281 
L 189.085091 274.722441 
L 192.331636 272.32809 
L 195.578182 269.790444 
L 198.824727 267.105091 
L 202.071273 264.268094 
L 205.317818 261.2761 
L 208.564364 258.126461 
L 211.810909 254.817367 
L 215.057455 251.34799 
L 218.304 247.718634 
L 221.550545 243.930903 
L 224.797091 239.98787 
L 228.043636 235.894259 
L 231.290182 231.656627 
L 234.536727 227.283557 
L 237.783273 222.78584 
L 241.029818 218.176659 
L 244.276364 213.471766 
L 247.522909 208.689643 
L 250.769455 203.851639 
L 254.016 198.982086 
L 257.262545 194.108383 
L 260.509091 189.261026 
L 263.755636 184.473605 
L 267.002182 179.782727 
L 270.248727 175.227873 
L 273.495273 170.851189 
L 276.741818 166.697175 
L 279.988364 162.812291 
L 283.234909 159.244462 
L 286.481455 156.042482 
L 289.728 153.255307 
L 292.974545 150.931252 
L 296.221091 149.117086 
L 299.467636 147.857044 
L 302.714182 147.191765 
L 305.960727 147.157175 
L 309.207273 147.783342 
L 312.453818 149.093348 
L 315.700364 151.102184 
L 318.946909 153.81574 
L 322.193455 157.229921 
L 325.44 161.32993 
L 328.686545 166.089781 
L 331.933091 171.472077 
L 335.179636 177.428089 
L 338.426182 183.898183 
L 341.672727 190.812604 
L 344.919273 198.092635 
L 348.165818 205.652113 
L 351.412364 213.399284 
L 354.658909 221.238952 
L 357.905455 229.074843 
L 361.152 236.812121 
L 364.398545 244.359935 
L 367.645091 251.633907 
L 370.891636 258.558429 
L 374.138182 265.068666 
L 377.384727 271.112155 
L 380.631273 276.649921 
L 383.877818 281.657037 
L 387.124364 286.12261 
L 390.370909 290.04919 
L 393.617455 293.451643 
L 396.864 296.355567 
" clip-path="url(#pd6a8873d8e)" style="fill: none; stroke: #9467bd; stroke-width: 2; stroke-linecap: square"/>
   </g>
   <g id="line2d_35">
    <path d="M 75.456 305.315746 
L 78.702545 305.119497 
L 81.949091 304.907249 
L 85.195636 304.677784 
L 88.442182 304.429803 
L 91.688727 304.161918 
L 94.935273 303.872644 
L 98.181818 303.5604 
L 101.428364 303.223498 
L 104.674909 302.860142 
L 107.921455 302.468418 
L 111.168 302.046291 
L 114.414545 301.5916 
L 117.661091 301.10205 
L 120.907636 300.575208 
L 124.154182 300.008495 
L 127.400727 299.399184 
L 130.647273 298.744394 
L 133.893818 298.041084 
L 137.140364 297.286051 
L 140.386909 296.475924 
L 143.633455 295.607164 
L 146.88 294.676062 
L 150.126545 293.678736 
L 153.373091 292.611137 
L 156.619636 291.469047 
L 159.866182 290.248089 
L 163.112727 288.94373 
L 166.359273 287.551291 
L 169.605818 286.065967 
L 172.852364 284.482834 
L 176.098909 282.796878 
L 179.345455 281.003017 
L 182.592 279.096135 
L 185.838545 277.071114 
L 189.085091 274.922884 
L 192.331636 272.646468 
L 195.578182 270.237045 
L 198.824727 267.690016 
L 202.071273 265.001083 
L 205.317818 262.166334 
L 208.564364 259.182344 
L 211.810909 256.046286 
L 215.057455 252.75605 
L 218.304 249.310383 
L 221.550545 245.709035 
L 224.797091 241.952921 
L 228.043636 238.044293 
L 231.290182 233.986929 
L 234.536727 229.786328 
L 237.783273 225.449915 
L 241.029818 220.987257 
L 244.276364 216.410274 
L 247.522909 211.733459 
L 250.769455 206.974086 
L 254.016 202.152411 
L 257.262545 197.291852 
L 260.509091 192.419142 
L 263.755636 187.564447 
L 267.002182 182.761439 
L 270.248727 178.047303 
L 273.495273 173.462678 
L 276.741818 169.051514 
L 279.988364 164.860825 
L 283.234909 160.940332 
L 286.481455 157.341983 
L 289.728 154.119335 
L 292.974545 151.326796 
L 296.221091 149.018712 
L 299.467636 147.248315 
L 302.714182 146.066526 
L 305.960727 145.520634 
L 309.207273 145.652872 
L 312.453818 146.498921 
L 315.700364 148.086391 
L 318.946909 150.433319 
L 322.193455 153.546766 
L 325.44 157.421561 
L 328.686545 162.039284 
L 331.933091 167.367559 
L 335.179636 173.359738 
L 338.426182 179.955032 
L 341.672727 187.079164 
L 344.919273 194.645559 
L 348.165818 202.557091 
L 351.412364 210.708364 
L 354.658909 218.988466 
L 357.905455 227.284109 
L 361.152 235.483018 
L 364.398545 243.477429 
L 367.645091 251.167496 
L 370.891636 258.464438 
L 374.138182 265.293229 
L 377.384727 271.594678 
L 380.631273 277.326761 
L 383.877818 282.465131 
L 387.124364 287.00278 
L 390.370909 290.948892 
L 393.617455 294.326989 
L 396.864 297.172517 
" clip-path="url(#pd6a8873d8e)" style="fill: none; stroke: #8c564b; stroke-width: 2; stroke-linecap: square"/>
   </g>
   <g id="patch_103">
    <path d="M 57.6 307.584 
L 57.6 41.472 
" style="fill: none; stroke: #000000; stroke-width: 0.8; stroke-linejoin: miter; stroke-linecap: square"/>
   </g>
   <g id="patch_104">
    <path d="M 414.72 307.584 
L 414.72 41.472 
" style="fill: none; stroke: #000000; stroke-width: 0.8; stroke-linejoin: miter; stroke-linecap: square"/>
   </g>
   <g id="patch_105">
    <path d="M 57.6 307.584 
L 414.72 307.584 
" style="fill: none; stroke: #000000; stroke-width: 0.8; stroke-linejoin: miter; stroke-linecap: square"/>
   </g>
   <g id="patch_106">
    <path d="M 57.6 41.472 
L 414.72 41.472 
" style="fill: none; stroke: #000000; stroke-width: 0.8; stroke-linejoin: miter; stroke-linecap: square"/>
   </g>
   <g id="legend_1">
    <g id="patch_107">
     <path d="M 318.852813 122.862625 
L 407.72 122.862625 
Q 409.72 122.862625 409.72 120.862625 
L 409.72 48.472 
Q 409.72 46.472 407.72 46.472 
L 318.852813 46.472 
Q 316.852813 46.472 316.852813 48.472 
L 316.852813 120.862625 
Q 316.852813 122.862625 318.852813 122.862625 
z
" style="fill: #ffffff; opacity: 0.8; stroke: #cccccc; stroke-linejoin: miter"/>
    </g>
    <g id="line2d_36">
     <path d="M 320.852813 54.570438 
L 330.852813 54.570438 
L 340.852813 54.570438 
" style="fill: none; stroke: #ff7f0e; stroke-width: 2; stroke-linecap: square"/>
    </g>
    <g id="text_16">
     <!-- pearson3 -->
     <g transform="translate(348.852813 58.070438) scale(0.1 -0.1)">
      <defs>
       <path id="DejaVuSans-70" d="M 1159 525 
L 1159 -1331 
L 581 -1331 
L 581 3500 
L 1159 3500 
L 1159 2969 
Q 1341 3281 1617 3432 
Q 1894 3584 2278 3584 
Q 2916 3584 3314 3078 
Q 3713 2572 3713 1747 
Q 3713 922 3314 415 
Q 2916 -91 2278 -91 
Q 1894 -91 1617 61 
Q 1341 213 1159 525 
z
M 3116 1747 
Q 3116 2381 2855 2742 
Q 2594 3103 2138 3103 
Q 1681 3103 1420 2742 
Q 1159 2381 1159 1747 
Q 1159 1113 1420 752 
Q 1681 391 2138 391 
Q 2594 391 2855 752 
Q 3116 1113 3116 1747 
z
" transform="scale(0.015625)"/>
       <path id="DejaVuSans-65" d="M 3597 1894 
L 3597 1613 
L 953 1613 
Q 991 1019 1311 708 
Q 1631 397 2203 397 
Q 2534 397 2845 478 
Q 3156 559 3463 722 
L 3463 178 
Q 3153 47 2828 -22 
Q 2503 -91 2169 -91 
Q 1331 -91 842 396 
Q 353 884 353 1716 
Q 353 2575 817 3079 
Q 1281 3584 2069 3584 
Q 2775 3584 3186 3129 
Q 3597 2675 3597 1894 
z
M 3022 2063 
Q 3016 2534 2758 2815 
Q 2500 3097 2075 3097 
Q 1594 3097 1305 2825 
Q 1016 2553 972 2059 
L 3022 2063 
z
" transform="scale(0.015625)"/>
       <path id="DejaVuSans-61" d="M 2194 1759 
Q 1497 1759 1228 1600 
Q 959 1441 959 1056 
Q 959 750 1161 570 
Q 1363 391 1709 391 
Q 2188 391 2477 730 
Q 2766 1069 2766 1631 
L 2766 1759 
L 2194 1759 
z
M 3341 1997 
L 3341 0 
L 2766 0 
L 2766 531 
Q 2569 213 2275 61 
Q 1981 -91 1556 -91 
Q 1019 -91 701 211 
Q 384 513 384 1019 
Q 384 1609 779 1909 
Q 1175 2209 1959 2209 
L 2766 2209 
L 2766 2266 
Q 2766 2663 2505 2880 
Q 2244 3097 1772 3097 
Q 1472 3097 1187 3025 
Q 903 2953 641 2809 
L 641 3341 
Q 956 3463 1253 3523 
Q 1550 3584 1831 3584 
Q 2591 3584 2966 3190 
Q 3341 2797 3341 1997 
z
" transform="scale(0.015625)"/>
       <path id="DejaVuSans-72" d="M 2631 2963 
Q 2534 3019 2420 3045 
Q 2306 3072 2169 3072 
Q 1681 3072 1420 2755 
Q 1159 2438 1159 1844 
L 1159 0 
L 581 0 
L 581 3500 
L 1159 3500 
L 1159 2956 
Q 1341 3275 1631 3429 
Q 1922 3584 2338 3584 
Q 2397 3584 2469 3576 
Q 2541 3569 2628 3553 
L 2631 2963 
z
" transform="scale(0.015625)"/>
       <path id="DejaVuSans-73" d="M 2834 3397 
L 2834 2853 
Q 2591 2978 2328 3040 
Q 2066 3103 1784 3103 
Q 1356 3103 1142 2972 
Q 928 2841 928 2578 
Q 928 2378 1081 2264 
Q 1234 2150 1697 2047 
L 1894 2003 
Q 2506 1872 2764 1633 
Q 3022 1394 3022 966 
Q 3022 478 2636 193 
Q 2250 -91 1575 -91 
Q 1294 -91 989 -36 
Q 684 19 347 128 
L 347 722 
Q 666 556 975 473 
Q 1284 391 1588 391 
Q 1994 391 2212 530 
Q 2431 669 2431 922 
Q 2431 1156 2273 1281 
Q 2116 1406 1581 1522 
L 1381 1569 
Q 847 1681 609 1914 
Q 372 2147 372 2553 
Q 372 3047 722 3315 
Q 1072 3584 1716 3584 
Q 2034 3584 2315 3537 
Q 2597 3491 2834 3397 
z
" transform="scale(0.015625)"/>
       <path id="DejaVuSans-6f" d="M 1959 3097 
Q 1497 3097 1228 2736 
Q 959 2375 959 1747 
Q 959 1119 1226 758 
Q 1494 397 1959 397 
Q 2419 397 2687 759 
Q 2956 1122 2956 1747 
Q 2956 2369 2687 2733 
Q 2419 3097 1959 3097 
z
M 1959 3584 
Q 2709 3584 3137 3096 
Q 3566 2609 3566 1747 
Q 3566 888 3137 398 
Q 2709 -91 1959 -91 
Q 1206 -91 779 398 
Q 353 888 353 1747 
Q 353 2609 779 3096 
Q 1206 3584 1959 3584 
z
" transform="scale(0.015625)"/>
       <path id="DejaVuSans-6e" d="M 3513 2113 
L 3513 0 
L 2938 0 
L 2938 2094 
Q 2938 2591 2744 2837 
Q 2550 3084 2163 3084 
Q 1697 3084 1428 2787 
Q 1159 2491 1159 1978 
L 1159 0 
L 581 0 
L 581 3500 
L 1159 3500 
L 1159 2956 
Q 1366 3272 1645 3428 
Q 1925 3584 2291 3584 
Q 2894 3584 3203 3211 
Q 3513 2838 3513 2113 
z
" transform="scale(0.015625)"/>
      </defs>
      <use xlink:href="#DejaVuSans-70"/>
      <use xlink:href="#DejaVuSans-65" x="63.476562"/>
      <use xlink:href="#DejaVuSans-61" x="125"/>
      <use xlink:href="#DejaVuSans-72" x="186.279297"/>
      <use xlink:href="#DejaVuSans-73" x="227.392578"/>
      <use xlink:href="#DejaVuSans-6f" x="279.492188"/>
      <use xlink:href="#DejaVuSans-6e" x="340.673828"/>
      <use xlink:href="#DejaVuSans-33" x="404.052734"/>
     </g>
    </g>
    <g id="line2d_37">
     <path d="M 320.852813 69.248563 
L 330.852813 69.248563 
L 340.852813 69.248563 
" style="fill: none; stroke: #2ca02c; stroke-width: 2; stroke-linecap: square"/>
    </g>
    <g id="text_17">
     <!-- johnsonsu -->
     <g transform="translate(348.852813 72.748563) scale(0.1 -0.1)">
      <defs>
       <path id="DejaVuSans-6a" d="M 603 3500 
L 1178 3500 
L 1178 -63 
Q 1178 -731 923 -1031 
Q 669 -1331 103 -1331 
L -116 -1331 
L -116 -844 
L 38 -844 
Q 366 -844 484 -692 
Q 603 -541 603 -63 
L 603 3500 
z
M 603 4863 
L 1178 4863 
L 1178 4134 
L 603 4134 
L 603 4863 
z
" transform="scale(0.015625)"/>
       <path id="DejaVuSans-68" d="M 3513 2113 
L 3513 0 
L 2938 0 
L 2938 2094 
Q 2938 2591 2744 2837 
Q 2550 3084 2163 3084 
Q 1697 3084 1428 2787 
Q 1159 2491 1159 1978 
L 1159 0 
L 581 0 
L 581 4863 
L 1159 4863 
L 1159 2956 
Q 1366 3272 1645 3428 
Q 1925 3584 2291 3584 
Q 2894 3584 3203 3211 
Q 3513 2838 3513 2113 
z
" transform="scale(0.015625)"/>
       <path id="DejaVuSans-75" d="M 544 1381 
L 544 3500 
L 1119 3500 
L 1119 1403 
Q 1119 906 1312 657 
Q 1506 409 1894 409 
Q 2359 409 2629 706 
Q 2900 1003 2900 1516 
L 2900 3500 
L 3475 3500 
L 3475 0 
L 2900 0 
L 2900 538 
Q 2691 219 2414 64 
Q 2138 -91 1772 -91 
Q 1169 -91 856 284 
Q 544 659 544 1381 
z
M 1991 3584 
L 1991 3584 
z
" transform="scale(0.015625)"/>
      </defs>
      <use xlink:href="#DejaVuSans-6a"/>
      <use xlink:href="#DejaVuSans-6f" x="27.783203"/>
      <use xlink:href="#DejaVuSans-68" x="88.964844"/>
      <use xlink:href="#DejaVuSans-6e" x="152.34375"/>
      <use xlink:href="#DejaVuSans-73" x="215.722656"/>
      <use xlink:href="#DejaVuSans-6f" x="267.822266"/>
      <use xlink:href="#DejaVuSans-6e" x="329.003906"/>
      <use xlink:href="#DejaVuSans-73" x="392.382812"/>
      <use xlink:href="#DejaVuSans-75" x="444.482422"/>
     </g>
    </g>
    <g id="line2d_38">
     <path d="M 320.852813 83.926688 
L 330.852813 83.926688 
L 340.852813 83.926688 
" style="fill: none; stroke: #d62728; stroke-width: 2; stroke-linecap: square"/>
    </g>
    <g id="text_18">
     <!-- powernorm -->
     <g transform="translate(348.852813 87.426688) scale(0.1 -0.1)">
      <defs>
       <path id="DejaVuSans-77" d="M 269 3500 
L 844 3500 
L 1563 769 
L 2278 3500 
L 2956 3500 
L 3675 769 
L 4391 3500 
L 4966 3500 
L 4050 0 
L 3372 0 
L 2619 2869 
L 1863 0 
L 1184 0 
L 269 3500 
z
" transform="scale(0.015625)"/>
       <path id="DejaVuSans-6d" d="M 3328 2828 
Q 3544 3216 3844 3400 
Q 4144 3584 4550 3584 
Q 5097 3584 5394 3201 
Q 5691 2819 5691 2113 
L 5691 0 
L 5113 0 
L 5113 2094 
Q 5113 2597 4934 2840 
Q 4756 3084 4391 3084 
Q 3944 3084 3684 2787 
Q 3425 2491 3425 1978 
L 3425 0 
L 2847 0 
L 2847 2094 
Q 2847 2600 2669 2842 
Q 2491 3084 2119 3084 
Q 1678 3084 1418 2786 
Q 1159 2488 1159 1978 
L 1159 0 
L 581 0 
L 581 3500 
L 1159 3500 
L 1159 2956 
Q 1356 3278 1631 3431 
Q 1906 3584 2284 3584 
Q 2666 3584 2933 3390 
Q 3200 3197 3328 2828 
z
" transform="scale(0.015625)"/>
      </defs>
      <use xlink:href="#DejaVuSans-70"/>
      <use xlink:href="#DejaVuSans-6f" x="63.476562"/>
      <use xlink:href="#DejaVuSans-77" x="124.658203"/>
      <use xlink:href="#DejaVuSans-65" x="206.445312"/>
      <use xlink:href="#DejaVuSans-72" x="267.96875"/>
      <use xlink:href="#DejaVuSans-6e" x="307.332031"/>
      <use xlink:href="#DejaVuSans-6f" x="370.710938"/>
      <use xlink:href="#DejaVuSans-72" x="431.892578"/>
      <use xlink:href="#DejaVuSans-6d" x="471.255859"/>
     </g>
    </g>
    <g id="line2d_39">
     <path d="M 320.852813 98.604813 
L 330.852813 98.604813 
L 340.852813 98.604813 
" style="fill: none; stroke: #9467bd; stroke-width: 2; stroke-linecap: square"/>
    </g>
    <g id="text_19">
     <!-- loggamma -->
     <g transform="translate(348.852813 102.104813) scale(0.1 -0.1)">
      <defs>
       <path id="DejaVuSans-6c" d="M 603 4863 
L 1178 4863 
L 1178 0 
L 603 0 
L 603 4863 
z
" transform="scale(0.015625)"/>
       <path id="DejaVuSans-67" d="M 2906 1791 
Q 2906 2416 2648 2759 
Q 2391 3103 1925 3103 
Q 1463 3103 1205 2759 
Q 947 2416 947 1791 
Q 947 1169 1205 825 
Q 1463 481 1925 481 
Q 2391 481 2648 825 
Q 2906 1169 2906 1791 
z
M 3481 434 
Q 3481 -459 3084 -895 
Q 2688 -1331 1869 -1331 
Q 1566 -1331 1297 -1286 
Q 1028 -1241 775 -1147 
L 775 -588 
Q 1028 -725 1275 -790 
Q 1522 -856 1778 -856 
Q 2344 -856 2625 -561 
Q 2906 -266 2906 331 
L 2906 616 
Q 2728 306 2450 153 
Q 2172 0 1784 0 
Q 1141 0 747 490 
Q 353 981 353 1791 
Q 353 2603 747 3093 
Q 1141 3584 1784 3584 
Q 2172 3584 2450 3431 
Q 2728 3278 2906 2969 
L 2906 3500 
L 3481 3500 
L 3481 434 
z
" transform="scale(0.015625)"/>
      </defs>
      <use xlink:href="#DejaVuSans-6c"/>
      <use xlink:href="#DejaVuSans-6f" x="27.783203"/>
      <use xlink:href="#DejaVuSans-67" x="88.964844"/>
      <use xlink:href="#DejaVuSans-67" x="152.441406"/>
      <use xlink:href="#DejaVuSans-61" x="215.917969"/>
      <use xlink:href="#DejaVuSans-6d" x="277.197266"/>
      <use xlink:href="#DejaVuSans-6d" x="374.609375"/>
      <use xlink:href="#DejaVuSans-61" x="472.021484"/>
     </g>
    </g>
    <g id="line2d_40">
     <path d="M 320.852813 113.282938 
L 330.852813 113.282938 
L 340.852813 113.282938 
" style="fill: none; stroke: #8c564b; stroke-width: 2; stroke-linecap: square"/>
    </g>
    <g id="text_20">
     <!-- burr12 -->
     <g transform="translate(348.852813 116.782938) scale(0.1 -0.1)">
      <defs>
       <path id="DejaVuSans-62" d="M 3116 1747 
Q 3116 2381 2855 2742 
Q 2594 3103 2138 3103 
Q 1681 3103 1420 2742 
Q 1159 2381 1159 1747 
Q 1159 1113 1420 752 
Q 1681 391 2138 391 
Q 2594 391 2855 752 
Q 3116 1113 3116 1747 
z
M 1159 2969 
Q 1341 3281 1617 3432 
Q 1894 3584 2278 3584 
Q 2916 3584 3314 3078 
Q 3713 2572 3713 1747 
Q 3713 922 3314 415 
Q 2916 -91 2278 -91 
Q 1894 -91 1617 61 
Q 1341 213 1159 525 
L 1159 0 
L 581 0 
L 581 4863 
L 1159 4863 
L 1159 2969 
z
" transform="scale(0.015625)"/>
      </defs>
      <use xlink:href="#DejaVuSans-62"/>
      <use xlink:href="#DejaVuSans-75" x="63.476562"/>
      <use xlink:href="#DejaVuSans-72" x="126.855469"/>
      <use xlink:href="#DejaVuSans-72" x="166.21875"/>
      <use xlink:href="#DejaVuSans-31" x="207.332031"/>
      <use xlink:href="#DejaVuSans-32" x="270.955078"/>
     </g>
    </g>
   </g>
  </g>
 </g>
 <defs>
  <clipPath id="pd6a8873d8e">
   <rect x="57.6" y="41.472" width="357.12" height="266.112"/>
  </clipPath>
 </defs>
</svg>
