<?xml version="1.0" encoding="utf-8" standalone="no"?>
<!DOCTYPE svg PUBLIC "-//W3C//DTD SVG 1.1//EN"
  "http://www.w3.org/Graphics/SVG/1.1/DTD/svg11.dtd">
<svg xmlns:xlink="http://www.w3.org/1999/xlink" width="460.8pt" height="345.6pt" viewBox="0 0 460.8 345.6" xmlns="http://www.w3.org/2000/svg" version="1.1">
 <metadata>
  <rdf:RDF xmlns:dc="http://purl.org/dc/elements/1.1/" xmlns:cc="http://creativecommons.org/ns#" xmlns:rdf="http://www.w3.org/1999/02/22-rdf-syntax-ns#">
   <cc:Work>
    <dc:type rdf:resource="http://purl.org/dc/dcmitype/StillImage"/>
    <dc:date>2022-12-28T14:08:00.843214</dc:date>
    <dc:format>image/svg+xml</dc:format>
    <dc:creator>
     <cc:Agent>
      <dc:title>Matplotlib v3.6.2, https://matplotlib.org/</dc:title>
     </cc:Agent>
    </dc:creator>
   </cc:Work>
  </rdf:RDF>
 </metadata>
 <defs>
  <style type="text/css">*{stroke-linejoin: round; stroke-linecap: butt}</style>
 </defs>
 <g id="figure_1">
  <g id="patch_1">
   <path d="M 0 345.6 
L 460.8 345.6 
L 460.8 0 
L 0 0 
z
" style="fill: #ffffff"/>
  </g>
  <g id="axes_1">
   <g id="patch_2">
    <path d="M 57.6 307.584 
L 414.72 307.584 
L 414.72 41.472 
L 57.6 41.472 
z
" style="fill: #ffffff"/>
   </g>
   <g id="patch_3">
    <path d="M 73.832727 307.584 
L 77.079273 307.584 
L 77.079273 223.104 
L 73.832727 223.104 
z
" clip-path="url(#pca306aa6e8)" style="fill: #1f77b4"/>
   </g>
   <g id="patch_4">
    <path d="M 77.079273 307.584 
L 80.325818 307.584 
L 80.325818 307.584 
L 77.079273 307.584 
z
" clip-path="url(#pca306aa6e8)" style="fill: #1f77b4"/>
   </g>
   <g id="patch_5">
    <path d="M 80.325818 307.584 
L 83.572364 307.584 
L 83.572364 307.584 
L 80.325818 307.584 
z
" clip-path="url(#pca306aa6e8)" style="fill: #1f77b4"/>
   </g>
   <g id="patch_6">
    <path d="M 83.572364 307.584 
L 86.818909 307.584 
L 86.818909 307.584 
L 83.572364 307.584 
z
" clip-path="url(#pca306aa6e8)" style="fill: #1f77b4"/>
   </g>
   <g id="patch_7">
    <path d="M 86.818909 307.584 
L 90.065455 307.584 
L 90.065455 307.584 
L 86.818909 307.584 
z
" clip-path="url(#pca306aa6e8)" style="fill: #1f77b4"/>
   </g>
   <g id="patch_8">
    <path d="M 90.065455 307.584 
L 93.312 307.584 
L 93.312 307.584 
L 90.065455 307.584 
z
" clip-path="url(#pca306aa6e8)" style="fill: #1f77b4"/>
   </g>
   <g id="patch_9">
    <path d="M 93.312 307.584 
L 96.558545 307.584 
L 96.558545 307.584 
L 93.312 307.584 
z
" clip-path="url(#pca306aa6e8)" style="fill: #1f77b4"/>
   </g>
   <g id="patch_10">
    <path d="M 96.558545 307.584 
L 99.805091 307.584 
L 99.805091 307.584 
L 96.558545 307.584 
z
" clip-path="url(#pca306aa6e8)" style="fill: #1f77b4"/>
   </g>
   <g id="patch_11">
    <path d="M 99.805091 307.584 
L 103.051636 307.584 
L 103.051636 307.584 
L 99.805091 307.584 
z
" clip-path="url(#pca306aa6e8)" style="fill: #1f77b4"/>
   </g>
   <g id="patch_12">
    <path d="M 103.051636 307.584 
L 106.298182 307.584 
L 106.298182 307.584 
L 103.051636 307.584 
z
" clip-path="url(#pca306aa6e8)" style="fill: #1f77b4"/>
   </g>
   <g id="patch_13">
    <path d="M 106.298182 307.584 
L 109.544727 307.584 
L 109.544727 307.584 
L 106.298182 307.584 
z
" clip-path="url(#pca306aa6e8)" style="fill: #1f77b4"/>
   </g>
   <g id="patch_14">
    <path d="M 109.544727 307.584 
L 112.791273 307.584 
L 112.791273 307.584 
L 109.544727 307.584 
z
" clip-path="url(#pca306aa6e8)" style="fill: #1f77b4"/>
   </g>
   <g id="patch_15">
    <path d="M 112.791273 307.584 
L 116.037818 307.584 
L 116.037818 307.584 
L 112.791273 307.584 
z
" clip-path="url(#pca306aa6e8)" style="fill: #1f77b4"/>
   </g>
   <g id="patch_16">
    <path d="M 116.037818 307.584 
L 119.284364 307.584 
L 119.284364 307.584 
L 116.037818 307.584 
z
" clip-path="url(#pca306aa6e8)" style="fill: #1f77b4"/>
   </g>
   <g id="patch_17">
    <path d="M 119.284364 307.584 
L 122.530909 307.584 
L 122.530909 307.584 
L 119.284364 307.584 
z
" clip-path="url(#pca306aa6e8)" style="fill: #1f77b4"/>
   </g>
   <g id="patch_18">
    <path d="M 122.530909 307.584 
L 125.777455 307.584 
L 125.777455 307.584 
L 122.530909 307.584 
z
" clip-path="url(#pca306aa6e8)" style="fill: #1f77b4"/>
   </g>
   <g id="patch_19">
    <path d="M 125.777455 307.584 
L 129.024 307.584 
L 129.024 307.584 
L 125.777455 307.584 
z
" clip-path="url(#pca306aa6e8)" style="fill: #1f77b4"/>
   </g>
   <g id="patch_20">
    <path d="M 129.024 307.584 
L 132.270545 307.584 
L 132.270545 307.584 
L 129.024 307.584 
z
" clip-path="url(#pca306aa6e8)" style="fill: #1f77b4"/>
   </g>
   <g id="patch_21">
    <path d="M 132.270545 307.584 
L 135.517091 307.584 
L 135.517091 307.584 
L 132.270545 307.584 
z
" clip-path="url(#pca306aa6e8)" style="fill: #1f77b4"/>
   </g>
   <g id="patch_22">
    <path d="M 135.517091 307.584 
L 138.763636 307.584 
L 138.763636 307.584 
L 135.517091 307.584 
z
" clip-path="url(#pca306aa6e8)" style="fill: #1f77b4"/>
   </g>
   <g id="patch_23">
    <path d="M 138.763636 307.584 
L 142.010182 307.584 
L 142.010182 307.584 
L 138.763636 307.584 
z
" clip-path="url(#pca306aa6e8)" style="fill: #1f77b4"/>
   </g>
   <g id="patch_24">
    <path d="M 142.010182 307.584 
L 145.256727 307.584 
L 145.256727 307.584 
L 142.010182 307.584 
z
" clip-path="url(#pca306aa6e8)" style="fill: #1f77b4"/>
   </g>
   <g id="patch_25">
    <path d="M 145.256727 307.584 
L 148.503273 307.584 
L 148.503273 307.584 
L 145.256727 307.584 
z
" clip-path="url(#pca306aa6e8)" style="fill: #1f77b4"/>
   </g>
   <g id="patch_26">
    <path d="M 148.503273 307.584 
L 151.749818 307.584 
L 151.749818 307.584 
L 148.503273 307.584 
z
" clip-path="url(#pca306aa6e8)" style="fill: #1f77b4"/>
   </g>
   <g id="patch_27">
    <path d="M 151.749818 307.584 
L 154.996364 307.584 
L 154.996364 307.584 
L 151.749818 307.584 
z
" clip-path="url(#pca306aa6e8)" style="fill: #1f77b4"/>
   </g>
   <g id="patch_28">
    <path d="M 154.996364 307.584 
L 158.242909 307.584 
L 158.242909 307.584 
L 154.996364 307.584 
z
" clip-path="url(#pca306aa6e8)" style="fill: #1f77b4"/>
   </g>
   <g id="patch_29">
    <path d="M 158.242909 307.584 
L 161.489455 307.584 
L 161.489455 223.104 
L 158.242909 223.104 
z
" clip-path="url(#pca306aa6e8)" style="fill: #1f77b4"/>
   </g>
   <g id="patch_30">
    <path d="M 161.489455 307.584 
L 164.736 307.584 
L 164.736 307.584 
L 161.489455 307.584 
z
" clip-path="url(#pca306aa6e8)" style="fill: #1f77b4"/>
   </g>
   <g id="patch_31">
    <path d="M 164.736 307.584 
L 167.982545 307.584 
L 167.982545 223.104 
L 164.736 223.104 
z
" clip-path="url(#pca306aa6e8)" style="fill: #1f77b4"/>
   </g>
   <g id="patch_32">
    <path d="M 167.982545 307.584 
L 171.229091 307.584 
L 171.229091 223.104 
L 167.982545 223.104 
z
" clip-path="url(#pca306aa6e8)" style="fill: #1f77b4"/>
   </g>
   <g id="patch_33">
    <path d="M 171.229091 307.584 
L 174.475636 307.584 
L 174.475636 307.584 
L 171.229091 307.584 
z
" clip-path="url(#pca306aa6e8)" style="fill: #1f77b4"/>
   </g>
   <g id="patch_34">
    <path d="M 174.475636 307.584 
L 177.722182 307.584 
L 177.722182 307.584 
L 174.475636 307.584 
z
" clip-path="url(#pca306aa6e8)" style="fill: #1f77b4"/>
   </g>
   <g id="patch_35">
    <path d="M 177.722182 307.584 
L 180.968727 307.584 
L 180.968727 307.584 
L 177.722182 307.584 
z
" clip-path="url(#pca306aa6e8)" style="fill: #1f77b4"/>
   </g>
   <g id="patch_36">
    <path d="M 180.968727 307.584 
L 184.215273 307.584 
L 184.215273 307.584 
L 180.968727 307.584 
z
" clip-path="url(#pca306aa6e8)" style="fill: #1f77b4"/>
   </g>
   <g id="patch_37">
    <path d="M 184.215273 307.584 
L 187.461818 307.584 
L 187.461818 307.584 
L 184.215273 307.584 
z
" clip-path="url(#pca306aa6e8)" style="fill: #1f77b4"/>
   </g>
   <g id="patch_38">
    <path d="M 187.461818 307.584 
L 190.708364 307.584 
L 190.708364 307.584 
L 187.461818 307.584 
z
" clip-path="url(#pca306aa6e8)" style="fill: #1f77b4"/>
   </g>
   <g id="patch_39">
    <path d="M 190.708364 307.584 
L 193.954909 307.584 
L 193.954909 307.584 
L 190.708364 307.584 
z
" clip-path="url(#pca306aa6e8)" style="fill: #1f77b4"/>
   </g>
   <g id="patch_40">
    <path d="M 193.954909 307.584 
L 197.201455 307.584 
L 197.201455 307.584 
L 193.954909 307.584 
z
" clip-path="url(#pca306aa6e8)" style="fill: #1f77b4"/>
   </g>
   <g id="patch_41">
    <path d="M 197.201455 307.584 
L 200.448 307.584 
L 200.448 307.584 
L 197.201455 307.584 
z
" clip-path="url(#pca306aa6e8)" style="fill: #1f77b4"/>
   </g>
   <g id="patch_42">
    <path d="M 200.448 307.584 
L 203.694545 307.584 
L 203.694545 307.584 
L 200.448 307.584 
z
" clip-path="url(#pca306aa6e8)" style="fill: #1f77b4"/>
   </g>
   <g id="patch_43">
    <path d="M 203.694545 307.584 
L 206.941091 307.584 
L 206.941091 307.584 
L 203.694545 307.584 
z
" clip-path="url(#pca306aa6e8)" style="fill: #1f77b4"/>
   </g>
   <g id="patch_44">
    <path d="M 206.941091 307.584 
L 210.187636 307.584 
L 210.187636 307.584 
L 206.941091 307.584 
z
" clip-path="url(#pca306aa6e8)" style="fill: #1f77b4"/>
   </g>
   <g id="patch_45">
    <path d="M 210.187636 307.584 
L 213.434182 307.584 
L 213.434182 223.104 
L 210.187636 223.104 
z
" clip-path="url(#pca306aa6e8)" style="fill: #1f77b4"/>
   </g>
   <g id="patch_46">
    <path d="M 213.434182 307.584 
L 216.680727 307.584 
L 216.680727 223.104 
L 213.434182 223.104 
z
" clip-path="url(#pca306aa6e8)" style="fill: #1f77b4"/>
   </g>
   <g id="patch_47">
    <path d="M 216.680727 307.584 
L 219.927273 307.584 
L 219.927273 223.104 
L 216.680727 223.104 
z
" clip-path="url(#pca306aa6e8)" style="fill: #1f77b4"/>
   </g>
   <g id="patch_48">
    <path d="M 219.927273 307.584 
L 223.173818 307.584 
L 223.173818 307.584 
L 219.927273 307.584 
z
" clip-path="url(#pca306aa6e8)" style="fill: #1f77b4"/>
   </g>
   <g id="patch_49">
    <path d="M 223.173818 307.584 
L 226.420364 307.584 
L 226.420364 223.104 
L 223.173818 223.104 
z
" clip-path="url(#pca306aa6e8)" style="fill: #1f77b4"/>
   </g>
   <g id="patch_50">
    <path d="M 226.420364 307.584 
L 229.666909 307.584 
L 229.666909 138.624 
L 226.420364 138.624 
z
" clip-path="url(#pca306aa6e8)" style="fill: #1f77b4"/>
   </g>
   <g id="patch_51">
    <path d="M 229.666909 307.584 
L 232.913455 307.584 
L 232.913455 223.104 
L 229.666909 223.104 
z
" clip-path="url(#pca306aa6e8)" style="fill: #1f77b4"/>
   </g>
   <g id="patch_52">
    <path d="M 232.913455 307.584 
L 236.16 307.584 
L 236.16 307.584 
L 232.913455 307.584 
z
" clip-path="url(#pca306aa6e8)" style="fill: #1f77b4"/>
   </g>
   <g id="patch_53">
    <path d="M 236.16 307.584 
L 239.406545 307.584 
L 239.406545 223.104 
L 236.16 223.104 
z
" clip-path="url(#pca306aa6e8)" style="fill: #1f77b4"/>
   </g>
   <g id="patch_54">
    <path d="M 239.406545 307.584 
L 242.653091 307.584 
L 242.653091 223.104 
L 239.406545 223.104 
z
" clip-path="url(#pca306aa6e8)" style="fill: #1f77b4"/>
   </g>
   <g id="patch_55">
    <path d="M 242.653091 307.584 
L 245.899636 307.584 
L 245.899636 54.144 
L 242.653091 54.144 
z
" clip-path="url(#pca306aa6e8)" style="fill: #1f77b4"/>
   </g>
   <g id="patch_56">
    <path d="M 245.899636 307.584 
L 249.146182 307.584 
L 249.146182 223.104 
L 245.899636 223.104 
z
" clip-path="url(#pca306aa6e8)" style="fill: #1f77b4"/>
   </g>
   <g id="patch_57">
    <path d="M 249.146182 307.584 
L 252.392727 307.584 
L 252.392727 138.624 
L 249.146182 138.624 
z
" clip-path="url(#pca306aa6e8)" style="fill: #1f77b4"/>
   </g>
   <g id="patch_58">
    <path d="M 252.392727 307.584 
L 255.639273 307.584 
L 255.639273 223.104 
L 252.392727 223.104 
z
" clip-path="url(#pca306aa6e8)" style="fill: #1f77b4"/>
   </g>
   <g id="patch_59">
    <path d="M 255.639273 307.584 
L 258.885818 307.584 
L 258.885818 223.104 
L 255.639273 223.104 
z
" clip-path="url(#pca306aa6e8)" style="fill: #1f77b4"/>
   </g>
   <g id="patch_60">
    <path d="M 258.885818 307.584 
L 262.132364 307.584 
L 262.132364 307.584 
L 258.885818 307.584 
z
" clip-path="url(#pca306aa6e8)" style="fill: #1f77b4"/>
   </g>
   <g id="patch_61">
    <path d="M 262.132364 307.584 
L 265.378909 307.584 
L 265.378909 223.104 
L 262.132364 223.104 
z
" clip-path="url(#pca306aa6e8)" style="fill: #1f77b4"/>
   </g>
   <g id="patch_62">
    <path d="M 265.378909 307.584 
L 268.625455 307.584 
L 268.625455 54.144 
L 265.378909 54.144 
z
" clip-path="url(#pca306aa6e8)" style="fill: #1f77b4"/>
   </g>
   <g id="patch_63">
    <path d="M 268.625455 307.584 
L 271.872 307.584 
L 271.872 138.624 
L 268.625455 138.624 
z
" clip-path="url(#pca306aa6e8)" style="fill: #1f77b4"/>
   </g>
   <g id="patch_64">
    <path d="M 271.872 307.584 
L 275.118545 307.584 
L 275.118545 138.624 
L 271.872 138.624 
z
" clip-path="url(#pca306aa6e8)" style="fill: #1f77b4"/>
   </g>
   <g id="patch_65">
    <path d="M 275.118545 307.584 
L 278.365091 307.584 
L 278.365091 223.104 
L 275.118545 223.104 
z
" clip-path="url(#pca306aa6e8)" style="fill: #1f77b4"/>
   </g>
   <g id="patch_66">
    <path d="M 278.365091 307.584 
L 281.611636 307.584 
L 281.611636 223.104 
L 278.365091 223.104 
z
" clip-path="url(#pca306aa6e8)" style="fill: #1f77b4"/>
   </g>
   <g id="patch_67">
    <path d="M 281.611636 307.584 
L 284.858182 307.584 
L 284.858182 307.584 
L 281.611636 307.584 
z
" clip-path="url(#pca306aa6e8)" style="fill: #1f77b4"/>
   </g>
   <g id="patch_68">
    <path d="M 284.858182 307.584 
L 288.104727 307.584 
L 288.104727 223.104 
L 284.858182 223.104 
z
" clip-path="url(#pca306aa6e8)" style="fill: #1f77b4"/>
   </g>
   <g id="patch_69">
    <path d="M 288.104727 307.584 
L 291.351273 307.584 
L 291.351273 223.104 
L 288.104727 223.104 
z
" clip-path="url(#pca306aa6e8)" style="fill: #1f77b4"/>
   </g>
   <g id="patch_70">
    <path d="M 291.351273 307.584 
L 294.597818 307.584 
L 294.597818 223.104 
L 291.351273 223.104 
z
" clip-path="url(#pca306aa6e8)" style="fill: #1f77b4"/>
   </g>
   <g id="patch_71">
    <path d="M 294.597818 307.584 
L 297.844364 307.584 
L 297.844364 307.584 
L 294.597818 307.584 
z
" clip-path="url(#pca306aa6e8)" style="fill: #1f77b4"/>
   </g>
   <g id="patch_72">
    <path d="M 297.844364 307.584 
L 301.090909 307.584 
L 301.090909 307.584 
L 297.844364 307.584 
z
" clip-path="url(#pca306aa6e8)" style="fill: #1f77b4"/>
   </g>
   <g id="patch_73">
    <path d="M 301.090909 307.584 
L 304.337455 307.584 
L 304.337455 307.584 
L 301.090909 307.584 
z
" clip-path="url(#pca306aa6e8)" style="fill: #1f77b4"/>
   </g>
   <g id="patch_74">
    <path d="M 304.337455 307.584 
L 307.584 307.584 
L 307.584 54.144 
L 304.337455 54.144 
z
" clip-path="url(#pca306aa6e8)" style="fill: #1f77b4"/>
   </g>
   <g id="patch_75">
    <path d="M 307.584 307.584 
L 310.830545 307.584 
L 310.830545 223.104 
L 307.584 223.104 
z
" clip-path="url(#pca306aa6e8)" style="fill: #1f77b4"/>
   </g>
   <g id="patch_76">
    <path d="M 310.830545 307.584 
L 314.077091 307.584 
L 314.077091 223.104 
L 310.830545 223.104 
z
" clip-path="url(#pca306aa6e8)" style="fill: #1f77b4"/>
   </g>
   <g id="patch_77">
    <path d="M 314.077091 307.584 
L 317.323636 307.584 
L 317.323636 307.584 
L 314.077091 307.584 
z
" clip-path="url(#pca306aa6e8)" style="fill: #1f77b4"/>
   </g>
   <g id="patch_78">
    <path d="M 317.323636 307.584 
L 320.570182 307.584 
L 320.570182 307.584 
L 317.323636 307.584 
z
" clip-path="url(#pca306aa6e8)" style="fill: #1f77b4"/>
   </g>
   <g id="patch_79">
    <path d="M 320.570182 307.584 
L 323.816727 307.584 
L 323.816727 307.584 
L 320.570182 307.584 
z
" clip-path="url(#pca306aa6e8)" style="fill: #1f77b4"/>
   </g>
   <g id="patch_80">
    <path d="M 323.816727 307.584 
L 327.063273 307.584 
L 327.063273 307.584 
L 323.816727 307.584 
z
" clip-path="url(#pca306aa6e8)" style="fill: #1f77b4"/>
   </g>
   <g id="patch_81">
    <path d="M 327.063273 307.584 
L 330.309818 307.584 
L 330.309818 223.104 
L 327.063273 223.104 
z
" clip-path="url(#pca306aa6e8)" style="fill: #1f77b4"/>
   </g>
   <g id="patch_82">
    <path d="M 330.309818 307.584 
L 333.556364 307.584 
L 333.556364 307.584 
L 330.309818 307.584 
z
" clip-path="url(#pca306aa6e8)" style="fill: #1f77b4"/>
   </g>
   <g id="patch_83">
    <path d="M 333.556364 307.584 
L 336.802909 307.584 
L 336.802909 307.584 
L 333.556364 307.584 
z
" clip-path="url(#pca306aa6e8)" style="fill: #1f77b4"/>
   </g>
   <g id="patch_84">
    <path d="M 336.802909 307.584 
L 340.049455 307.584 
L 340.049455 223.104 
L 336.802909 223.104 
z
" clip-path="url(#pca306aa6e8)" style="fill: #1f77b4"/>
   </g>
   <g id="patch_85">
    <path d="M 340.049455 307.584 
L 343.296 307.584 
L 343.296 223.104 
L 340.049455 223.104 
z
" clip-path="url(#pca306aa6e8)" style="fill: #1f77b4"/>
   </g>
   <g id="patch_86">
    <path d="M 343.296 307.584 
L 346.542545 307.584 
L 346.542545 307.584 
L 343.296 307.584 
z
" clip-path="url(#pca306aa6e8)" style="fill: #1f77b4"/>
   </g>
   <g id="patch_87">
    <path d="M 346.542545 307.584 
L 349.789091 307.584 
L 349.789091 307.584 
L 346.542545 307.584 
z
" clip-path="url(#pca306aa6e8)" style="fill: #1f77b4"/>
   </g>
   <g id="patch_88">
    <path d="M 349.789091 307.584 
L 353.035636 307.584 
L 353.035636 307.584 
L 349.789091 307.584 
z
" clip-path="url(#pca306aa6e8)" style="fill: #1f77b4"/>
   </g>
   <g id="patch_89">
    <path d="M 353.035636 307.584 
L 356.282182 307.584 
L 356.282182 307.584 
L 353.035636 307.584 
z
" clip-path="url(#pca306aa6e8)" style="fill: #1f77b4"/>
   </g>
   <g id="patch_90">
    <path d="M 356.282182 307.584 
L 359.528727 307.584 
L 359.528727 138.624 
L 356.282182 138.624 
z
" clip-path="url(#pca306aa6e8)" style="fill: #1f77b4"/>
   </g>
   <g id="patch_91">
    <path d="M 359.528727 307.584 
L 362.775273 307.584 
L 362.775273 223.104 
L 359.528727 223.104 
z
" clip-path="url(#pca306aa6e8)" style="fill: #1f77b4"/>
   </g>
   <g id="patch_92">
    <path d="M 362.775273 307.584 
L 366.021818 307.584 
L 366.021818 223.104 
L 362.775273 223.104 
z
" clip-path="url(#pca306aa6e8)" style="fill: #1f77b4"/>
   </g>
   <g id="patch_93">
    <path d="M 366.021818 307.584 
L 369.268364 307.584 
L 369.268364 307.584 
L 366.021818 307.584 
z
" clip-path="url(#pca306aa6e8)" style="fill: #1f77b4"/>
   </g>
   <g id="patch_94">
    <path d="M 369.268364 307.584 
L 372.514909 307.584 
L 372.514909 138.624 
L 369.268364 138.624 
z
" clip-path="url(#pca306aa6e8)" style="fill: #1f77b4"/>
   </g>
   <g id="patch_95">
    <path d="M 372.514909 307.584 
L 375.761455 307.584 
L 375.761455 307.584 
L 372.514909 307.584 
z
" clip-path="url(#pca306aa6e8)" style="fill: #1f77b4"/>
   </g>
   <g id="patch_96">
    <path d="M 375.761455 307.584 
L 379.008 307.584 
L 379.008 54.144 
L 375.761455 54.144 
z
" clip-path="url(#pca306aa6e8)" style="fill: #1f77b4"/>
   </g>
   <g id="patch_97">
    <path d="M 379.008 307.584 
L 382.254545 307.584 
L 382.254545 307.584 
L 379.008 307.584 
z
" clip-path="url(#pca306aa6e8)" style="fill: #1f77b4"/>
   </g>
   <g id="patch_98">
    <path d="M 382.254545 307.584 
L 385.501091 307.584 
L 385.501091 307.584 
L 382.254545 307.584 
z
" clip-path="url(#pca306aa6e8)" style="fill: #1f77b4"/>
   </g>
   <g id="patch_99">
    <path d="M 385.501091 307.584 
L 388.747636 307.584 
L 388.747636 307.584 
L 385.501091 307.584 
z
" clip-path="url(#pca306aa6e8)" style="fill: #1f77b4"/>
   </g>
   <g id="patch_100">
    <path d="M 388.747636 307.584 
L 391.994182 307.584 
L 391.994182 307.584 
L 388.747636 307.584 
z
" clip-path="url(#pca306aa6e8)" style="fill: #1f77b4"/>
   </g>
   <g id="patch_101">
    <path d="M 391.994182 307.584 
L 395.240727 307.584 
L 395.240727 307.584 
L 391.994182 307.584 
z
" clip-path="url(#pca306aa6e8)" style="fill: #1f77b4"/>
   </g>
   <g id="patch_102">
    <path d="M 395.240727 307.584 
L 398.487273 307.584 
L 398.487273 223.104 
L 395.240727 223.104 
z
" clip-path="url(#pca306aa6e8)" style="fill: #1f77b4"/>
   </g>
   <g id="matplotlib.axis_1">
    <g id="xtick_1">
     <g id="line2d_1">
      <path d="M 82.609363 307.584 
L 82.609363 41.472 
" clip-path="url(#pca306aa6e8)" style="fill: none; stroke: #b0b0b0; stroke-width: 0.8; stroke-linecap: square"/>
     </g>
     <g id="line2d_2">
      <defs>
       <path id="m640573b299" d="M 0 0 
L 0 3.5 
" style="stroke: #000000; stroke-width: 0.8"/>
      </defs>
      <g>
       <use xlink:href="#m640573b299" x="82.609363" y="307.584" style="stroke: #000000; stroke-width: 0.8"/>
      </g>
     </g>
     <g id="text_1">
      <!-- 195000 -->
      <g transform="translate(63.521863 322.182437) scale(0.1 -0.1)">
       <defs>
        <path id="DejaVuSans-31" d="M 794 531 
L 1825 531 
L 1825 4091 
L 703 3866 
L 703 4441 
L 1819 4666 
L 2450 4666 
L 2450 531 
L 3481 531 
L 3481 0 
L 794 0 
L 794 531 
z
" transform="scale(0.015625)"/>
        <path id="DejaVuSans-39" d="M 703 97 
L 703 672 
Q 941 559 1184 500 
Q 1428 441 1663 441 
Q 2288 441 2617 861 
Q 2947 1281 2994 2138 
Q 2813 1869 2534 1725 
Q 2256 1581 1919 1581 
Q 1219 1581 811 2004 
Q 403 2428 403 3163 
Q 403 3881 828 4315 
Q 1253 4750 1959 4750 
Q 2769 4750 3195 4129 
Q 3622 3509 3622 2328 
Q 3622 1225 3098 567 
Q 2575 -91 1691 -91 
Q 1453 -91 1209 -44 
Q 966 3 703 97 
z
M 1959 2075 
Q 2384 2075 2632 2365 
Q 2881 2656 2881 3163 
Q 2881 3666 2632 3958 
Q 2384 4250 1959 4250 
Q 1534 4250 1286 3958 
Q 1038 3666 1038 3163 
Q 1038 2656 1286 2365 
Q 1534 2075 1959 2075 
z
" transform="scale(0.015625)"/>
        <path id="DejaVuSans-35" d="M 691 4666 
L 3169 4666 
L 3169 4134 
L 1269 4134 
L 1269 2991 
Q 1406 3038 1543 3061 
Q 1681 3084 1819 3084 
Q 2600 3084 3056 2656 
Q 3513 2228 3513 1497 
Q 3513 744 3044 326 
Q 2575 -91 1722 -91 
Q 1428 -91 1123 -41 
Q 819 9 494 109 
L 494 744 
Q 775 591 1075 516 
Q 1375 441 1709 441 
Q 2250 441 2565 725 
Q 2881 1009 2881 1497 
Q 2881 1984 2565 2268 
Q 2250 2553 1709 2553 
Q 1456 2553 1204 2497 
Q 953 2441 691 2322 
L 691 4666 
z
" transform="scale(0.015625)"/>
        <path id="DejaVuSans-30" d="M 2034 4250 
Q 1547 4250 1301 3770 
Q 1056 3291 1056 2328 
Q 1056 1369 1301 889 
Q 1547 409 2034 409 
Q 2525 409 2770 889 
Q 3016 1369 3016 2328 
Q 3016 3291 2770 3770 
Q 2525 4250 2034 4250 
z
M 2034 4750 
Q 2819 4750 3233 4129 
Q 3647 3509 3647 2328 
Q 3647 1150 3233 529 
Q 2819 -91 2034 -91 
Q 1250 -91 836 529 
Q 422 1150 422 2328 
Q 422 3509 836 4129 
Q 1250 4750 2034 4750 
z
" transform="scale(0.015625)"/>
       </defs>
       <use xlink:href="#DejaVuSans-31"/>
       <use xlink:href="#DejaVuSans-39" x="63.623047"/>
       <use xlink:href="#DejaVuSans-35" x="127.246094"/>
       <use xlink:href="#DejaVuSans-30" x="190.869141"/>
       <use xlink:href="#DejaVuSans-30" x="254.492188"/>
       <use xlink:href="#DejaVuSans-30" x="318.115234"/>
      </g>
     </g>
    </g>
    <g id="xtick_2">
     <g id="line2d_3">
      <path d="M 132.645765 307.584 
L 132.645765 41.472 
" clip-path="url(#pca306aa6e8)" style="fill: none; stroke: #b0b0b0; stroke-width: 0.8; stroke-linecap: square"/>
     </g>
     <g id="line2d_4">
      <g>
       <use xlink:href="#m640573b299" x="132.645765" y="307.584" style="stroke: #000000; stroke-width: 0.8"/>
      </g>
     </g>
     <g id="text_2">
      <!-- 200000 -->
      <g transform="translate(113.558265 322.182437) scale(0.1 -0.1)">
       <defs>
        <path id="DejaVuSans-32" d="M 1228 531 
L 3431 531 
L 3431 0 
L 469 0 
L 469 531 
Q 828 903 1448 1529 
Q 2069 2156 2228 2338 
Q 2531 2678 2651 2914 
Q 2772 3150 2772 3378 
Q 2772 3750 2511 3984 
Q 2250 4219 1831 4219 
Q 1534 4219 1204 4116 
Q 875 4013 500 3803 
L 500 4441 
Q 881 4594 1212 4672 
Q 1544 4750 1819 4750 
Q 2544 4750 2975 4387 
Q 3406 4025 3406 3419 
Q 3406 3131 3298 2873 
Q 3191 2616 2906 2266 
Q 2828 2175 2409 1742 
Q 1991 1309 1228 531 
z
" transform="scale(0.015625)"/>
       </defs>
       <use xlink:href="#DejaVuSans-32"/>
       <use xlink:href="#DejaVuSans-30" x="63.623047"/>
       <use xlink:href="#DejaVuSans-30" x="127.246094"/>
       <use xlink:href="#DejaVuSans-30" x="190.869141"/>
       <use xlink:href="#DejaVuSans-30" x="254.492188"/>
       <use xlink:href="#DejaVuSans-30" x="318.115234"/>
      </g>
     </g>
    </g>
    <g id="xtick_3">
     <g id="line2d_5">
      <path d="M 182.682168 307.584 
L 182.682168 41.472 
" clip-path="url(#pca306aa6e8)" style="fill: none; stroke: #b0b0b0; stroke-width: 0.8; stroke-linecap: square"/>
     </g>
     <g id="line2d_6">
      <g>
       <use xlink:href="#m640573b299" x="182.682168" y="307.584" style="stroke: #000000; stroke-width: 0.8"/>
      </g>
     </g>
     <g id="text_3">
      <!-- 205000 -->
      <g transform="translate(163.594668 322.182437) scale(0.1 -0.1)">
       <use xlink:href="#DejaVuSans-32"/>
       <use xlink:href="#DejaVuSans-30" x="63.623047"/>
       <use xlink:href="#DejaVuSans-35" x="127.246094"/>
       <use xlink:href="#DejaVuSans-30" x="190.869141"/>
       <use xlink:href="#DejaVuSans-30" x="254.492188"/>
       <use xlink:href="#DejaVuSans-30" x="318.115234"/>
      </g>
     </g>
    </g>
    <g id="xtick_4">
     <g id="line2d_7">
      <path d="M 232.718571 307.584 
L 232.718571 41.472 
" clip-path="url(#pca306aa6e8)" style="fill: none; stroke: #b0b0b0; stroke-width: 0.8; stroke-linecap: square"/>
     </g>
     <g id="line2d_8">
      <g>
       <use xlink:href="#m640573b299" x="232.718571" y="307.584" style="stroke: #000000; stroke-width: 0.8"/>
      </g>
     </g>
     <g id="text_4">
      <!-- 210000 -->
      <g transform="translate(213.631071 322.182437) scale(0.1 -0.1)">
       <use xlink:href="#DejaVuSans-32"/>
       <use xlink:href="#DejaVuSans-31" x="63.623047"/>
       <use xlink:href="#DejaVuSans-30" x="127.246094"/>
       <use xlink:href="#DejaVuSans-30" x="190.869141"/>
       <use xlink:href="#DejaVuSans-30" x="254.492188"/>
       <use xlink:href="#DejaVuSans-30" x="318.115234"/>
      </g>
     </g>
    </g>
    <g id="xtick_5">
     <g id="line2d_9">
      <path d="M 282.754974 307.584 
L 282.754974 41.472 
" clip-path="url(#pca306aa6e8)" style="fill: none; stroke: #b0b0b0; stroke-width: 0.8; stroke-linecap: square"/>
     </g>
     <g id="line2d_10">
      <g>
       <use xlink:href="#m640573b299" x="282.754974" y="307.584" style="stroke: #000000; stroke-width: 0.8"/>
      </g>
     </g>
     <g id="text_5">
      <!-- 215000 -->
      <g transform="translate(263.667474 322.182437) scale(0.1 -0.1)">
       <use xlink:href="#DejaVuSans-32"/>
       <use xlink:href="#DejaVuSans-31" x="63.623047"/>
       <use xlink:href="#DejaVuSans-35" x="127.246094"/>
       <use xlink:href="#DejaVuSans-30" x="190.869141"/>
       <use xlink:href="#DejaVuSans-30" x="254.492188"/>
       <use xlink:href="#DejaVuSans-30" x="318.115234"/>
      </g>
     </g>
    </g>
    <g id="xtick_6">
     <g id="line2d_11">
      <path d="M 332.791377 307.584 
L 332.791377 41.472 
" clip-path="url(#pca306aa6e8)" style="fill: none; stroke: #b0b0b0; stroke-width: 0.8; stroke-linecap: square"/>
     </g>
     <g id="line2d_12">
      <g>
       <use xlink:href="#m640573b299" x="332.791377" y="307.584" style="stroke: #000000; stroke-width: 0.8"/>
      </g>
     </g>
     <g id="text_6">
      <!-- 220000 -->
      <g transform="translate(313.703877 322.182437) scale(0.1 -0.1)">
       <use xlink:href="#DejaVuSans-32"/>
       <use xlink:href="#DejaVuSans-32" x="63.623047"/>
       <use xlink:href="#DejaVuSans-30" x="127.246094"/>
       <use xlink:href="#DejaVuSans-30" x="190.869141"/>
       <use xlink:href="#DejaVuSans-30" x="254.492188"/>
       <use xlink:href="#DejaVuSans-30" x="318.115234"/>
      </g>
     </g>
    </g>
    <g id="xtick_7">
     <g id="line2d_13">
      <path d="M 382.82778 307.584 
L 382.82778 41.472 
" clip-path="url(#pca306aa6e8)" style="fill: none; stroke: #b0b0b0; stroke-width: 0.8; stroke-linecap: square"/>
     </g>
     <g id="line2d_14">
      <g>
       <use xlink:href="#m640573b299" x="382.82778" y="307.584" style="stroke: #000000; stroke-width: 0.8"/>
      </g>
     </g>
     <g id="text_7">
      <!-- 225000 -->
      <g transform="translate(363.74028 322.182437) scale(0.1 -0.1)">
       <use xlink:href="#DejaVuSans-32"/>
       <use xlink:href="#DejaVuSans-32" x="63.623047"/>
       <use xlink:href="#DejaVuSans-35" x="127.246094"/>
       <use xlink:href="#DejaVuSans-30" x="190.869141"/>
       <use xlink:href="#DejaVuSans-30" x="254.492188"/>
       <use xlink:href="#DejaVuSans-30" x="318.115234"/>
      </g>
     </g>
    </g>
   </g>
   <g id="matplotlib.axis_2">
    <g id="ytick_1">
     <g id="line2d_15">
      <path d="M 57.6 307.584 
L 414.72 307.584 
" clip-path="url(#pca306aa6e8)" style="fill: none; stroke: #b0b0b0; stroke-width: 0.8; stroke-linecap: square"/>
     </g>
     <g id="line2d_16">
      <defs>
       <path id="m724517e920" d="M 0 0 
L -3.5 0 
" style="stroke: #000000; stroke-width: 0.8"/>
      </defs>
      <g>
       <use xlink:href="#m724517e920" x="57.6" y="307.584" style="stroke: #000000; stroke-width: 0.8"/>
      </g>
     </g>
     <g id="text_8">
      <!-- 0.000000 -->
      <g transform="translate(2.884375 311.383219) scale(0.1 -0.1)">
       <defs>
        <path id="DejaVuSans-2e" d="M 684 794 
L 1344 794 
L 1344 0 
L 684 0 
L 684 794 
z
" transform="scale(0.015625)"/>
       </defs>
       <use xlink:href="#DejaVuSans-30"/>
       <use xlink:href="#DejaVuSans-2e" x="63.623047"/>
       <use xlink:href="#DejaVuSans-30" x="95.410156"/>
       <use xlink:href="#DejaVuSans-30" x="159.033203"/>
       <use xlink:href="#DejaVuSans-30" x="222.65625"/>
       <use xlink:href="#DejaVuSans-30" x="286.279297"/>
       <use xlink:href="#DejaVuSans-30" x="349.902344"/>
       <use xlink:href="#DejaVuSans-30" x="413.525391"/>
      </g>
     </g>
    </g>
    <g id="ytick_2">
     <g id="line2d_17">
      <path d="M 57.6 271.955079 
L 414.72 271.955079 
" clip-path="url(#pca306aa6e8)" style="fill: none; stroke: #b0b0b0; stroke-width: 0.8; stroke-linecap: square"/>
     </g>
     <g id="line2d_18">
      <g>
       <use xlink:href="#m724517e920" x="57.6" y="271.955079" style="stroke: #000000; stroke-width: 0.8"/>
      </g>
     </g>
     <g id="text_9">
      <!-- 0.000025 -->
      <g transform="translate(2.884375 275.754298) scale(0.1 -0.1)">
       <use xlink:href="#DejaVuSans-30"/>
       <use xlink:href="#DejaVuSans-2e" x="63.623047"/>
       <use xlink:href="#DejaVuSans-30" x="95.410156"/>
       <use xlink:href="#DejaVuSans-30" x="159.033203"/>
       <use xlink:href="#DejaVuSans-30" x="222.65625"/>
       <use xlink:href="#DejaVuSans-30" x="286.279297"/>
       <use xlink:href="#DejaVuSans-32" x="349.902344"/>
       <use xlink:href="#DejaVuSans-35" x="413.525391"/>
      </g>
     </g>
    </g>
    <g id="ytick_3">
     <g id="line2d_19">
      <path d="M 57.6 236.326158 
L 414.72 236.326158 
" clip-path="url(#pca306aa6e8)" style="fill: none; stroke: #b0b0b0; stroke-width: 0.8; stroke-linecap: square"/>
     </g>
     <g id="line2d_20">
      <g>
       <use xlink:href="#m724517e920" x="57.6" y="236.326158" style="stroke: #000000; stroke-width: 0.8"/>
      </g>
     </g>
     <g id="text_10">
      <!-- 0.000050 -->
      <g transform="translate(2.884375 240.125377) scale(0.1 -0.1)">
       <use xlink:href="#DejaVuSans-30"/>
       <use xlink:href="#DejaVuSans-2e" x="63.623047"/>
       <use xlink:href="#DejaVuSans-30" x="95.410156"/>
       <use xlink:href="#DejaVuSans-30" x="159.033203"/>
       <use xlink:href="#DejaVuSans-30" x="222.65625"/>
       <use xlink:href="#DejaVuSans-30" x="286.279297"/>
       <use xlink:href="#DejaVuSans-35" x="349.902344"/>
       <use xlink:href="#DejaVuSans-30" x="413.525391"/>
      </g>
     </g>
    </g>
    <g id="ytick_4">
     <g id="line2d_21">
      <path d="M 57.6 200.697237 
L 414.72 200.697237 
" clip-path="url(#pca306aa6e8)" style="fill: none; stroke: #b0b0b0; stroke-width: 0.8; stroke-linecap: square"/>
     </g>
     <g id="line2d_22">
      <g>
       <use xlink:href="#m724517e920" x="57.6" y="200.697237" style="stroke: #000000; stroke-width: 0.8"/>
      </g>
     </g>
     <g id="text_11">
      <!-- 0.000075 -->
      <g transform="translate(2.884375 204.496456) scale(0.1 -0.1)">
       <defs>
        <path id="DejaVuSans-37" d="M 525 4666 
L 3525 4666 
L 3525 4397 
L 1831 0 
L 1172 0 
L 2766 4134 
L 525 4134 
L 525 4666 
z
" transform="scale(0.015625)"/>
       </defs>
       <use xlink:href="#DejaVuSans-30"/>
       <use xlink:href="#DejaVuSans-2e" x="63.623047"/>
       <use xlink:href="#DejaVuSans-30" x="95.410156"/>
       <use xlink:href="#DejaVuSans-30" x="159.033203"/>
       <use xlink:href="#DejaVuSans-30" x="222.65625"/>
       <use xlink:href="#DejaVuSans-30" x="286.279297"/>
       <use xlink:href="#DejaVuSans-37" x="349.902344"/>
       <use xlink:href="#DejaVuSans-35" x="413.525391"/>
      </g>
     </g>
    </g>
    <g id="ytick_5">
     <g id="line2d_23">
      <path d="M 57.6 165.068317 
L 414.72 165.068317 
" clip-path="url(#pca306aa6e8)" style="fill: none; stroke: #b0b0b0; stroke-width: 0.8; stroke-linecap: square"/>
     </g>
     <g id="line2d_24">
      <g>
       <use xlink:href="#m724517e920" x="57.6" y="165.068317" style="stroke: #000000; stroke-width: 0.8"/>
      </g>
     </g>
     <g id="text_12">
      <!-- 0.000100 -->
      <g transform="translate(2.884375 168.867535) scale(0.1 -0.1)">
       <use xlink:href="#DejaVuSans-30"/>
       <use xlink:href="#DejaVuSans-2e" x="63.623047"/>
       <use xlink:href="#DejaVuSans-30" x="95.410156"/>
       <use xlink:href="#DejaVuSans-30" x="159.033203"/>
       <use xlink:href="#DejaVuSans-30" x="222.65625"/>
       <use xlink:href="#DejaVuSans-31" x="286.279297"/>
       <use xlink:href="#DejaVuSans-30" x="349.902344"/>
       <use xlink:href="#DejaVuSans-30" x="413.525391"/>
      </g>
     </g>
    </g>
    <g id="ytick_6">
     <g id="line2d_25">
      <path d="M 57.6 129.439396 
L 414.72 129.439396 
" clip-path="url(#pca306aa6e8)" style="fill: none; stroke: #b0b0b0; stroke-width: 0.8; stroke-linecap: square"/>
     </g>
     <g id="line2d_26">
      <g>
       <use xlink:href="#m724517e920" x="57.6" y="129.439396" style="stroke: #000000; stroke-width: 0.8"/>
      </g>
     </g>
     <g id="text_13">
      <!-- 0.000125 -->
      <g transform="translate(2.884375 133.238614) scale(0.1 -0.1)">
       <use xlink:href="#DejaVuSans-30"/>
       <use xlink:href="#DejaVuSans-2e" x="63.623047"/>
       <use xlink:href="#DejaVuSans-30" x="95.410156"/>
       <use xlink:href="#DejaVuSans-30" x="159.033203"/>
       <use xlink:href="#DejaVuSans-30" x="222.65625"/>
       <use xlink:href="#DejaVuSans-31" x="286.279297"/>
       <use xlink:href="#DejaVuSans-32" x="349.902344"/>
       <use xlink:href="#DejaVuSans-35" x="413.525391"/>
      </g>
     </g>
    </g>
    <g id="ytick_7">
     <g id="line2d_27">
      <path d="M 57.6 93.810475 
L 414.72 93.810475 
" clip-path="url(#pca306aa6e8)" style="fill: none; stroke: #b0b0b0; stroke-width: 0.8; stroke-linecap: square"/>
     </g>
     <g id="line2d_28">
      <g>
       <use xlink:href="#m724517e920" x="57.6" y="93.810475" style="stroke: #000000; stroke-width: 0.8"/>
      </g>
     </g>
     <g id="text_14">
      <!-- 0.000150 -->
      <g transform="translate(2.884375 97.609694) scale(0.1 -0.1)">
       <use xlink:href="#DejaVuSans-30"/>
       <use xlink:href="#DejaVuSans-2e" x="63.623047"/>
       <use xlink:href="#DejaVuSans-30" x="95.410156"/>
       <use xlink:href="#DejaVuSans-30" x="159.033203"/>
       <use xlink:href="#DejaVuSans-30" x="222.65625"/>
       <use xlink:href="#DejaVuSans-31" x="286.279297"/>
       <use xlink:href="#DejaVuSans-35" x="349.902344"/>
       <use xlink:href="#DejaVuSans-30" x="413.525391"/>
      </g>
     </g>
    </g>
    <g id="ytick_8">
     <g id="line2d_29">
      <path d="M 57.6 58.181554 
L 414.72 58.181554 
" clip-path="url(#pca306aa6e8)" style="fill: none; stroke: #b0b0b0; stroke-width: 0.8; stroke-linecap: square"/>
     </g>
     <g id="line2d_30">
      <g>
       <use xlink:href="#m724517e920" x="57.6" y="58.181554" style="stroke: #000000; stroke-width: 0.8"/>
      </g>
     </g>
     <g id="text_15">
      <!-- 0.000175 -->
      <g transform="translate(2.884375 61.980773) scale(0.1 -0.1)">
       <use xlink:href="#DejaVuSans-30"/>
       <use xlink:href="#DejaVuSans-2e" x="63.623047"/>
       <use xlink:href="#DejaVuSans-30" x="95.410156"/>
       <use xlink:href="#DejaVuSans-30" x="159.033203"/>
       <use xlink:href="#DejaVuSans-30" x="222.65625"/>
       <use xlink:href="#DejaVuSans-31" x="286.279297"/>
       <use xlink:href="#DejaVuSans-37" x="349.902344"/>
       <use xlink:href="#DejaVuSans-35" x="413.525391"/>
      </g>
     </g>
    </g>
   </g>
   <g id="line2d_31">
    <path d="M 75.456 305.380401 
L 78.702545 305.298477 
L 81.949091 305.211927 
L 85.195636 305.120396 
L 88.442182 305.023498 
L 91.688727 304.920808 
L 94.935273 304.811859 
L 98.181818 304.696134 
L 101.428364 304.573064 
L 104.674909 304.44202 
L 107.921455 304.302304 
L 111.168 304.15314 
L 114.414545 303.993665 
L 117.661091 303.822916 
L 120.907636 303.639815 
L 124.154182 303.443155 
L 127.400727 303.231579 
L 130.647273 303.003559 
L 133.893818 302.757368 
L 137.140364 302.491049 
L 140.386909 302.202378 
L 143.633455 301.888824 
L 146.88 301.547488 
L 150.126545 301.175048 
L 153.373091 300.767681 
L 156.619636 300.320966 
L 159.866182 299.829783 
L 163.112727 299.288168 
L 166.359273 298.689152 
L 169.605818 298.024556 
L 172.852364 297.28474 
L 176.098909 296.45829 
L 179.345455 295.531634 
L 182.592 294.488551 
L 185.838545 293.309574 
L 189.085091 291.971221 
L 192.331636 290.445051 
L 195.578182 288.696465 
L 198.824727 286.683219 
L 202.071273 284.353594 
L 205.317818 281.644171 
L 208.564364 278.477238 
L 211.810909 274.757934 
L 215.057455 270.371526 
L 218.304 265.181689 
L 221.550545 259.031656 
L 224.797091 251.751864 
L 228.043636 243.180607 
L 231.290182 233.208176 
L 234.536727 221.858368 
L 237.783273 209.417866 
L 241.029818 196.599892 
L 244.276364 184.667164 
L 247.522909 175.355419 
L 250.769455 170.438714 
L 254.016 170.264251 
L 257.262545 171.92916 
L 260.509091 174.995936 
L 263.755636 179.276799 
L 267.002182 184.530753 
L 270.248727 190.494323 
L 273.495273 196.909347 
L 276.741818 203.543626 
L 279.988364 210.20301 
L 283.234909 216.735751 
L 286.481455 223.031131 
L 289.728 229.014613 
L 292.974545 234.641442 
L 296.221091 239.890022 
L 299.467636 244.755875 
L 302.714182 249.246542 
L 305.960727 253.377531 
L 309.207273 257.169214 
L 312.453818 260.644567 
L 315.700364 263.82756 
L 318.946909 266.742066 
L 322.193455 269.411151 
L 325.44 271.856638 
L 328.686545 274.098872 
L 331.933091 276.156619 
L 335.179636 278.047052 
L 338.426182 279.785795 
L 341.672727 281.387008 
L 344.919273 282.863482 
L 348.165818 284.226753 
L 351.412364 285.487205 
L 354.658909 286.654185 
L 357.905455 287.736098 
L 361.152 288.740508 
L 364.398545 289.674218 
L 367.645091 290.543357 
L 370.891636 291.353444 
L 374.138182 292.109457 
L 377.384727 292.815891 
L 380.631273 293.476807 
L 383.877818 294.095876 
L 387.124364 294.676428 
L 390.370909 295.221477 
L 393.617455 295.733764 
L 396.864 296.215778 
" clip-path="url(#pca306aa6e8)" style="fill: none; stroke: #ff7f0e; stroke-width: 2; stroke-linecap: square"/>
   </g>
   <g id="line2d_32">
    <path d="M 75.456 305.781303 
L 78.702545 305.642129 
L 81.949091 305.492211 
L 85.195636 305.330718 
L 88.442182 305.156758 
L 91.688727 304.969367 
L 94.935273 304.767509 
L 98.181818 304.550067 
L 101.428364 304.315838 
L 104.674909 304.063526 
L 107.921455 303.791734 
L 111.168 303.498959 
L 114.414545 303.183581 
L 117.661091 302.843855 
L 120.907636 302.477901 
L 124.154182 302.083694 
L 127.400727 301.659053 
L 130.647273 301.201629 
L 133.893818 300.70889 
L 137.140364 300.17811 
L 140.386909 299.606352 
L 143.633455 298.990453 
L 146.88 298.327004 
L 150.126545 297.612335 
L 153.373091 296.842491 
L 156.619636 296.013213 
L 159.866182 295.119912 
L 163.112727 294.157645 
L 166.359273 293.121089 
L 169.605818 292.004507 
L 172.852364 290.801721 
L 176.098909 289.506076 
L 179.345455 288.110404 
L 182.592 286.606981 
L 185.838545 284.98749 
L 189.085091 283.242968 
L 192.331636 281.363765 
L 195.578182 279.33948 
L 198.824727 277.158915 
L 202.071273 274.810003 
L 205.317818 272.279748 
L 208.564364 269.554149 
L 211.810909 266.618125 
L 215.057455 263.455432 
L 218.304 260.048568 
L 221.550545 256.378684 
L 224.797091 252.425473 
L 228.043636 248.167062 
L 231.290182 243.579888 
L 234.536727 238.63857 
L 237.783273 233.315767 
L 241.029818 227.582027 
L 244.276364 221.405624 
L 247.522909 214.752384 
L 250.769455 207.585492 
L 254.016 199.865294 
L 257.262545 191.549073 
L 260.509091 182.590813 
L 263.755636 172.940947 
L 267.002182 162.546082 
L 270.248727 169.104361 
L 273.495273 177.195781 
L 276.741818 184.814416 
L 279.988364 191.987892 
L 283.234909 198.742218 
L 286.481455 205.101886 
L 289.728 211.089957 
L 292.974545 216.728142 
L 296.221091 222.036886 
L 299.467636 227.035437 
L 302.714182 231.741922 
L 305.960727 236.173404 
L 309.207273 240.345954 
L 312.453818 244.274699 
L 315.700364 247.973887 
L 318.946909 251.456929 
L 322.193455 254.736456 
L 325.44 257.824359 
L 328.686545 260.731835 
L 331.933091 263.469425 
L 335.179636 266.047057 
L 338.426182 268.474077 
L 341.672727 270.759285 
L 344.919273 272.910968 
L 348.165818 274.936927 
L 351.412364 276.844508 
L 354.658909 278.640629 
L 357.905455 280.331802 
L 361.152 281.924158 
L 364.398545 283.423473 
L 367.645091 284.835182 
L 370.891636 286.164405 
L 374.138182 287.41596 
L 377.384727 288.594387 
L 380.631273 289.703957 
L 383.877818 290.748695 
L 387.124364 291.732389 
L 390.370909 292.658605 
L 393.617455 293.530701 
L 396.864 294.351841 
" clip-path="url(#pca306aa6e8)" style="fill: none; stroke: #2ca02c; stroke-width: 2; stroke-linecap: square"/>
   </g>
   <g id="line2d_33">
    <path d="M 75.456 304.772265 
L 78.702545 304.580652 
L 81.949091 304.37598 
L 85.195636 304.15736 
L 88.442182 303.923842 
L 91.688727 303.674411 
L 94.935273 303.407981 
L 98.181818 303.123394 
L 101.428364 302.819414 
L 104.674909 302.494717 
L 107.921455 302.147894 
L 111.168 301.777435 
L 114.414545 301.381731 
L 117.661091 300.95906 
L 120.907636 300.507584 
L 124.154182 300.025342 
L 127.400727 299.510236 
L 130.647273 298.960027 
L 133.893818 298.372322 
L 137.140364 297.744566 
L 140.386909 297.07403 
L 143.633455 296.357799 
L 146.88 295.592758 
L 150.126545 294.775581 
L 153.373091 293.902715 
L 156.619636 292.970366 
L 159.866182 291.974478 
L 163.112727 290.910724 
L 166.359273 289.774476 
L 169.605818 288.560796 
L 172.852364 287.264407 
L 176.098909 285.879671 
L 179.345455 284.400568 
L 182.592 282.820668 
L 185.838545 281.133101 
L 189.085091 279.33053 
L 192.331636 277.405118 
L 195.578182 275.348494 
L 198.824727 273.151714 
L 202.071273 270.80523 
L 205.317818 268.298837 
L 208.564364 265.621639 
L 211.810909 262.761996 
L 215.057455 259.707474 
L 218.304 256.444794 
L 221.550545 252.959769 
L 224.797091 249.237247 
L 228.043636 245.261044 
L 231.290182 241.013871 
L 234.536727 236.477262 
L 237.783273 231.631494 
L 241.029818 226.455497 
L 244.276364 220.926767 
L 247.522909 215.021266 
L 250.769455 208.713318 
L 254.016 201.975498 
L 257.262545 194.77851 
L 260.509091 187.091062 
L 263.755636 178.879732 
L 267.002182 170.108818 
L 270.248727 164.788664 
L 273.495273 173.899003 
L 276.741818 182.428104 
L 279.988364 190.413048 
L 283.234909 197.888552 
L 286.481455 204.88712 
L 289.728 211.439179 
L 292.974545 217.573217 
L 296.221091 223.315903 
L 299.467636 228.692206 
L 302.714182 233.725501 
L 305.960727 238.437672 
L 309.207273 242.849207 
L 312.453818 246.979285 
L 315.700364 250.845865 
L 318.946909 254.465757 
L 322.193455 257.8547 
L 325.44 261.027428 
L 328.686545 263.997737 
L 331.933091 266.77854 
L 335.179636 269.381927 
L 338.426182 271.819219 
L 341.672727 274.101011 
L 344.919273 276.237225 
L 348.165818 278.237149 
L 351.412364 280.109477 
L 354.658909 281.862351 
L 357.905455 283.503392 
L 361.152 285.039735 
L 364.398545 286.478058 
L 367.645091 287.824617 
L 370.891636 289.085265 
L 374.138182 290.265484 
L 377.384727 291.370405 
L 380.631273 292.404832 
L 383.877818 293.373263 
L 387.124364 294.279908 
L 390.370909 295.128708 
L 393.617455 295.923356 
L 396.864 296.667305 
" clip-path="url(#pca306aa6e8)" style="fill: none; stroke: #d62728; stroke-width: 2; stroke-linecap: square"/>
   </g>
   <g id="line2d_34">
    <path d="M 75.456 305.09147 
L 78.702545 304.908186 
L 81.949091 304.711763 
L 85.195636 304.501285 
L 88.442182 304.27577 
L 91.688727 304.034173 
L 94.935273 303.775377 
L 98.181818 303.498187 
L 101.428364 303.20133 
L 104.674909 302.883448 
L 107.921455 302.543089 
L 111.168 302.178704 
L 114.414545 301.788642 
L 117.661091 301.371139 
L 120.907636 300.924314 
L 124.154182 300.446161 
L 127.400727 299.934541 
L 130.647273 299.387169 
L 133.893818 298.801614 
L 137.140364 298.175278 
L 140.386909 297.505396 
L 143.633455 296.789017 
L 146.88 296.022996 
L 150.126545 295.203983 
L 153.373091 294.328404 
L 156.619636 293.392455 
L 159.866182 292.392078 
L 163.112727 291.322953 
L 166.359273 290.180477 
L 169.605818 288.959745 
L 172.852364 287.655536 
L 176.098909 286.262287 
L 179.345455 284.774075 
L 182.592 283.184593 
L 185.838545 281.487128 
L 189.085091 279.674531 
L 192.331636 277.739193 
L 195.578182 275.673016 
L 198.824727 273.467381 
L 202.071273 271.113117 
L 205.317818 268.600464 
L 208.564364 265.91904 
L 211.810909 263.057799 
L 215.057455 260.004991 
L 218.304 256.748119 
L 221.550545 253.273892 
L 224.797091 249.568175 
L 228.043636 245.615939 
L 231.290182 241.401204 
L 234.536727 236.906982 
L 237.783273 232.115214 
L 241.029818 227.006705 
L 244.276364 221.561054 
L 247.522909 215.75658 
L 250.769455 209.570245 
L 254.016 202.977569 
L 257.262545 195.952546 
L 260.509091 188.467547 
L 263.755636 180.493226 
L 267.002182 171.998411 
L 270.248727 162.949998 
L 273.495273 171.480501 
L 276.741818 180.355807 
L 279.988364 188.640241 
L 283.234909 196.373943 
L 286.481455 203.594273 
L 289.728 210.336007 
L 292.974545 216.631517 
L 296.221091 222.510941 
L 299.467636 228.002342 
L 302.714182 233.131853 
L 305.960727 237.92381 
L 309.207273 242.400881 
L 312.453818 246.58418 
L 315.700364 250.493379 
L 318.946909 254.146805 
L 322.193455 257.561536 
L 325.44 260.753485 
L 328.686545 263.737485 
L 331.933091 266.527361 
L 335.179636 269.135999 
L 338.426182 271.575416 
L 341.672727 273.856812 
L 344.919273 275.990634 
L 348.165818 277.986623 
L 351.412364 279.853866 
L 354.658909 281.600836 
L 357.905455 283.23544 
L 361.152 284.765052 
L 364.398545 286.196555 
L 367.645091 287.536371 
L 370.891636 288.790492 
L 374.138182 289.964513 
L 377.384727 291.063652 
L 380.631273 292.092786 
L 383.877818 293.056464 
L 387.124364 293.958934 
L 390.370909 294.804164 
L 393.617455 295.595859 
L 396.864 296.337479 
" clip-path="url(#pca306aa6e8)" style="fill: none; stroke: #9467bd; stroke-width: 2; stroke-linecap: square"/>
   </g>
   <g id="line2d_35">
    <path d="M 75.456 305.034938 
L 78.702545 304.846656 
L 81.949091 304.644667 
L 85.195636 304.427992 
L 88.442182 304.195583 
L 91.688727 303.946323 
L 94.935273 303.679014 
L 98.181818 303.392378 
L 101.428364 303.085048 
L 104.674909 302.755565 
L 107.921455 302.40237 
L 111.168 302.023797 
L 114.414545 301.618068 
L 117.661091 301.183288 
L 120.907636 300.717432 
L 124.154182 300.218341 
L 127.400727 299.683712 
L 130.647273 299.111092 
L 133.893818 298.497867 
L 137.140364 297.84125 
L 140.386909 297.138276 
L 143.633455 296.38579 
L 146.88 295.580434 
L 150.126545 294.718638 
L 153.373091 293.796609 
L 156.619636 292.81032 
L 159.866182 291.755496 
L 163.112727 290.627601 
L 166.359273 289.421833 
L 169.605818 288.133103 
L 172.852364 286.756032 
L 176.098909 285.284933 
L 179.345455 283.713806 
L 182.592 282.036327 
L 185.838545 280.245843 
L 189.085091 278.335362 
L 192.331636 276.29756 
L 195.578182 274.124774 
L 198.824727 271.809017 
L 202.071273 269.341987 
L 205.317818 266.715098 
L 208.564364 263.919508 
L 211.810909 260.946175 
L 215.057455 257.785933 
L 218.304 254.429587 
L 221.550545 250.86806 
L 224.797091 247.092584 
L 228.043636 243.094971 
L 231.290182 238.867995 
L 234.536727 234.405928 
L 237.783273 229.705331 
L 241.029818 224.766224 
L 244.276364 219.59391 
L 247.522909 214.201911 
L 250.769455 208.617022 
L 254.016 202.888681 
L 257.262545 197.108268 
L 260.509091 191.4554 
L 263.755636 186.338815 
L 267.002182 183.074223 
L 270.248727 188.517719 
L 273.495273 183.525644 
L 276.741818 187.505477 
L 279.988364 192.81693 
L 283.234909 198.526028 
L 286.481455 204.305663 
L 289.728 210.00513 
L 292.974545 215.546109 
L 296.221091 220.885982 
L 299.467636 226.001862 
L 302.714182 230.882608 
L 305.960727 235.524434 
L 309.207273 239.928308 
L 312.453818 244.098322 
L 315.700364 248.040633 
L 318.946909 251.762748 
L 322.193455 255.273027 
L 325.44 258.580335 
L 328.686545 261.693794 
L 331.933091 264.622603 
L 335.179636 267.375906 
L 338.426182 269.962702 
L 341.672727 272.391773 
L 344.919273 274.67164 
L 348.165818 276.810528 
L 351.412364 278.816346 
L 354.658909 280.696673 
L 357.905455 282.458753 
L 361.152 284.109493 
L 364.398545 285.655466 
L 367.645091 287.102916 
L 370.891636 288.457764 
L 374.138182 289.72562 
L 377.384727 290.911791 
L 380.631273 292.021295 
L 383.877818 293.058868 
L 387.124364 294.02898 
L 390.370909 294.935843 
L 393.617455 295.783427 
L 396.864 296.575469 
" clip-path="url(#pca306aa6e8)" style="fill: none; stroke: #8c564b; stroke-width: 2; stroke-linecap: square"/>
   </g>
   <g id="patch_103">
    <path d="M 57.6 307.584 
L 57.6 41.472 
" style="fill: none; stroke: #000000; stroke-width: 0.8; stroke-linejoin: miter; stroke-linecap: square"/>
   </g>
   <g id="patch_104">
    <path d="M 414.72 307.584 
L 414.72 41.472 
" style="fill: none; stroke: #000000; stroke-width: 0.8; stroke-linejoin: miter; stroke-linecap: square"/>
   </g>
   <g id="patch_105">
    <path d="M 57.6 307.584 
L 414.72 307.584 
" style="fill: none; stroke: #000000; stroke-width: 0.8; stroke-linejoin: miter; stroke-linecap: square"/>
   </g>
   <g id="patch_106">
    <path d="M 57.6 41.472 
L 414.72 41.472 
" style="fill: none; stroke: #000000; stroke-width: 0.8; stroke-linejoin: miter; stroke-linecap: square"/>
   </g>
   <g id="legend_1">
    <g id="patch_107">
     <path d="M 64.6 123.14075 
L 196.610938 123.14075 
Q 198.610938 123.14075 198.610938 121.14075 
L 198.610938 48.472 
Q 198.610938 46.472 196.610938 46.472 
L 64.6 46.472 
Q 62.6 46.472 62.6 48.472 
L 62.6 121.14075 
Q 62.6 123.14075 64.6 123.14075 
z
" style="fill: #ffffff; opacity: 0.8; stroke: #cccccc; stroke-linejoin: miter"/>
    </g>
    <g id="line2d_36">
     <path d="M 66.6 54.570437 
L 76.6 54.570437 
L 86.6 54.570437 
" style="fill: none; stroke: #ff7f0e; stroke-width: 2; stroke-linecap: square"/>
    </g>
    <g id="text_16">
     <!-- skewcauchy -->
     <g transform="translate(94.6 58.070437) scale(0.1 -0.1)">
      <defs>
       <path id="DejaVuSans-73" d="M 2834 3397 
L 2834 2853 
Q 2591 2978 2328 3040 
Q 2066 3103 1784 3103 
Q 1356 3103 1142 2972 
Q 928 2841 928 2578 
Q 928 2378 1081 2264 
Q 1234 2150 1697 2047 
L 1894 2003 
Q 2506 1872 2764 1633 
Q 3022 1394 3022 966 
Q 3022 478 2636 193 
Q 2250 -91 1575 -91 
Q 1294 -91 989 -36 
Q 684 19 347 128 
L 347 722 
Q 666 556 975 473 
Q 1284 391 1588 391 
Q 1994 391 2212 530 
Q 2431 669 2431 922 
Q 2431 1156 2273 1281 
Q 2116 1406 1581 1522 
L 1381 1569 
Q 847 1681 609 1914 
Q 372 2147 372 2553 
Q 372 3047 722 3315 
Q 1072 3584 1716 3584 
Q 2034 3584 2315 3537 
Q 2597 3491 2834 3397 
z
" transform="scale(0.015625)"/>
       <path id="DejaVuSans-6b" d="M 581 4863 
L 1159 4863 
L 1159 1991 
L 2875 3500 
L 3609 3500 
L 1753 1863 
L 3688 0 
L 2938 0 
L 1159 1709 
L 1159 0 
L 581 0 
L 581 4863 
z
" transform="scale(0.015625)"/>
       <path id="DejaVuSans-65" d="M 3597 1894 
L 3597 1613 
L 953 1613 
Q 991 1019 1311 708 
Q 1631 397 2203 397 
Q 2534 397 2845 478 
Q 3156 559 3463 722 
L 3463 178 
Q 3153 47 2828 -22 
Q 2503 -91 2169 -91 
Q 1331 -91 842 396 
Q 353 884 353 1716 
Q 353 2575 817 3079 
Q 1281 3584 2069 3584 
Q 2775 3584 3186 3129 
Q 3597 2675 3597 1894 
z
M 3022 2063 
Q 3016 2534 2758 2815 
Q 2500 3097 2075 3097 
Q 1594 3097 1305 2825 
Q 1016 2553 972 2059 
L 3022 2063 
z
" transform="scale(0.015625)"/>
       <path id="DejaVuSans-77" d="M 269 3500 
L 844 3500 
L 1563 769 
L 2278 3500 
L 2956 3500 
L 3675 769 
L 4391 3500 
L 4966 3500 
L 4050 0 
L 3372 0 
L 2619 2869 
L 1863 0 
L 1184 0 
L 269 3500 
z
" transform="scale(0.015625)"/>
       <path id="DejaVuSans-63" d="M 3122 3366 
L 3122 2828 
Q 2878 2963 2633 3030 
Q 2388 3097 2138 3097 
Q 1578 3097 1268 2742 
Q 959 2388 959 1747 
Q 959 1106 1268 751 
Q 1578 397 2138 397 
Q 2388 397 2633 464 
Q 2878 531 3122 666 
L 3122 134 
Q 2881 22 2623 -34 
Q 2366 -91 2075 -91 
Q 1284 -91 818 406 
Q 353 903 353 1747 
Q 353 2603 823 3093 
Q 1294 3584 2113 3584 
Q 2378 3584 2631 3529 
Q 2884 3475 3122 3366 
z
" transform="scale(0.015625)"/>
       <path id="DejaVuSans-61" d="M 2194 1759 
Q 1497 1759 1228 1600 
Q 959 1441 959 1056 
Q 959 750 1161 570 
Q 1363 391 1709 391 
Q 2188 391 2477 730 
Q 2766 1069 2766 1631 
L 2766 1759 
L 2194 1759 
z
M 3341 1997 
L 3341 0 
L 2766 0 
L 2766 531 
Q 2569 213 2275 61 
Q 1981 -91 1556 -91 
Q 1019 -91 701 211 
Q 384 513 384 1019 
Q 384 1609 779 1909 
Q 1175 2209 1959 2209 
L 2766 2209 
L 2766 2266 
Q 2766 2663 2505 2880 
Q 2244 3097 1772 3097 
Q 1472 3097 1187 3025 
Q 903 2953 641 2809 
L 641 3341 
Q 956 3463 1253 3523 
Q 1550 3584 1831 3584 
Q 2591 3584 2966 3190 
Q 3341 2797 3341 1997 
z
" transform="scale(0.015625)"/>
       <path id="DejaVuSans-75" d="M 544 1381 
L 544 3500 
L 1119 3500 
L 1119 1403 
Q 1119 906 1312 657 
Q 1506 409 1894 409 
Q 2359 409 2629 706 
Q 2900 1003 2900 1516 
L 2900 3500 
L 3475 3500 
L 3475 0 
L 2900 0 
L 2900 538 
Q 2691 219 2414 64 
Q 2138 -91 1772 -91 
Q 1169 -91 856 284 
Q 544 659 544 1381 
z
M 1991 3584 
L 1991 3584 
z
" transform="scale(0.015625)"/>
       <path id="DejaVuSans-68" d="M 3513 2113 
L 3513 0 
L 2938 0 
L 2938 2094 
Q 2938 2591 2744 2837 
Q 2550 3084 2163 3084 
Q 1697 3084 1428 2787 
Q 1159 2491 1159 1978 
L 1159 0 
L 581 0 
L 581 4863 
L 1159 4863 
L 1159 2956 
Q 1366 3272 1645 3428 
Q 1925 3584 2291 3584 
Q 2894 3584 3203 3211 
Q 3513 2838 3513 2113 
z
" transform="scale(0.015625)"/>
       <path id="DejaVuSans-79" d="M 2059 -325 
Q 1816 -950 1584 -1140 
Q 1353 -1331 966 -1331 
L 506 -1331 
L 506 -850 
L 844 -850 
Q 1081 -850 1212 -737 
Q 1344 -625 1503 -206 
L 1606 56 
L 191 3500 
L 800 3500 
L 1894 763 
L 2988 3500 
L 3597 3500 
L 2059 -325 
z
" transform="scale(0.015625)"/>
      </defs>
      <use xlink:href="#DejaVuSans-73"/>
      <use xlink:href="#DejaVuSans-6b" x="52.099609"/>
      <use xlink:href="#DejaVuSans-65" x="106.384766"/>
      <use xlink:href="#DejaVuSans-77" x="167.908203"/>
      <use xlink:href="#DejaVuSans-63" x="249.695312"/>
      <use xlink:href="#DejaVuSans-61" x="304.675781"/>
      <use xlink:href="#DejaVuSans-75" x="365.955078"/>
      <use xlink:href="#DejaVuSans-63" x="429.333984"/>
      <use xlink:href="#DejaVuSans-68" x="484.314453"/>
      <use xlink:href="#DejaVuSans-79" x="547.693359"/>
     </g>
    </g>
    <g id="line2d_37">
     <path d="M 66.6 69.248562 
L 76.6 69.248562 
L 86.6 69.248562 
" style="fill: none; stroke: #2ca02c; stroke-width: 2; stroke-linecap: square"/>
    </g>
    <g id="text_17">
     <!-- laplace_asymmetric -->
     <g transform="translate(94.6 72.748562) scale(0.1 -0.1)">
      <defs>
       <path id="DejaVuSans-6c" d="M 603 4863 
L 1178 4863 
L 1178 0 
L 603 0 
L 603 4863 
z
" transform="scale(0.015625)"/>
       <path id="DejaVuSans-70" d="M 1159 525 
L 1159 -1331 
L 581 -1331 
L 581 3500 
L 1159 3500 
L 1159 2969 
Q 1341 3281 1617 3432 
Q 1894 3584 2278 3584 
Q 2916 3584 3314 3078 
Q 3713 2572 3713 1747 
Q 3713 922 3314 415 
Q 2916 -91 2278 -91 
Q 1894 -91 1617 61 
Q 1341 213 1159 525 
z
M 3116 1747 
Q 3116 2381 2855 2742 
Q 2594 3103 2138 3103 
Q 1681 3103 1420 2742 
Q 1159 2381 1159 1747 
Q 1159 1113 1420 752 
Q 1681 391 2138 391 
Q 2594 391 2855 752 
Q 3116 1113 3116 1747 
z
" transform="scale(0.015625)"/>
       <path id="DejaVuSans-5f" d="M 3263 -1063 
L 3263 -1509 
L -63 -1509 
L -63 -1063 
L 3263 -1063 
z
" transform="scale(0.015625)"/>
       <path id="DejaVuSans-6d" d="M 3328 2828 
Q 3544 3216 3844 3400 
Q 4144 3584 4550 3584 
Q 5097 3584 5394 3201 
Q 5691 2819 5691 2113 
L 5691 0 
L 5113 0 
L 5113 2094 
Q 5113 2597 4934 2840 
Q 4756 3084 4391 3084 
Q 3944 3084 3684 2787 
Q 3425 2491 3425 1978 
L 3425 0 
L 2847 0 
L 2847 2094 
Q 2847 2600 2669 2842 
Q 2491 3084 2119 3084 
Q 1678 3084 1418 2786 
Q 1159 2488 1159 1978 
L 1159 0 
L 581 0 
L 581 3500 
L 1159 3500 
L 1159 2956 
Q 1356 3278 1631 3431 
Q 1906 3584 2284 3584 
Q 2666 3584 2933 3390 
Q 3200 3197 3328 2828 
z
" transform="scale(0.015625)"/>
       <path id="DejaVuSans-74" d="M 1172 4494 
L 1172 3500 
L 2356 3500 
L 2356 3053 
L 1172 3053 
L 1172 1153 
Q 1172 725 1289 603 
Q 1406 481 1766 481 
L 2356 481 
L 2356 0 
L 1766 0 
Q 1100 0 847 248 
Q 594 497 594 1153 
L 594 3053 
L 172 3053 
L 172 3500 
L 594 3500 
L 594 4494 
L 1172 4494 
z
" transform="scale(0.015625)"/>
       <path id="DejaVuSans-72" d="M 2631 2963 
Q 2534 3019 2420 3045 
Q 2306 3072 2169 3072 
Q 1681 3072 1420 2755 
Q 1159 2438 1159 1844 
L 1159 0 
L 581 0 
L 581 3500 
L 1159 3500 
L 1159 2956 
Q 1341 3275 1631 3429 
Q 1922 3584 2338 3584 
Q 2397 3584 2469 3576 
Q 2541 3569 2628 3553 
L 2631 2963 
z
" transform="scale(0.015625)"/>
       <path id="DejaVuSans-69" d="M 603 3500 
L 1178 3500 
L 1178 0 
L 603 0 
L 603 3500 
z
M 603 4863 
L 1178 4863 
L 1178 4134 
L 603 4134 
L 603 4863 
z
" transform="scale(0.015625)"/>
      </defs>
      <use xlink:href="#DejaVuSans-6c"/>
      <use xlink:href="#DejaVuSans-61" x="27.783203"/>
      <use xlink:href="#DejaVuSans-70" x="89.0625"/>
      <use xlink:href="#DejaVuSans-6c" x="152.539062"/>
      <use xlink:href="#DejaVuSans-61" x="180.322266"/>
      <use xlink:href="#DejaVuSans-63" x="241.601562"/>
      <use xlink:href="#DejaVuSans-65" x="296.582031"/>
      <use xlink:href="#DejaVuSans-5f" x="358.105469"/>
      <use xlink:href="#DejaVuSans-61" x="408.105469"/>
      <use xlink:href="#DejaVuSans-73" x="469.384766"/>
      <use xlink:href="#DejaVuSans-79" x="521.484375"/>
      <use xlink:href="#DejaVuSans-6d" x="580.664062"/>
      <use xlink:href="#DejaVuSans-6d" x="678.076172"/>
      <use xlink:href="#DejaVuSans-65" x="775.488281"/>
      <use xlink:href="#DejaVuSans-74" x="837.011719"/>
      <use xlink:href="#DejaVuSans-72" x="876.220703"/>
      <use xlink:href="#DejaVuSans-69" x="917.333984"/>
      <use xlink:href="#DejaVuSans-63" x="945.117188"/>
     </g>
    </g>
    <g id="line2d_38">
     <path d="M 66.6 84.204812 
L 76.6 84.204812 
L 86.6 84.204812 
" style="fill: none; stroke: #d62728; stroke-width: 2; stroke-linecap: square"/>
    </g>
    <g id="text_18">
     <!-- laplace -->
     <g transform="translate(94.6 87.704812) scale(0.1 -0.1)">
      <use xlink:href="#DejaVuSans-6c"/>
      <use xlink:href="#DejaVuSans-61" x="27.783203"/>
      <use xlink:href="#DejaVuSans-70" x="89.0625"/>
      <use xlink:href="#DejaVuSans-6c" x="152.539062"/>
      <use xlink:href="#DejaVuSans-61" x="180.322266"/>
      <use xlink:href="#DejaVuSans-63" x="241.601562"/>
      <use xlink:href="#DejaVuSans-65" x="296.582031"/>
     </g>
    </g>
    <g id="line2d_39">
     <path d="M 66.6 98.882937 
L 76.6 98.882937 
L 86.6 98.882937 
" style="fill: none; stroke: #9467bd; stroke-width: 2; stroke-linecap: square"/>
    </g>
    <g id="text_19">
     <!-- loglaplace -->
     <g transform="translate(94.6 102.382937) scale(0.1 -0.1)">
      <defs>
       <path id="DejaVuSans-6f" d="M 1959 3097 
Q 1497 3097 1228 2736 
Q 959 2375 959 1747 
Q 959 1119 1226 758 
Q 1494 397 1959 397 
Q 2419 397 2687 759 
Q 2956 1122 2956 1747 
Q 2956 2369 2687 2733 
Q 2419 3097 1959 3097 
z
M 1959 3584 
Q 2709 3584 3137 3096 
Q 3566 2609 3566 1747 
Q 3566 888 3137 398 
Q 2709 -91 1959 -91 
Q 1206 -91 779 398 
Q 353 888 353 1747 
Q 353 2609 779 3096 
Q 1206 3584 1959 3584 
z
" transform="scale(0.015625)"/>
       <path id="DejaVuSans-67" d="M 2906 1791 
Q 2906 2416 2648 2759 
Q 2391 3103 1925 3103 
Q 1463 3103 1205 2759 
Q 947 2416 947 1791 
Q 947 1169 1205 825 
Q 1463 481 1925 481 
Q 2391 481 2648 825 
Q 2906 1169 2906 1791 
z
M 3481 434 
Q 3481 -459 3084 -895 
Q 2688 -1331 1869 -1331 
Q 1566 -1331 1297 -1286 
Q 1028 -1241 775 -1147 
L 775 -588 
Q 1028 -725 1275 -790 
Q 1522 -856 1778 -856 
Q 2344 -856 2625 -561 
Q 2906 -266 2906 331 
L 2906 616 
Q 2728 306 2450 153 
Q 2172 0 1784 0 
Q 1141 0 747 490 
Q 353 981 353 1791 
Q 353 2603 747 3093 
Q 1141 3584 1784 3584 
Q 2172 3584 2450 3431 
Q 2728 3278 2906 2969 
L 2906 3500 
L 3481 3500 
L 3481 434 
z
" transform="scale(0.015625)"/>
      </defs>
      <use xlink:href="#DejaVuSans-6c"/>
      <use xlink:href="#DejaVuSans-6f" x="27.783203"/>
      <use xlink:href="#DejaVuSans-67" x="88.964844"/>
      <use xlink:href="#DejaVuSans-6c" x="152.441406"/>
      <use xlink:href="#DejaVuSans-61" x="180.224609"/>
      <use xlink:href="#DejaVuSans-70" x="241.503906"/>
      <use xlink:href="#DejaVuSans-6c" x="304.980469"/>
      <use xlink:href="#DejaVuSans-61" x="332.763672"/>
      <use xlink:href="#DejaVuSans-63" x="394.042969"/>
      <use xlink:href="#DejaVuSans-65" x="449.023438"/>
     </g>
    </g>
    <g id="line2d_40">
     <path d="M 66.6 113.561062 
L 76.6 113.561062 
L 86.6 113.561062 
" style="fill: none; stroke: #8c564b; stroke-width: 2; stroke-linecap: square"/>
    </g>
    <g id="text_20">
     <!-- dweibull -->
     <g transform="translate(94.6 117.061062) scale(0.1 -0.1)">
      <defs>
       <path id="DejaVuSans-64" d="M 2906 2969 
L 2906 4863 
L 3481 4863 
L 3481 0 
L 2906 0 
L 2906 525 
Q 2725 213 2448 61 
Q 2172 -91 1784 -91 
Q 1150 -91 751 415 
Q 353 922 353 1747 
Q 353 2572 751 3078 
Q 1150 3584 1784 3584 
Q 2172 3584 2448 3432 
Q 2725 3281 2906 2969 
z
M 947 1747 
Q 947 1113 1208 752 
Q 1469 391 1925 391 
Q 2381 391 2643 752 
Q 2906 1113 2906 1747 
Q 2906 2381 2643 2742 
Q 2381 3103 1925 3103 
Q 1469 3103 1208 2742 
Q 947 2381 947 1747 
z
" transform="scale(0.015625)"/>
       <path id="DejaVuSans-62" d="M 3116 1747 
Q 3116 2381 2855 2742 
Q 2594 3103 2138 3103 
Q 1681 3103 1420 2742 
Q 1159 2381 1159 1747 
Q 1159 1113 1420 752 
Q 1681 391 2138 391 
Q 2594 391 2855 752 
Q 3116 1113 3116 1747 
z
M 1159 2969 
Q 1341 3281 1617 3432 
Q 1894 3584 2278 3584 
Q 2916 3584 3314 3078 
Q 3713 2572 3713 1747 
Q 3713 922 3314 415 
Q 2916 -91 2278 -91 
Q 1894 -91 1617 61 
Q 1341 213 1159 525 
L 1159 0 
L 581 0 
L 581 4863 
L 1159 4863 
L 1159 2969 
z
" transform="scale(0.015625)"/>
      </defs>
      <use xlink:href="#DejaVuSans-64"/>
      <use xlink:href="#DejaVuSans-77" x="63.476562"/>
      <use xlink:href="#DejaVuSans-65" x="145.263672"/>
      <use xlink:href="#DejaVuSans-69" x="206.787109"/>
      <use xlink:href="#DejaVuSans-62" x="234.570312"/>
      <use xlink:href="#DejaVuSans-75" x="298.046875"/>
      <use xlink:href="#DejaVuSans-6c" x="361.425781"/>
      <use xlink:href="#DejaVuSans-6c" x="389.208984"/>
     </g>
    </g>
   </g>
  </g>
 </g>
 <defs>
  <clipPath id="pca306aa6e8">
   <rect x="57.6" y="41.472" width="357.12" height="266.112"/>
  </clipPath>
 </defs>
</svg>
