<?xml version="1.0" encoding="utf-8" standalone="no"?>
<!DOCTYPE svg PUBLIC "-//W3C//DTD SVG 1.1//EN"
  "http://www.w3.org/Graphics/SVG/1.1/DTD/svg11.dtd">
<svg xmlns:xlink="http://www.w3.org/1999/xlink" width="460.8pt" height="345.6pt" viewBox="0 0 460.8 345.6" xmlns="http://www.w3.org/2000/svg" version="1.1">
 <metadata>
  <rdf:RDF xmlns:dc="http://purl.org/dc/elements/1.1/" xmlns:cc="http://creativecommons.org/ns#" xmlns:rdf="http://www.w3.org/1999/02/22-rdf-syntax-ns#">
   <cc:Work>
    <dc:type rdf:resource="http://purl.org/dc/dcmitype/StillImage"/>
    <dc:date>2022-12-11T19:46:16.449002</dc:date>
    <dc:format>image/svg+xml</dc:format>
    <dc:creator>
     <cc:Agent>
      <dc:title>Matplotlib v3.6.2, https://matplotlib.org/</dc:title>
     </cc:Agent>
    </dc:creator>
   </cc:Work>
  </rdf:RDF>
 </metadata>
 <defs>
  <style type="text/css">*{stroke-linejoin: round; stroke-linecap: butt}</style>
 </defs>
 <g id="figure_1">
  <g id="patch_1">
   <path d="M 0 345.6 
L 460.8 345.6 
L 460.8 0 
L 0 0 
z
" style="fill: #ffffff"/>
  </g>
  <g id="axes_1">
   <g id="patch_2">
    <path d="M 57.6 307.584 
L 414.72 307.584 
L 414.72 41.472 
L 57.6 41.472 
z
" style="fill: #ffffff"/>
   </g>
   <g id="matplotlib.axis_1">
    <g id="xtick_1">
     <g id="line2d_1">
      <defs>
       <path id="m9fe40681bb" d="M 0 0 
L 0 3.5 
" style="stroke: #000000; stroke-width: 0.8"/>
      </defs>
      <g>
       <use xlink:href="#m9fe40681bb" x="73.832727" y="307.584" style="stroke: #000000; stroke-width: 0.8"/>
      </g>
     </g>
     <g id="text_1">
      <!-- 0 -->
      <g transform="translate(70.651477 322.182437) scale(0.1 -0.1)">
       <defs>
        <path id="DejaVuSans-30" d="M 2034 4250 
Q 1547 4250 1301 3770 
Q 1056 3291 1056 2328 
Q 1056 1369 1301 889 
Q 1547 409 2034 409 
Q 2525 409 2770 889 
Q 3016 1369 3016 2328 
Q 3016 3291 2770 3770 
Q 2525 4250 2034 4250 
z
M 2034 4750 
Q 2819 4750 3233 4129 
Q 3647 3509 3647 2328 
Q 3647 1150 3233 529 
Q 2819 -91 2034 -91 
Q 1250 -91 836 529 
Q 422 1150 422 2328 
Q 422 3509 836 4129 
Q 1250 4750 2034 4750 
z
" transform="scale(0.015625)"/>
       </defs>
       <use xlink:href="#DejaVuSans-30"/>
      </g>
     </g>
    </g>
    <g id="xtick_2">
     <g id="line2d_2">
      <g>
       <use xlink:href="#m9fe40681bb" x="130.312068" y="307.584" style="stroke: #000000; stroke-width: 0.8"/>
      </g>
     </g>
     <g id="text_2">
      <!-- 5000 -->
      <g transform="translate(117.587068 322.182437) scale(0.1 -0.1)">
       <defs>
        <path id="DejaVuSans-35" d="M 691 4666 
L 3169 4666 
L 3169 4134 
L 1269 4134 
L 1269 2991 
Q 1406 3038 1543 3061 
Q 1681 3084 1819 3084 
Q 2600 3084 3056 2656 
Q 3513 2228 3513 1497 
Q 3513 744 3044 326 
Q 2575 -91 1722 -91 
Q 1428 -91 1123 -41 
Q 819 9 494 109 
L 494 744 
Q 775 591 1075 516 
Q 1375 441 1709 441 
Q 2250 441 2565 725 
Q 2881 1009 2881 1497 
Q 2881 1984 2565 2268 
Q 2250 2553 1709 2553 
Q 1456 2553 1204 2497 
Q 953 2441 691 2322 
L 691 4666 
z
" transform="scale(0.015625)"/>
       </defs>
       <use xlink:href="#DejaVuSans-35"/>
       <use xlink:href="#DejaVuSans-30" x="63.623047"/>
       <use xlink:href="#DejaVuSans-30" x="127.246094"/>
       <use xlink:href="#DejaVuSans-30" x="190.869141"/>
      </g>
     </g>
    </g>
    <g id="xtick_3">
     <g id="line2d_3">
      <g>
       <use xlink:href="#m9fe40681bb" x="186.791408" y="307.584" style="stroke: #000000; stroke-width: 0.8"/>
      </g>
     </g>
     <g id="text_3">
      <!-- 10000 -->
      <g transform="translate(170.885158 322.182437) scale(0.1 -0.1)">
       <defs>
        <path id="DejaVuSans-31" d="M 794 531 
L 1825 531 
L 1825 4091 
L 703 3866 
L 703 4441 
L 1819 4666 
L 2450 4666 
L 2450 531 
L 3481 531 
L 3481 0 
L 794 0 
L 794 531 
z
" transform="scale(0.015625)"/>
       </defs>
       <use xlink:href="#DejaVuSans-31"/>
       <use xlink:href="#DejaVuSans-30" x="63.623047"/>
       <use xlink:href="#DejaVuSans-30" x="127.246094"/>
       <use xlink:href="#DejaVuSans-30" x="190.869141"/>
       <use xlink:href="#DejaVuSans-30" x="254.492188"/>
      </g>
     </g>
    </g>
    <g id="xtick_4">
     <g id="line2d_4">
      <g>
       <use xlink:href="#m9fe40681bb" x="243.270749" y="307.584" style="stroke: #000000; stroke-width: 0.8"/>
      </g>
     </g>
     <g id="text_4">
      <!-- 15000 -->
      <g transform="translate(227.364499 322.182437) scale(0.1 -0.1)">
       <use xlink:href="#DejaVuSans-31"/>
       <use xlink:href="#DejaVuSans-35" x="63.623047"/>
       <use xlink:href="#DejaVuSans-30" x="127.246094"/>
       <use xlink:href="#DejaVuSans-30" x="190.869141"/>
       <use xlink:href="#DejaVuSans-30" x="254.492188"/>
      </g>
     </g>
    </g>
    <g id="xtick_5">
     <g id="line2d_5">
      <g>
       <use xlink:href="#m9fe40681bb" x="299.75009" y="307.584" style="stroke: #000000; stroke-width: 0.8"/>
      </g>
     </g>
     <g id="text_5">
      <!-- 20000 -->
      <g transform="translate(283.84384 322.182437) scale(0.1 -0.1)">
       <defs>
        <path id="DejaVuSans-32" d="M 1228 531 
L 3431 531 
L 3431 0 
L 469 0 
L 469 531 
Q 828 903 1448 1529 
Q 2069 2156 2228 2338 
Q 2531 2678 2651 2914 
Q 2772 3150 2772 3378 
Q 2772 3750 2511 3984 
Q 2250 4219 1831 4219 
Q 1534 4219 1204 4116 
Q 875 4013 500 3803 
L 500 4441 
Q 881 4594 1212 4672 
Q 1544 4750 1819 4750 
Q 2544 4750 2975 4387 
Q 3406 4025 3406 3419 
Q 3406 3131 3298 2873 
Q 3191 2616 2906 2266 
Q 2828 2175 2409 1742 
Q 1991 1309 1228 531 
z
" transform="scale(0.015625)"/>
       </defs>
       <use xlink:href="#DejaVuSans-32"/>
       <use xlink:href="#DejaVuSans-30" x="63.623047"/>
       <use xlink:href="#DejaVuSans-30" x="127.246094"/>
       <use xlink:href="#DejaVuSans-30" x="190.869141"/>
       <use xlink:href="#DejaVuSans-30" x="254.492188"/>
      </g>
     </g>
    </g>
    <g id="xtick_6">
     <g id="line2d_6">
      <g>
       <use xlink:href="#m9fe40681bb" x="356.22943" y="307.584" style="stroke: #000000; stroke-width: 0.8"/>
      </g>
     </g>
     <g id="text_6">
      <!-- 25000 -->
      <g transform="translate(340.32318 322.182437) scale(0.1 -0.1)">
       <use xlink:href="#DejaVuSans-32"/>
       <use xlink:href="#DejaVuSans-35" x="63.623047"/>
       <use xlink:href="#DejaVuSans-30" x="127.246094"/>
       <use xlink:href="#DejaVuSans-30" x="190.869141"/>
       <use xlink:href="#DejaVuSans-30" x="254.492188"/>
      </g>
     </g>
    </g>
    <g id="xtick_7">
     <g id="line2d_7">
      <g>
       <use xlink:href="#m9fe40681bb" x="412.708771" y="307.584" style="stroke: #000000; stroke-width: 0.8"/>
      </g>
     </g>
     <g id="text_7">
      <!-- 30000 -->
      <g transform="translate(396.802521 322.182437) scale(0.1 -0.1)">
       <defs>
        <path id="DejaVuSans-33" d="M 2597 2516 
Q 3050 2419 3304 2112 
Q 3559 1806 3559 1356 
Q 3559 666 3084 287 
Q 2609 -91 1734 -91 
Q 1441 -91 1130 -33 
Q 819 25 488 141 
L 488 750 
Q 750 597 1062 519 
Q 1375 441 1716 441 
Q 2309 441 2620 675 
Q 2931 909 2931 1356 
Q 2931 1769 2642 2001 
Q 2353 2234 1838 2234 
L 1294 2234 
L 1294 2753 
L 1863 2753 
Q 2328 2753 2575 2939 
Q 2822 3125 2822 3475 
Q 2822 3834 2567 4026 
Q 2313 4219 1838 4219 
Q 1578 4219 1281 4162 
Q 984 4106 628 3988 
L 628 4550 
Q 988 4650 1302 4700 
Q 1616 4750 1894 4750 
Q 2613 4750 3031 4423 
Q 3450 4097 3450 3541 
Q 3450 3153 3228 2886 
Q 3006 2619 2597 2516 
z
" transform="scale(0.015625)"/>
       </defs>
       <use xlink:href="#DejaVuSans-33"/>
       <use xlink:href="#DejaVuSans-30" x="63.623047"/>
       <use xlink:href="#DejaVuSans-30" x="127.246094"/>
       <use xlink:href="#DejaVuSans-30" x="190.869141"/>
       <use xlink:href="#DejaVuSans-30" x="254.492188"/>
      </g>
     </g>
    </g>
    <g id="text_8">
     <!-- Tiempo (s) -->
     <g transform="translate(209.5975 335.860562) scale(0.1 -0.1)">
      <defs>
       <path id="DejaVuSans-54" d="M -19 4666 
L 3928 4666 
L 3928 4134 
L 2272 4134 
L 2272 0 
L 1638 0 
L 1638 4134 
L -19 4134 
L -19 4666 
z
" transform="scale(0.015625)"/>
       <path id="DejaVuSans-69" d="M 603 3500 
L 1178 3500 
L 1178 0 
L 603 0 
L 603 3500 
z
M 603 4863 
L 1178 4863 
L 1178 4134 
L 603 4134 
L 603 4863 
z
" transform="scale(0.015625)"/>
       <path id="DejaVuSans-65" d="M 3597 1894 
L 3597 1613 
L 953 1613 
Q 991 1019 1311 708 
Q 1631 397 2203 397 
Q 2534 397 2845 478 
Q 3156 559 3463 722 
L 3463 178 
Q 3153 47 2828 -22 
Q 2503 -91 2169 -91 
Q 1331 -91 842 396 
Q 353 884 353 1716 
Q 353 2575 817 3079 
Q 1281 3584 2069 3584 
Q 2775 3584 3186 3129 
Q 3597 2675 3597 1894 
z
M 3022 2063 
Q 3016 2534 2758 2815 
Q 2500 3097 2075 3097 
Q 1594 3097 1305 2825 
Q 1016 2553 972 2059 
L 3022 2063 
z
" transform="scale(0.015625)"/>
       <path id="DejaVuSans-6d" d="M 3328 2828 
Q 3544 3216 3844 3400 
Q 4144 3584 4550 3584 
Q 5097 3584 5394 3201 
Q 5691 2819 5691 2113 
L 5691 0 
L 5113 0 
L 5113 2094 
Q 5113 2597 4934 2840 
Q 4756 3084 4391 3084 
Q 3944 3084 3684 2787 
Q 3425 2491 3425 1978 
L 3425 0 
L 2847 0 
L 2847 2094 
Q 2847 2600 2669 2842 
Q 2491 3084 2119 3084 
Q 1678 3084 1418 2786 
Q 1159 2488 1159 1978 
L 1159 0 
L 581 0 
L 581 3500 
L 1159 3500 
L 1159 2956 
Q 1356 3278 1631 3431 
Q 1906 3584 2284 3584 
Q 2666 3584 2933 3390 
Q 3200 3197 3328 2828 
z
" transform="scale(0.015625)"/>
       <path id="DejaVuSans-70" d="M 1159 525 
L 1159 -1331 
L 581 -1331 
L 581 3500 
L 1159 3500 
L 1159 2969 
Q 1341 3281 1617 3432 
Q 1894 3584 2278 3584 
Q 2916 3584 3314 3078 
Q 3713 2572 3713 1747 
Q 3713 922 3314 415 
Q 2916 -91 2278 -91 
Q 1894 -91 1617 61 
Q 1341 213 1159 525 
z
M 3116 1747 
Q 3116 2381 2855 2742 
Q 2594 3103 2138 3103 
Q 1681 3103 1420 2742 
Q 1159 2381 1159 1747 
Q 1159 1113 1420 752 
Q 1681 391 2138 391 
Q 2594 391 2855 752 
Q 3116 1113 3116 1747 
z
" transform="scale(0.015625)"/>
       <path id="DejaVuSans-6f" d="M 1959 3097 
Q 1497 3097 1228 2736 
Q 959 2375 959 1747 
Q 959 1119 1226 758 
Q 1494 397 1959 397 
Q 2419 397 2687 759 
Q 2956 1122 2956 1747 
Q 2956 2369 2687 2733 
Q 2419 3097 1959 3097 
z
M 1959 3584 
Q 2709 3584 3137 3096 
Q 3566 2609 3566 1747 
Q 3566 888 3137 398 
Q 2709 -91 1959 -91 
Q 1206 -91 779 398 
Q 353 888 353 1747 
Q 353 2609 779 3096 
Q 1206 3584 1959 3584 
z
" transform="scale(0.015625)"/>
       <path id="DejaVuSans-20" transform="scale(0.015625)"/>
       <path id="DejaVuSans-28" d="M 1984 4856 
Q 1566 4138 1362 3434 
Q 1159 2731 1159 2009 
Q 1159 1288 1364 580 
Q 1569 -128 1984 -844 
L 1484 -844 
Q 1016 -109 783 600 
Q 550 1309 550 2009 
Q 550 2706 781 3412 
Q 1013 4119 1484 4856 
L 1984 4856 
z
" transform="scale(0.015625)"/>
       <path id="DejaVuSans-73" d="M 2834 3397 
L 2834 2853 
Q 2591 2978 2328 3040 
Q 2066 3103 1784 3103 
Q 1356 3103 1142 2972 
Q 928 2841 928 2578 
Q 928 2378 1081 2264 
Q 1234 2150 1697 2047 
L 1894 2003 
Q 2506 1872 2764 1633 
Q 3022 1394 3022 966 
Q 3022 478 2636 193 
Q 2250 -91 1575 -91 
Q 1294 -91 989 -36 
Q 684 19 347 128 
L 347 722 
Q 666 556 975 473 
Q 1284 391 1588 391 
Q 1994 391 2212 530 
Q 2431 669 2431 922 
Q 2431 1156 2273 1281 
Q 2116 1406 1581 1522 
L 1381 1569 
Q 847 1681 609 1914 
Q 372 2147 372 2553 
Q 372 3047 722 3315 
Q 1072 3584 1716 3584 
Q 2034 3584 2315 3537 
Q 2597 3491 2834 3397 
z
" transform="scale(0.015625)"/>
       <path id="DejaVuSans-29" d="M 513 4856 
L 1013 4856 
Q 1481 4119 1714 3412 
Q 1947 2706 1947 2009 
Q 1947 1309 1714 600 
Q 1481 -109 1013 -844 
L 513 -844 
Q 928 -128 1133 580 
Q 1338 1288 1338 2009 
Q 1338 2731 1133 3434 
Q 928 4138 513 4856 
z
" transform="scale(0.015625)"/>
      </defs>
      <use xlink:href="#DejaVuSans-54"/>
      <use xlink:href="#DejaVuSans-69" x="57.958984"/>
      <use xlink:href="#DejaVuSans-65" x="85.742188"/>
      <use xlink:href="#DejaVuSans-6d" x="147.265625"/>
      <use xlink:href="#DejaVuSans-70" x="244.677734"/>
      <use xlink:href="#DejaVuSans-6f" x="308.154297"/>
      <use xlink:href="#DejaVuSans-20" x="369.335938"/>
      <use xlink:href="#DejaVuSans-28" x="401.123047"/>
      <use xlink:href="#DejaVuSans-73" x="440.136719"/>
      <use xlink:href="#DejaVuSans-29" x="492.236328"/>
     </g>
    </g>
   </g>
   <g id="matplotlib.axis_2">
    <g id="ytick_1">
     <g id="line2d_8">
      <defs>
       <path id="m9d42026f56" d="M 0 0 
L -3.5 0 
" style="stroke: #000000; stroke-width: 0.8"/>
      </defs>
      <g>
       <use xlink:href="#m9d42026f56" x="57.6" y="295.488" style="stroke: #000000; stroke-width: 0.8"/>
      </g>
     </g>
     <g id="text_9">
      <!-- 0 -->
      <g transform="translate(44.2375 299.287219) scale(0.1 -0.1)">
       <use xlink:href="#DejaVuSans-30"/>
      </g>
     </g>
    </g>
    <g id="ytick_2">
     <g id="line2d_9">
      <g>
       <use xlink:href="#m9d42026f56" x="57.6" y="265.248" style="stroke: #000000; stroke-width: 0.8"/>
      </g>
     </g>
     <g id="text_10">
      <!-- 2 -->
      <g transform="translate(44.2375 269.047219) scale(0.1 -0.1)">
       <use xlink:href="#DejaVuSans-32"/>
      </g>
     </g>
    </g>
    <g id="ytick_3">
     <g id="line2d_10">
      <g>
       <use xlink:href="#m9d42026f56" x="57.6" y="235.008" style="stroke: #000000; stroke-width: 0.8"/>
      </g>
     </g>
     <g id="text_11">
      <!-- 4 -->
      <g transform="translate(44.2375 238.807219) scale(0.1 -0.1)">
       <defs>
        <path id="DejaVuSans-34" d="M 2419 4116 
L 825 1625 
L 2419 1625 
L 2419 4116 
z
M 2253 4666 
L 3047 4666 
L 3047 1625 
L 3713 1625 
L 3713 1100 
L 3047 1100 
L 3047 0 
L 2419 0 
L 2419 1100 
L 313 1100 
L 313 1709 
L 2253 4666 
z
" transform="scale(0.015625)"/>
       </defs>
       <use xlink:href="#DejaVuSans-34"/>
      </g>
     </g>
    </g>
    <g id="ytick_4">
     <g id="line2d_11">
      <g>
       <use xlink:href="#m9d42026f56" x="57.6" y="204.768" style="stroke: #000000; stroke-width: 0.8"/>
      </g>
     </g>
     <g id="text_12">
      <!-- 6 -->
      <g transform="translate(44.2375 208.567219) scale(0.1 -0.1)">
       <defs>
        <path id="DejaVuSans-36" d="M 2113 2584 
Q 1688 2584 1439 2293 
Q 1191 2003 1191 1497 
Q 1191 994 1439 701 
Q 1688 409 2113 409 
Q 2538 409 2786 701 
Q 3034 994 3034 1497 
Q 3034 2003 2786 2293 
Q 2538 2584 2113 2584 
z
M 3366 4563 
L 3366 3988 
Q 3128 4100 2886 4159 
Q 2644 4219 2406 4219 
Q 1781 4219 1451 3797 
Q 1122 3375 1075 2522 
Q 1259 2794 1537 2939 
Q 1816 3084 2150 3084 
Q 2853 3084 3261 2657 
Q 3669 2231 3669 1497 
Q 3669 778 3244 343 
Q 2819 -91 2113 -91 
Q 1303 -91 875 529 
Q 447 1150 447 2328 
Q 447 3434 972 4092 
Q 1497 4750 2381 4750 
Q 2619 4750 2861 4703 
Q 3103 4656 3366 4563 
z
" transform="scale(0.015625)"/>
       </defs>
       <use xlink:href="#DejaVuSans-36"/>
      </g>
     </g>
    </g>
    <g id="ytick_5">
     <g id="line2d_12">
      <g>
       <use xlink:href="#m9d42026f56" x="57.6" y="174.528" style="stroke: #000000; stroke-width: 0.8"/>
      </g>
     </g>
     <g id="text_13">
      <!-- 8 -->
      <g transform="translate(44.2375 178.327219) scale(0.1 -0.1)">
       <defs>
        <path id="DejaVuSans-38" d="M 2034 2216 
Q 1584 2216 1326 1975 
Q 1069 1734 1069 1313 
Q 1069 891 1326 650 
Q 1584 409 2034 409 
Q 2484 409 2743 651 
Q 3003 894 3003 1313 
Q 3003 1734 2745 1975 
Q 2488 2216 2034 2216 
z
M 1403 2484 
Q 997 2584 770 2862 
Q 544 3141 544 3541 
Q 544 4100 942 4425 
Q 1341 4750 2034 4750 
Q 2731 4750 3128 4425 
Q 3525 4100 3525 3541 
Q 3525 3141 3298 2862 
Q 3072 2584 2669 2484 
Q 3125 2378 3379 2068 
Q 3634 1759 3634 1313 
Q 3634 634 3220 271 
Q 2806 -91 2034 -91 
Q 1263 -91 848 271 
Q 434 634 434 1313 
Q 434 1759 690 2068 
Q 947 2378 1403 2484 
z
M 1172 3481 
Q 1172 3119 1398 2916 
Q 1625 2713 2034 2713 
Q 2441 2713 2670 2916 
Q 2900 3119 2900 3481 
Q 2900 3844 2670 4047 
Q 2441 4250 2034 4250 
Q 1625 4250 1398 4047 
Q 1172 3844 1172 3481 
z
" transform="scale(0.015625)"/>
       </defs>
       <use xlink:href="#DejaVuSans-38"/>
      </g>
     </g>
    </g>
    <g id="ytick_6">
     <g id="line2d_13">
      <g>
       <use xlink:href="#m9d42026f56" x="57.6" y="144.288" style="stroke: #000000; stroke-width: 0.8"/>
      </g>
     </g>
     <g id="text_14">
      <!-- 10 -->
      <g transform="translate(37.875 148.087219) scale(0.1 -0.1)">
       <use xlink:href="#DejaVuSans-31"/>
       <use xlink:href="#DejaVuSans-30" x="63.623047"/>
      </g>
     </g>
    </g>
    <g id="ytick_7">
     <g id="line2d_14">
      <g>
       <use xlink:href="#m9d42026f56" x="57.6" y="114.048" style="stroke: #000000; stroke-width: 0.8"/>
      </g>
     </g>
     <g id="text_15">
      <!-- 12 -->
      <g transform="translate(37.875 117.847219) scale(0.1 -0.1)">
       <use xlink:href="#DejaVuSans-31"/>
       <use xlink:href="#DejaVuSans-32" x="63.623047"/>
      </g>
     </g>
    </g>
    <g id="ytick_8">
     <g id="line2d_15">
      <g>
       <use xlink:href="#m9d42026f56" x="57.6" y="83.808" style="stroke: #000000; stroke-width: 0.8"/>
      </g>
     </g>
     <g id="text_16">
      <!-- 14 -->
      <g transform="translate(37.875 87.607219) scale(0.1 -0.1)">
       <use xlink:href="#DejaVuSans-31"/>
       <use xlink:href="#DejaVuSans-34" x="63.623047"/>
      </g>
     </g>
    </g>
    <g id="ytick_9">
     <g id="line2d_16">
      <g>
       <use xlink:href="#m9d42026f56" x="57.6" y="53.568" style="stroke: #000000; stroke-width: 0.8"/>
      </g>
     </g>
     <g id="text_17">
      <!-- 16 -->
      <g transform="translate(37.875 57.367219) scale(0.1 -0.1)">
       <use xlink:href="#DejaVuSans-31"/>
       <use xlink:href="#DejaVuSans-36" x="63.623047"/>
      </g>
     </g>
    </g>
    <g id="text_18">
     <!-- Clientes en cola -->
     <g transform="translate(31.795312 214.369406) rotate(-90) scale(0.1 -0.1)">
      <defs>
       <path id="DejaVuSans-43" d="M 4122 4306 
L 4122 3641 
Q 3803 3938 3442 4084 
Q 3081 4231 2675 4231 
Q 1875 4231 1450 3742 
Q 1025 3253 1025 2328 
Q 1025 1406 1450 917 
Q 1875 428 2675 428 
Q 3081 428 3442 575 
Q 3803 722 4122 1019 
L 4122 359 
Q 3791 134 3420 21 
Q 3050 -91 2638 -91 
Q 1578 -91 968 557 
Q 359 1206 359 2328 
Q 359 3453 968 4101 
Q 1578 4750 2638 4750 
Q 3056 4750 3426 4639 
Q 3797 4528 4122 4306 
z
" transform="scale(0.015625)"/>
       <path id="DejaVuSans-6c" d="M 603 4863 
L 1178 4863 
L 1178 0 
L 603 0 
L 603 4863 
z
" transform="scale(0.015625)"/>
       <path id="DejaVuSans-6e" d="M 3513 2113 
L 3513 0 
L 2938 0 
L 2938 2094 
Q 2938 2591 2744 2837 
Q 2550 3084 2163 3084 
Q 1697 3084 1428 2787 
Q 1159 2491 1159 1978 
L 1159 0 
L 581 0 
L 581 3500 
L 1159 3500 
L 1159 2956 
Q 1366 3272 1645 3428 
Q 1925 3584 2291 3584 
Q 2894 3584 3203 3211 
Q 3513 2838 3513 2113 
z
" transform="scale(0.015625)"/>
       <path id="DejaVuSans-74" d="M 1172 4494 
L 1172 3500 
L 2356 3500 
L 2356 3053 
L 1172 3053 
L 1172 1153 
Q 1172 725 1289 603 
Q 1406 481 1766 481 
L 2356 481 
L 2356 0 
L 1766 0 
Q 1100 0 847 248 
Q 594 497 594 1153 
L 594 3053 
L 172 3053 
L 172 3500 
L 594 3500 
L 594 4494 
L 1172 4494 
z
" transform="scale(0.015625)"/>
       <path id="DejaVuSans-63" d="M 3122 3366 
L 3122 2828 
Q 2878 2963 2633 3030 
Q 2388 3097 2138 3097 
Q 1578 3097 1268 2742 
Q 959 2388 959 1747 
Q 959 1106 1268 751 
Q 1578 397 2138 397 
Q 2388 397 2633 464 
Q 2878 531 3122 666 
L 3122 134 
Q 2881 22 2623 -34 
Q 2366 -91 2075 -91 
Q 1284 -91 818 406 
Q 353 903 353 1747 
Q 353 2603 823 3093 
Q 1294 3584 2113 3584 
Q 2378 3584 2631 3529 
Q 2884 3475 3122 3366 
z
" transform="scale(0.015625)"/>
       <path id="DejaVuSans-61" d="M 2194 1759 
Q 1497 1759 1228 1600 
Q 959 1441 959 1056 
Q 959 750 1161 570 
Q 1363 391 1709 391 
Q 2188 391 2477 730 
Q 2766 1069 2766 1631 
L 2766 1759 
L 2194 1759 
z
M 3341 1997 
L 3341 0 
L 2766 0 
L 2766 531 
Q 2569 213 2275 61 
Q 1981 -91 1556 -91 
Q 1019 -91 701 211 
Q 384 513 384 1019 
Q 384 1609 779 1909 
Q 1175 2209 1959 2209 
L 2766 2209 
L 2766 2266 
Q 2766 2663 2505 2880 
Q 2244 3097 1772 3097 
Q 1472 3097 1187 3025 
Q 903 2953 641 2809 
L 641 3341 
Q 956 3463 1253 3523 
Q 1550 3584 1831 3584 
Q 2591 3584 2966 3190 
Q 3341 2797 3341 1997 
z
" transform="scale(0.015625)"/>
      </defs>
      <use xlink:href="#DejaVuSans-43"/>
      <use xlink:href="#DejaVuSans-6c" x="69.824219"/>
      <use xlink:href="#DejaVuSans-69" x="97.607422"/>
      <use xlink:href="#DejaVuSans-65" x="125.390625"/>
      <use xlink:href="#DejaVuSans-6e" x="186.914062"/>
      <use xlink:href="#DejaVuSans-74" x="250.292969"/>
      <use xlink:href="#DejaVuSans-65" x="289.501953"/>
      <use xlink:href="#DejaVuSans-73" x="351.025391"/>
      <use xlink:href="#DejaVuSans-20" x="403.125"/>
      <use xlink:href="#DejaVuSans-65" x="434.912109"/>
      <use xlink:href="#DejaVuSans-6e" x="496.435547"/>
      <use xlink:href="#DejaVuSans-20" x="559.814453"/>
      <use xlink:href="#DejaVuSans-63" x="591.601562"/>
      <use xlink:href="#DejaVuSans-6f" x="646.582031"/>
      <use xlink:href="#DejaVuSans-6c" x="707.763672"/>
      <use xlink:href="#DejaVuSans-61" x="735.546875"/>
     </g>
    </g>
   </g>
   <g id="line2d_17">
    <path d="M 73.832727 295.488 
L 73.900502 295.488 
L 73.945686 265.248 
L 74.013461 280.368 
L 74.036053 280.368 
L 74.092532 295.488 
L 74.137716 280.368 
L 74.273266 280.368 
L 74.397521 250.128 
L 74.58955 250.128 
L 74.702509 235.008 
L 74.792876 235.008 
L 74.905835 250.128 
L 74.996202 250.128 
L 75.10916 265.248 
L 75.154344 265.248 
L 75.267303 280.368 
L 75.335078 280.368 
L 75.448036 295.488 
L 75.606179 295.488 
L 75.730433 265.248 
L 75.809504 265.248 
L 75.933759 295.488 
L 76.001534 295.488 
L 76.114493 280.368 
L 76.34041 280.368 
L 76.453369 265.248 
L 76.498552 265.248 
L 76.611511 235.008 
L 76.72447 250.128 
L 76.735765 250.128 
L 76.848724 265.248 
L 77.097233 265.248 
L 77.108529 250.128 
L 77.198896 265.248 
L 77.266671 265.248 
L 77.37963 280.368 
L 77.390926 280.368 
L 77.481293 295.488 
L 77.492589 280.368 
L 77.51518 280.368 
L 77.560364 295.488 
L 77.616843 280.368 
L 77.741098 280.368 
L 77.854056 295.488 
L 78.181636 295.488 
L 78.305891 265.248 
L 78.441441 265.248 
L 78.509217 250.128 
L 78.543104 265.248 
L 78.5544 265.248 
L 78.667359 250.128 
L 78.88198 250.128 
L 79.006235 280.368 
L 79.096602 280.368 
L 79.20956 295.488 
L 79.796946 295.488 
L 79.909904 280.368 
L 80.011567 280.368 
L 80.090638 295.488 
L 80.11323 280.368 
L 80.135822 280.368 
L 80.203597 295.488 
L 80.237484 280.368 
L 80.361739 280.368 
L 80.474698 265.248 
L 80.531177 265.248 
L 80.644136 280.368 
L 80.678023 280.368 
L 80.790982 265.248 
L 80.813574 265.248 
L 80.926532 280.368 
L 80.96042 280.368 
L 81.016899 265.248 
L 81.062083 280.368 
L 81.084675 280.368 
L 81.197633 295.488 
L 81.254113 295.488 
L 81.355775 280.368 
L 81.468734 295.488 
L 81.581693 280.368 
L 81.977048 280.368 
L 82.101303 250.128 
L 82.236853 250.128 
L 82.349812 265.248 
L 82.361108 265.248 
L 82.406291 250.128 
L 82.462771 265.248 
L 82.507954 265.248 
L 82.620913 280.368 
L 82.993676 280.368 
L 83.106635 295.488 
L 83.524582 295.488 
L 83.637541 280.368 
L 83.69402 280.368 
L 83.806979 295.488 
L 84.224926 295.488 
L 84.270109 265.248 
L 84.337885 280.368 
L 84.54121 280.368 
L 84.552506 295.488 
L 84.642873 280.368 
L 84.654169 280.368 
L 84.710648 265.248 
L 84.744536 295.488 
L 85.456176 295.488 
L 85.478767 280.368 
L 85.557838 295.488 
L 85.817643 295.488 
L 85.930602 280.368 
L 86.088744 280.368 
L 86.111336 265.248 
L 86.190407 280.368 
L 86.201703 280.368 
L 86.314662 295.488 
L 86.94723 295.488 
L 87.060189 280.368 
L 87.161852 280.368 
L 87.27481 295.488 
L 88.065521 295.488 
L 88.076817 280.368 
L 88.167184 295.488 
L 88.528652 295.488 
L 88.619019 280.368 
L 88.630315 295.488 
L 88.743273 295.488 
L 88.856232 280.368 
L 88.901415 280.368 
L 88.935303 295.488 
L 89.003078 280.368 
L 89.172516 280.368 
L 89.296771 250.128 
L 89.35325 250.128 
L 89.466209 265.248 
L 89.4888 265.248 
L 89.613055 295.488 
L 89.68083 295.488 
L 89.793789 280.368 
L 89.827677 280.368 
L 89.940635 295.488 
L 89.997115 295.488 
L 90.00841 280.368 
L 90.098777 295.488 
L 90.234328 295.488 
L 90.347286 280.368 
L 90.369878 280.368 
L 90.448949 250.128 
L 90.471541 265.248 
L 90.5845 280.368 
L 90.697458 280.368 
L 90.810417 295.488 
L 90.878192 295.488 
L 91.002447 265.248 
L 91.465577 265.248 
L 91.578536 280.368 
L 91.714086 280.368 
L 91.827045 295.488 
L 92.222401 295.488 
L 92.290176 280.368 
L 92.324063 295.488 
L 92.369247 295.488 
L 92.391839 280.368 
L 92.47091 295.488 
L 93.024407 295.488 
L 93.148662 265.248 
L 93.702159 265.248 
L 93.815118 280.368 
L 94.018444 280.368 
L 94.131402 295.488 
L 94.187882 295.488 
L 94.210473 280.368 
L 94.289544 295.488 
L 94.504166 295.488 
L 94.617125 280.368 
L 94.651012 280.368 
L 94.786563 235.008 
L 94.797858 235.008 
L 94.910817 219.888 
L 95.001184 219.888 
L 95.114143 235.008 
L 95.170622 235.008 
L 95.283581 250.128 
L 95.430427 250.128 
L 95.543386 235.008 
L 95.599865 235.008 
L 95.712824 250.128 
L 95.904854 250.128 
L 96.017812 265.248 
L 96.040404 265.248 
L 96.108179 250.128 
L 96.142067 265.248 
L 96.153363 265.248 
L 96.266321 250.128 
L 96.311505 250.128 
L 96.447055 295.488 
L 96.752044 295.488 
L 96.876298 265.248 
L 96.887594 265.248 
L 97.000553 250.128 
L 97.023145 250.128 
L 97.136103 265.248 
L 97.452387 265.248 
L 97.542754 250.128 
L 97.55405 265.248 
L 97.565346 265.248 
L 97.678305 280.368 
L 97.926814 280.368 
L 98.039773 295.488 
L 98.084956 295.488 
L 98.186619 280.368 
L 98.299578 295.488 
L 98.423832 295.488 
L 98.536791 280.368 
L 98.548087 280.368 
L 98.638454 265.248 
L 98.64975 280.368 
L 98.706229 280.368 
L 98.819188 295.488 
L 98.909554 295.488 
L 99.022513 280.368 
L 99.169359 280.368 
L 99.282318 295.488 
L 99.44046 295.488 
L 99.587307 235.008 
L 99.892295 235.008 
L 100.005254 219.888 
L 100.027845 219.888 
L 100.095621 235.008 
L 100.129508 219.888 
L 100.208579 219.888 
L 100.321538 235.008 
L 100.592639 235.008 
L 100.615231 219.888 
L 100.694302 235.008 
L 100.750781 235.008 
L 100.86374 219.888 
L 101.010586 219.888 
L 101.078361 204.768 
L 101.112249 219.888 
L 101.202616 219.888 
L 101.315574 235.008 
L 101.439829 235.008 
L 101.552788 219.888 
L 101.643155 219.888 
L 101.756113 204.768 
L 101.835184 204.768 
L 101.948143 219.888 
L 102.004622 219.888 
L 102.027214 204.768 
L 102.106285 219.888 
L 102.17406 219.888 
L 102.298315 189.648 
L 102.377386 189.648 
L 102.456457 174.528 
L 102.479049 189.648 
L 102.501641 189.648 
L 102.614599 204.768 
L 102.727558 189.648 
L 103.02125 189.648 
L 103.145505 159.408 
L 103.156801 159.408 
L 103.26976 174.528 
L 103.281055 174.528 
L 103.394014 159.408 
L 103.484381 159.408 
L 103.59734 144.288 
L 103.642523 144.288 
L 103.778074 189.648 
L 103.811961 189.648 
L 103.92492 174.528 
L 103.970103 174.528 
L 104.003991 189.648 
L 104.071766 174.528 
L 104.105654 174.528 
L 104.218612 189.648 
L 104.399346 189.648 
L 104.523601 219.888 
L 104.58008 219.888 
L 104.693039 235.008 
L 104.760814 235.008 
L 104.873773 250.128 
L 105.043211 250.128 
L 105.15617 265.248 
L 105.336903 265.248 
L 105.461158 235.008 
L 105.675779 235.008 
L 105.800034 265.248 
L 105.833922 265.248 
L 105.958176 295.488 
L 105.969472 295.488 
L 106.082431 280.368 
L 106.511674 280.368 
L 106.635928 250.128 
L 106.669816 250.128 
L 106.748887 265.248 
L 106.771479 250.128 
L 106.827958 250.128 
L 106.940917 265.248 
L 106.997396 265.248 
L 107.121651 295.488 
L 107.855882 295.488 
L 107.934953 280.368 
L 107.957545 295.488 
L 108.601409 295.488 
L 108.703072 280.368 
L 108.759551 295.488 
L 108.804735 280.368 
L 109.380824 280.368 
L 109.493783 295.488 
L 109.629333 295.488 
L 109.7197 280.368 
L 109.730996 295.488 
L 109.77618 295.488 
L 109.832659 280.368 
L 109.877842 295.488 
L 109.923026 295.488 
L 109.934322 280.368 
L 110.024689 295.488 
L 110.228014 295.488 
L 110.23931 280.368 
L 110.329677 295.488 
L 110.408748 295.488 
L 110.521707 280.368 
L 110.544299 280.368 
L 110.657257 295.488 
L 110.679849 295.488 
L 110.792808 280.368 
L 110.804104 280.368 
L 110.917062 295.488 
L 111.007429 295.488 
L 111.120388 280.368 
L 111.199459 280.368 
L 111.289826 295.488 
L 111.301122 280.368 
L 111.380193 280.368 
L 111.47056 295.488 
L 111.481856 280.368 
L 111.696477 280.368 
L 111.809436 295.488 
L 112.882543 295.488 
L 113.006798 265.248 
L 113.085869 265.248 
L 113.108461 280.368 
L 113.187532 265.248 
L 113.266603 265.248 
L 113.379562 250.128 
L 113.503816 280.368 
L 113.955651 280.368 
L 114.068609 295.488 
L 115.062646 295.488 
L 115.1869 265.248 
L 115.209492 265.248 
L 115.333747 295.488 
L 115.367634 295.488 
L 115.503185 250.128 
L 115.661327 250.128 
L 115.774286 265.248 
L 115.887244 265.248 
L 116.000203 250.128 
L 116.147049 250.128 
L 116.169641 280.368 
L 116.248712 250.128 
L 116.327783 235.008 
L 116.350375 250.128 
L 116.440742 250.128 
L 116.564996 280.368 
L 116.869985 280.368 
L 116.960352 265.248 
L 116.971648 280.368 
L 117.231453 280.368 
L 117.355707 250.128 
L 117.389595 250.128 
L 117.502553 265.248 
L 117.864021 265.248 
L 117.886613 280.368 
L 117.965684 265.248 
L 118.123826 265.248 
L 118.180305 280.368 
L 118.225489 265.248 
L 118.248081 265.248 
L 118.361039 250.128 
L 118.451406 250.128 
L 118.564365 235.008 
L 118.586957 235.008 
L 118.609548 250.128 
L 118.68862 235.008 
L 119.004904 235.008 
L 119.129158 204.768 
L 119.637472 204.768 
L 119.739135 219.888 
L 119.852094 204.768 
L 119.897277 204.768 
L 119.942461 219.888 
L 119.99894 204.768 
L 120.032828 204.768 
L 120.19097 280.368 
L 120.32652 280.368 
L 120.394296 295.488 
L 120.428183 280.368 
L 120.507254 280.368 
L 120.620213 295.488 
L 120.880018 295.488 
L 120.992977 280.368 
L 121.105935 295.488 
L 121.275373 295.488 
L 121.36574 280.368 
L 121.377036 295.488 
L 121.478699 295.488 
L 121.569066 250.128 
L 121.602954 265.248 
L 121.659433 265.248 
L 121.727208 280.368 
L 121.761096 265.248 
L 121.919238 265.248 
L 122.043492 295.488 
L 122.099972 295.488 
L 122.224226 265.248 
L 122.292001 265.248 
L 122.40496 280.368 
L 122.517919 280.368 
L 122.630878 295.488 
L 122.834203 295.488 
L 122.856795 280.368 
L 122.935866 295.488 
L 123.003641 295.488 
L 123.1166 280.368 
L 123.342517 280.368 
L 123.455476 265.248 
L 123.523251 265.248 
L 123.63621 280.368 
L 123.805648 280.368 
L 123.918606 265.248 
L 123.986382 265.248 
L 124.088045 235.008 
L 124.09934 250.128 
L 124.110636 250.128 
L 124.223595 219.888 
L 124.336554 235.008 
L 124.799684 235.008 
L 124.912643 219.888 
L 125.014306 219.888 
L 125.104673 204.768 
L 125.115969 219.888 
L 125.127264 219.888 
L 125.240223 204.768 
L 125.488732 204.768 
L 125.601691 189.648 
L 125.725945 189.648 
L 125.838904 204.768 
L 125.861496 204.768 
L 125.974454 189.648 
L 126.030934 189.648 
L 126.143893 174.528 
L 126.155188 174.528 
L 126.290739 129.168 
L 126.686094 129.168 
L 126.799053 114.048 
L 126.923307 114.048 
L 127.047562 144.288 
L 127.454213 144.288 
L 127.567172 159.408 
L 127.578468 159.408 
L 127.691426 174.528 
L 127.838273 174.528 
L 127.951231 189.648 
L 128.120669 189.648 
L 128.244924 219.888 
L 128.39177 219.888 
L 128.504729 204.768 
L 128.572504 204.768 
L 128.685463 219.888 
L 128.933972 219.888 
L 129.046931 189.648 
L 129.159889 204.768 
L 129.193777 204.768 
L 129.306736 189.648 
L 129.476174 189.648 
L 129.566541 204.768 
L 129.577836 189.648 
L 129.679499 189.648 
L 129.781162 204.768 
L 129.894121 189.648 
L 129.928008 189.648 
L 130.040967 174.528 
L 130.052263 174.528 
L 130.165222 189.648 
L 130.187813 174.528 
L 130.221701 204.768 
L 130.255589 204.768 
L 130.481506 204.768 
L 130.594465 189.648 
L 130.673536 189.648 
L 130.79779 159.408 
L 130.978524 159.408 
L 131.080187 189.648 
L 131.091483 174.528 
L 131.215737 174.528 
L 131.272217 159.408 
L 131.3174 174.528 
L 131.464246 174.528 
L 131.577205 189.648 
L 132.209774 189.648 
L 132.266253 174.528 
L 132.311436 189.648 
L 132.401803 189.648 
L 132.526058 219.888 
L 132.887526 219.888 
L 132.932709 235.008 
L 132.989189 219.888 
L 133.407136 219.888 
L 133.520094 204.768 
L 133.802491 204.768 
L 133.91545 219.888 
L 134.028408 219.888 
L 134.152663 250.128 
L 134.423764 250.128 
L 134.536723 265.248 
L 134.593202 265.248 
L 134.717456 295.488 
L 135.496871 295.488 
L 135.621126 265.248 
L 135.643718 265.248 
L 135.756676 250.128 
L 135.93741 250.128 
L 136.050369 265.248 
L 136.197215 265.248 
L 136.310174 280.368 
L 136.344061 280.368 
L 136.423132 295.488 
L 136.434428 280.368 
L 136.558683 250.128 
L 136.581275 250.128 
L 136.603866 235.008 
L 136.682937 250.128 
L 136.829784 250.128 
L 136.942742 235.008 
L 137.179956 235.008 
L 137.292914 219.888 
L 137.315506 219.888 
L 137.439761 250.128 
L 137.722157 250.128 
L 137.835116 235.008 
L 138.038442 235.008 
L 138.185288 174.528 
L 138.241767 174.528 
L 138.354726 159.408 
L 138.366022 159.408 
L 138.47898 174.528 
L 138.512868 174.528 
L 138.637123 204.768 
L 138.783969 204.768 
L 138.829152 189.648 
L 138.885632 204.768 
L 138.964703 204.768 
L 139.066366 189.648 
L 139.168028 204.768 
L 139.280987 189.648 
L 139.360058 189.648 
L 139.371354 204.768 
L 139.461721 189.648 
L 139.506904 189.648 
L 139.642455 235.008 
L 139.676343 235.008 
L 139.71023 219.888 
L 139.778005 235.008 
L 139.834485 235.008 
L 139.913556 219.888 
L 139.936147 235.008 
L 140.03781 235.008 
L 140.105585 250.128 
L 140.139473 235.008 
L 140.523533 235.008 
L 140.636491 250.128 
L 140.670379 250.128 
L 140.794633 219.888 
L 140.817225 219.888 
L 140.930184 204.768 
L 140.952776 204.768 
L 141.065734 219.888 
L 141.133509 219.888 
L 141.257764 189.648 
L 141.40461 189.648 
L 141.46109 204.768 
L 141.506273 189.648 
L 141.517569 189.648 
L 141.630528 174.528 
L 141.698303 174.528 
L 141.811262 189.648 
L 141.92422 174.528 
L 142.003291 174.528 
L 142.082362 189.648 
L 142.104954 174.528 
L 142.150138 174.528 
L 142.263096 159.408 
L 142.274392 159.408 
L 142.387351 174.528 
L 142.398647 174.528 
L 142.511605 189.648 
L 142.601972 189.648 
L 142.714931 204.768 
L 142.918257 204.768 
L 143.031215 189.648 
L 143.223245 189.648 
L 143.336204 204.768 
L 143.652488 204.768 
L 143.765447 219.888 
L 143.86711 219.888 
L 143.980068 204.768 
L 144.217281 204.768 
L 144.318944 219.888 
L 144.352832 204.768 
L 144.420607 219.888 
L 144.590045 219.888 
L 144.703004 235.008 
L 144.872442 235.008 
L 144.996696 265.248 
L 145.030584 265.248 
L 145.109655 250.128 
L 145.132247 265.248 
L 145.256501 295.488 
L 145.267797 295.488 
L 145.380756 280.368 
L 145.437235 280.368 
L 145.550194 295.488 
L 146.40868 295.488 
L 146.510343 250.128 
L 146.532934 265.248 
L 146.860515 265.248 
L 146.973473 250.128 
L 147.233278 250.128 
L 147.312349 235.008 
L 147.334941 250.128 
L 147.549563 250.128 
L 147.572154 235.008 
L 147.651225 250.128 
L 147.685113 250.128 
L 147.798072 265.248 
L 147.956214 265.248 
L 147.978806 280.368 
L 148.046581 265.248 
L 148.159539 250.128 
L 148.193427 250.128 
L 148.216019 235.008 
L 148.29509 250.128 
L 148.351569 250.128 
L 148.419344 265.248 
L 148.453232 250.128 
L 148.792108 250.128 
L 148.905067 265.248 
L 149.00673 265.248 
L 149.119688 250.128 
L 149.198759 250.128 
L 149.311718 235.008 
L 149.447268 235.008 
L 149.560227 219.888 
L 149.66189 219.888 
L 149.763553 235.008 
L 149.876511 219.888 
L 149.921695 219.888 
L 150.045949 250.128 
L 150.079837 250.128 
L 150.192796 235.008 
L 150.271867 235.008 
L 150.384825 250.128 
L 150.50908 250.128 
L 150.622039 235.008 
L 150.633335 235.008 
L 150.746293 219.888 
L 150.802773 219.888 
L 150.927027 250.128 
L 151.16424 250.128 
L 151.288495 280.368 
L 151.344974 280.368 
L 151.457933 295.488 
L 151.480525 295.488 
L 151.604779 265.248 
L 151.729034 295.488 
L 152.542336 295.488 
L 152.610111 280.368 
L 152.643999 295.488 
L 153.197497 295.488 
L 153.321751 265.248 
L 153.400822 265.248 
L 153.525077 295.488 
L 153.750994 295.488 
L 153.875249 265.248 
L 153.886545 265.248 
L 154.010799 295.488 
L 154.123758 295.488 
L 154.135054 280.368 
L 154.225421 295.488 
L 154.496521 295.488 
L 154.60948 280.368 
L 154.620776 280.368 
L 154.699847 295.488 
L 154.722439 280.368 
L 154.812806 280.368 
L 154.925764 265.248 
L 154.948356 265.248 
L 155.061315 280.368 
L 155.151682 280.368 
L 155.196865 295.488 
L 155.253345 280.368 
L 155.309824 280.368 
L 155.400191 265.248 
L 155.411487 280.368 
L 155.434079 280.368 
L 155.547037 295.488 
L 155.659996 280.368 
L 155.806842 280.368 
L 155.919801 295.488 
L 156.055351 295.488 
L 156.111831 280.368 
L 156.157014 295.488 
L 156.16831 295.488 
L 156.281269 280.368 
L 156.484594 280.368 
L 156.597553 265.248 
L 156.631441 265.248 
L 156.744399 280.368 
L 157.060684 280.368 
L 157.117163 265.248 
L 157.162346 280.368 
L 157.320489 280.368 
L 157.433447 265.248 
L 157.456039 265.248 
L 157.568998 280.368 
L 157.67066 280.368 
L 157.783619 295.488 
L 158.483963 295.488 
L 158.596922 280.368 
L 158.777655 280.368 
L 158.890614 295.488 
L 159.195603 295.488 
L 159.308561 280.368 
L 159.42152 295.488 
L 159.500591 295.488 
L 159.511887 280.368 
L 159.602254 295.488 
L 159.737804 295.488 
L 159.816875 280.368 
L 159.839467 295.488 
L 159.895946 295.488 
L 160.020201 265.248 
L 160.07668 265.248 
L 160.110568 280.368 
L 160.178343 265.248 
L 160.426852 265.248 
L 160.539811 280.368 
L 160.59629 280.368 
L 160.664065 265.248 
L 160.697953 280.368 
L 161.014237 280.368 
L 161.1159 295.488 
L 161.240155 265.248 
L 161.251451 265.248 
L 161.285338 250.128 
L 161.30793 280.368 
L 161.341818 280.368 
L 161.454776 295.488 
L 161.466072 295.488 
L 161.601623 250.128 
L 161.793652 250.128 
L 161.917907 219.888 
L 162.008274 219.888 
L 162.01957 204.768 
L 162.042161 235.008 
L 162.098641 235.008 
L 162.143824 235.008 
L 162.256783 219.888 
L 162.301966 219.888 
L 162.414925 235.008 
L 162.618251 235.008 
L 162.686026 265.248 
L 162.719913 235.008 
L 162.776393 235.008 
L 162.889351 219.888 
L 162.979718 219.888 
L 163.092677 204.768 
L 163.126565 204.768 
L 163.262115 250.128 
L 163.363778 250.128 
L 163.476737 265.248 
L 163.555808 265.248 
L 163.680062 295.488 
L 163.951163 295.488 
L 163.973755 280.368 
L 164.052826 295.488 
L 164.154489 295.488 
L 164.267447 280.368 
L 164.628915 280.368 
L 164.741874 265.248 
L 164.775761 265.248 
L 164.88872 280.368 
L 165.001679 280.368 
L 165.114637 265.248 
L 165.329259 265.248 
L 165.453514 295.488 
L 165.464809 295.488 
L 165.577768 280.368 
L 165.589064 280.368 
L 165.702023 265.248 
L 165.758502 265.248 
L 165.814981 280.368 
L 165.848869 265.248 
L 165.961828 250.128 
L 166.108674 250.128 
L 166.165153 235.008 
L 166.210337 250.128 
L 166.278112 250.128 
L 166.391071 235.008 
L 166.763834 235.008 
L 166.876793 219.888 
L 166.910681 219.888 
L 167.023639 235.008 
L 167.531953 235.008 
L 167.577137 265.248 
L 167.644912 250.128 
L 167.746575 250.128 
L 167.769167 265.248 
L 167.848238 250.128 
L 167.893421 250.128 
L 168.017676 219.888 
L 168.062859 219.888 
L 168.164522 235.008 
L 168.187114 204.768 
L 168.277481 219.888 
L 168.288776 219.888 
L 168.390439 204.768 
L 168.52599 250.128 
L 168.571173 250.128 
L 168.684132 265.248 
L 168.819682 265.248 
L 168.943937 295.488 
L 169.056895 280.368 
L 169.282813 280.368 
L 169.395772 295.488 
L 169.407067 295.488 
L 169.520026 280.368 
L 169.576505 280.368 
L 169.689464 295.488 
L 169.779831 295.488 
L 169.870198 265.248 
L 169.89279 280.368 
L 169.983157 280.368 
L 170.096115 265.248 
L 170.197778 265.248 
L 170.254257 280.368 
L 170.299441 265.248 
L 170.4124 265.248 
L 170.514062 219.888 
L 170.536654 235.008 
L 170.627021 235.008 
L 170.73998 250.128 
L 170.751276 250.128 
L 170.87553 219.888 
L 171.011081 219.888 
L 171.135335 189.648 
L 171.25959 219.888 
L 171.327365 219.888 
L 171.440324 204.768 
L 171.621058 204.768 
L 171.734016 219.888 
L 171.801791 219.888 
L 171.835679 204.768 
L 171.903454 219.888 
L 171.959934 219.888 
L 172.061596 204.768 
L 172.174555 219.888 
L 172.219739 219.888 
L 172.310105 250.128 
L 172.332697 235.008 
L 172.366585 235.008 
L 172.479544 219.888 
L 172.615094 219.888 
L 172.728053 235.008 
L 172.841011 235.008 
L 172.95397 219.888 
L 172.987858 219.888 
L 173.078225 235.008 
L 173.08952 219.888 
L 173.258958 219.888 
L 173.371917 204.768 
L 173.496172 235.008 
L 173.518763 235.008 
L 173.631722 219.888 
L 174.885563 219.888 
L 175.021114 265.248 
L 175.190552 265.248 
L 175.303511 250.128 
L 175.393877 250.128 
L 175.518132 219.888 
L 175.744049 219.888 
L 175.800529 235.008 
L 175.845712 219.888 
L 175.902192 219.888 
L 176.026446 250.128 
L 176.173292 250.128 
L 176.241068 265.248 
L 176.274955 250.128 
L 176.376618 250.128 
L 176.489577 265.248 
L 176.523464 265.248 
L 176.53476 250.128 
L 176.625127 265.248 
L 176.783269 265.248 
L 176.907524 235.008 
L 176.997891 235.008 
L 177.110849 250.128 
L 177.189921 250.128 
L 177.2464 265.248 
L 177.291583 250.128 
L 177.370654 250.128 
L 177.483613 235.008 
L 177.506205 235.008 
L 177.619164 250.128 
L 177.641755 250.128 
L 177.76601 280.368 
L 177.867673 280.368 
L 177.980631 265.248 
L 178.025815 265.248 
L 178.138773 280.368 
L 178.432466 280.368 
L 178.545425 295.488 
L 178.680975 295.488 
L 178.80523 265.248 
L 178.827821 265.248 
L 178.94078 280.368 
L 179.031147 280.368 
L 179.121514 295.488 
L 179.13281 280.368 
L 179.144106 280.368 
L 179.257064 295.488 
L 180.702935 295.488 
L 180.815894 280.368 
L 180.838486 280.368 
L 180.951445 295.488 
L 181.832522 295.488 
L 181.889002 280.368 
L 181.934185 295.488 
L 182.103623 295.488 
L 182.216582 280.368 
L 182.306949 280.368 
L 182.419907 295.488 
L 182.544162 265.248 
L 182.679712 265.248 
L 182.792671 280.368 
L 182.90563 280.368 
L 183.029884 250.128 
L 183.199322 250.128 
L 183.244506 235.008 
L 183.267098 265.248 
L 183.289689 265.248 
L 183.764116 265.248 
L 183.877074 280.368 
L 183.94485 280.368 
L 184.057808 295.488 
L 184.46446 295.488 
L 184.577418 250.128 
L 184.588714 265.248 
L 184.622602 265.248 
L 184.701673 280.368 
L 184.724265 265.248 
L 184.73556 265.248 
L 184.848519 250.128 
L 184.904998 250.128 
L 185.017957 265.248 
L 185.074436 265.248 
L 185.187395 280.368 
L 185.232579 280.368 
L 185.356833 250.128 
L 185.390721 280.368 
L 185.469792 265.248 
L 185.77478 265.248 
L 185.887739 280.368 
L 186.576787 280.368 
L 186.689746 295.488 
L 186.746225 295.488 
L 186.847888 265.248 
L 186.859184 280.368 
L 187.220651 280.368 
L 187.33361 295.488 
L 187.390089 295.488 
L 187.491752 280.368 
L 187.604711 295.488 
L 189.299091 295.488 
L 189.41205 280.368 
L 189.491121 280.368 
L 189.525008 265.248 
L 189.581488 295.488 
L 189.965547 295.488 
L 190.033323 280.368 
L 190.06721 295.488 
L 191.377531 295.488 
L 191.388827 280.368 
L 191.479194 295.488 
L 191.659928 295.488 
L 191.76159 280.368 
L 191.874549 295.488 
L 191.885845 295.488 
L 191.998804 280.368 
L 192.021395 280.368 
L 192.134354 295.488 
L 192.168242 295.488 
L 192.303792 250.128 
L 192.563597 250.128 
L 192.597485 235.008 
L 192.66526 250.128 
L 192.733035 250.128 
L 192.755627 235.008 
L 192.834698 250.128 
L 193.026728 250.128 
L 193.139686 235.008 
L 193.241349 235.008 
L 193.32042 219.888 
L 193.343012 235.008 
L 193.535042 235.008 
L 193.648 219.888 
L 193.772255 219.888 
L 193.896509 189.648 
L 194.009468 204.768 
L 194.020764 204.768 
L 194.145019 174.528 
L 194.325752 174.528 
L 194.348344 159.408 
L 194.427415 174.528 
L 194.483895 174.528 
L 194.596853 159.408 
L 194.630741 159.408 
L 194.7437 174.528 
L 194.935729 174.528 
L 195.048688 159.408 
L 195.116463 159.408 
L 195.184238 144.288 
L 195.218126 159.408 
L 195.240718 159.408 
L 195.364972 129.168 
L 195.511819 189.648 
L 195.602186 189.648 
L 195.72644 219.888 
L 195.749032 219.888 
L 195.861991 235.008 
L 196.404192 235.008 
L 196.449376 250.128 
L 196.505855 235.008 
L 196.517151 235.008 
L 196.63011 250.128 
L 196.686589 250.128 
L 196.810843 280.368 
L 197.070648 280.368 
L 197.183607 265.248 
L 197.454708 265.248 
L 197.567667 280.368 
L 197.737105 280.368 
L 197.827472 265.248 
L 197.838767 280.368 
L 197.985614 280.368 
L 198.098572 295.488 
L 198.121164 295.488 
L 198.234123 280.368 
L 198.46004 280.368 
L 198.572999 295.488 
L 198.685958 295.488 
L 198.810212 265.248 
L 198.866691 265.248 
L 198.97965 250.128 
L 199.160384 250.128 
L 199.194272 280.368 
L 199.273343 265.248 
L 199.295934 265.248 
L 199.420189 295.488 
L 199.521852 295.488 
L 199.63481 280.368 
L 199.770361 280.368 
L 199.894615 250.128 
L 199.984982 250.128 
L 200.109237 219.888 
L 200.278675 219.888 
L 200.335154 204.768 
L 200.380338 219.888 
L 200.448113 219.888 
L 200.561072 235.008 
L 201.103273 235.008 
L 201.216232 250.128 
L 201.272711 250.128 
L 201.317895 235.008 
L 201.374374 250.128 
L 201.487333 265.248 
L 201.826209 265.248 
L 201.939168 250.128 
L 202.221564 250.128 
L 202.334523 265.248 
L 202.345819 265.248 
L 202.458777 280.368 
L 202.503961 280.368 
L 202.515257 265.248 
L 202.605624 280.368 
L 202.9445 280.368 
L 203.057458 295.488 
L 203.848169 295.488 
L 203.859465 280.368 
L 203.949832 295.488 
L 204.232229 295.488 
L 204.356483 265.248 
L 204.932573 265.248 
L 204.989052 250.128 
L 205.034235 265.248 
L 205.090715 265.248 
L 205.203673 280.368 
L 205.226265 280.368 
L 205.282745 265.248 
L 205.327928 280.368 
L 205.361816 280.368 
L 205.474774 295.488 
L 205.610325 295.488 
L 205.734579 265.248 
L 205.768467 280.368 
L 205.836242 265.248 
L 205.915313 265.248 
L 206.028272 250.128 
L 206.344556 250.128 
L 206.457515 265.248 
L 206.468811 265.248 
L 206.513994 250.128 
L 206.570473 265.248 
L 206.785095 265.248 
L 206.898054 280.368 
L 207.135267 280.368 
L 207.259521 250.128 
L 207.846907 250.128 
L 207.982457 204.768 
L 208.197078 204.768 
L 208.310037 219.888 
L 208.332629 219.888 
L 208.445588 204.768 
L 208.581138 250.128 
L 208.73928 250.128 
L 208.863535 280.368 
L 209.168523 280.368 
L 209.179819 295.488 
L 209.270186 280.368 
L 209.428328 280.368 
L 209.541287 265.248 
L 209.789796 265.248 
L 209.902755 250.128 
L 209.925346 250.128 
L 210.049601 219.888 
L 210.173855 219.888 
L 210.286814 204.768 
L 210.806424 204.768 
L 210.930679 235.008 
L 211.314738 235.008 
L 211.427697 219.888 
L 211.563247 219.888 
L 211.676206 235.008 
L 211.755277 235.008 
L 211.868236 219.888 
L 212.218408 219.888 
L 212.331366 204.768 
L 212.365254 204.768 
L 212.489508 174.528 
L 212.523396 174.528 
L 212.647651 144.288 
L 212.70413 144.288 
L 212.783201 129.168 
L 212.805793 144.288 
L 212.83968 144.288 
L 212.952639 159.408 
L 213.054302 159.408 
L 213.16726 174.528 
L 213.257627 174.528 
L 213.370586 189.648 
L 213.438361 189.648 
L 213.562616 219.888 
L 213.68687 219.888 
L 213.799829 235.008 
L 214.116113 235.008 
L 214.229072 250.128 
L 214.364622 250.128 
L 214.477581 265.248 
L 214.522765 265.248 
L 214.635723 250.128 
L 214.703499 250.128 
L 214.72609 235.008 
L 214.748682 265.248 
L 214.793865 265.248 
L 214.805161 265.248 
L 214.91812 250.128 
L 214.963303 250.128 
L 215.076262 235.008 
L 215.132742 235.008 
L 215.2457 250.128 
L 215.290884 250.128 
L 215.369955 235.008 
L 215.392546 250.128 
L 215.415138 250.128 
L 215.471618 235.008 
L 215.516801 250.128 
L 215.866973 250.128 
L 215.991227 219.888 
L 216.047707 219.888 
L 216.160666 235.008 
L 216.341399 235.008 
L 216.363991 219.888 
L 216.443062 235.008 
L 216.702867 235.008 
L 216.815826 250.128 
L 216.973968 250.128 
L 217.098223 280.368 
L 217.900229 280.368 
L 217.945413 295.488 
L 218.001892 280.368 
L 218.860378 280.368 
L 218.984633 250.128 
L 219.312213 250.128 
L 219.436467 219.888 
L 219.526834 219.888 
L 219.651089 189.648 
L 219.684976 189.648 
L 219.809231 159.408 
L 219.820527 159.408 
L 219.944781 129.168 
L 219.989965 129.168 
L 220.102923 144.288 
L 220.351433 144.288 
L 220.475687 174.528 
L 220.599942 174.528 
L 220.701604 189.648 
L 220.814563 174.528 
L 221.09696 174.528 
L 221.119552 159.408 
L 221.142143 189.648 
L 221.187327 189.648 
L 221.221214 189.648 
L 221.345469 219.888 
L 221.526203 219.888 
L 221.639162 235.008 
L 221.673049 235.008 
L 221.774712 250.128 
L 221.887671 235.008 
L 222.034517 235.008 
L 222.13618 204.768 
L 222.147476 219.888 
L 222.249138 219.888 
L 222.373393 250.128 
L 222.734861 250.128 
L 222.847819 265.248 
L 223.039849 265.248 
L 223.152808 280.368 
L 223.344838 280.368 
L 223.457796 265.248 
L 223.525572 265.248 
L 223.582051 250.128 
L 223.627234 265.248 
L 223.661122 265.248 
L 223.774081 250.128 
L 223.785376 250.128 
L 223.898335 235.008 
L 224.293691 235.008 
L 224.417945 265.248 
L 224.451833 265.248 
L 224.576087 295.488 
L 225.140881 295.488 
L 225.219952 280.368 
L 225.242543 295.488 
L 226.033254 295.488 
L 226.146213 280.368 
L 226.281763 280.368 
L 226.394722 295.488 
L 227.004699 295.488 
L 227.117658 280.368 
L 227.196729 280.368 
L 227.309687 295.488 
L 227.320983 295.488 
L 227.332279 280.368 
L 227.422646 295.488 
L 228.010031 295.488 
L 228.12299 280.368 
L 228.439274 280.368 
L 228.563529 250.128 
L 228.620008 250.128 
L 228.631304 235.008 
L 228.721671 250.128 
L 228.924996 250.128 
L 229.004068 235.008 
L 229.026659 250.128 
L 229.139618 250.128 
L 229.252577 235.008 
L 229.388127 235.008 
L 229.512382 204.768 
L 229.523677 204.768 
L 229.62534 189.648 
L 229.738299 204.768 
L 229.783482 204.768 
L 229.806074 189.648 
L 229.862554 219.888 
L 229.873849 219.888 
L 229.964216 219.888 
L 230.088471 250.128 
L 230.348276 250.128 
L 230.438643 219.888 
L 230.461235 235.008 
L 230.52901 235.008 
L 230.574193 219.888 
L 230.630673 235.008 
L 230.698448 235.008 
L 230.811406 250.128 
L 230.822702 250.128 
L 230.935661 265.248 
L 230.958253 265.248 
L 230.980844 250.128 
L 231.059916 265.248 
L 231.410087 265.248 
L 231.523046 250.128 
L 231.636005 250.128 
L 231.748964 265.248 
L 232.121727 265.248 
L 232.133023 250.128 
L 232.212094 280.368 
L 232.279869 280.368 
L 232.392828 295.488 
L 233.127059 295.488 
L 233.194835 280.368 
L 233.228722 295.488 
L 233.307793 295.488 
L 233.420752 280.368 
L 233.465935 280.368 
L 233.578894 265.248 
L 233.883883 265.248 
L 234.008137 295.488 
L 234.267942 295.488 
L 234.392197 265.248 
L 234.459972 265.248 
L 234.584226 295.488 
L 234.640706 295.488 
L 234.719777 265.248 
L 234.753664 280.368 
L 234.787552 280.368 
L 234.900511 265.248 
L 234.979582 265.248 
L 235.081245 280.368 
L 235.194203 265.248 
L 235.205499 265.248 
L 235.329754 295.488 
L 236.32379 295.488 
L 236.436749 280.368 
L 236.470636 280.368 
L 236.583595 265.248 
L 236.685258 265.248 
L 236.798217 280.368 
L 236.877288 280.368 
L 236.990246 295.488 
L 237.216164 295.488 
L 237.329122 280.368 
L 237.442081 280.368 
L 237.55504 265.248 
L 237.735774 265.248 
L 237.848732 280.368 
L 237.905212 280.368 
L 237.916507 265.248 
L 238.006874 280.368 
L 238.085946 280.368 
L 238.198904 295.488 
L 238.379638 295.488 
L 238.492597 280.368 
L 239.05739 280.368 
L 239.170349 265.248 
L 239.294603 265.248 
L 239.317195 280.368 
L 239.396266 265.248 
L 239.44145 265.248 
L 239.554408 250.128 
L 239.757734 250.128 
L 239.870693 265.248 
L 240.051427 265.248 
L 240.164385 280.368 
L 240.254752 280.368 
L 240.367711 295.488 
L 240.514557 295.488 
L 240.638812 265.248 
L 240.661403 265.248 
L 240.774362 280.368 
L 240.842137 280.368 
L 240.853433 265.248 
L 240.9438 280.368 
L 241.226197 280.368 
L 241.260084 295.488 
L 241.32786 280.368 
L 241.384339 280.368 
L 241.395635 295.488 
L 241.486002 280.368 
L 241.553777 280.368 
L 241.666736 295.488 
L 241.779694 280.368 
L 241.881357 280.368 
L 241.994316 295.488 
L 242.378375 295.488 
L 242.50263 265.248 
L 242.559109 265.248 
L 242.683364 295.488 
L 242.739843 295.488 
L 242.852802 280.368 
L 242.886689 280.368 
L 242.920577 265.248 
L 242.977056 280.368 
L 243.010944 295.488 
L 243.078719 280.368 
L 243.372412 280.368 
L 243.48537 295.488 
L 244.298673 295.488 
L 244.422928 265.248 
L 244.445519 265.248 
L 244.569774 235.008 
L 244.682732 235.008 
L 244.806987 265.248 
L 244.999017 265.248 
L 245.111975 280.368 
L 245.360485 280.368 
L 245.473443 295.488 
L 245.642881 295.488 
L 245.699361 265.248 
L 245.75584 280.368 
L 245.834911 280.368 
L 245.94787 295.488 
L 246.106012 295.488 
L 246.241562 250.128 
L 246.388409 250.128 
L 246.433592 235.008 
L 246.456184 265.248 
L 246.46748 265.248 
L 246.591734 295.488 
L 246.704693 295.488 
L 246.817652 280.368 
L 246.862835 280.368 
L 246.975794 295.488 
L 247.25819 295.488 
L 247.371149 280.368 
L 247.416333 280.368 
L 247.529291 265.248 
L 247.540587 265.248 
L 247.619658 250.128 
L 247.630954 265.248 
L 247.664842 280.368 
L 247.732617 265.248 
L 248.116676 265.248 
L 248.229635 250.128 
L 248.286114 250.128 
L 248.399073 265.248 
L 248.410369 265.248 
L 248.523328 280.368 
L 248.737949 280.368 
L 248.850908 295.488 
L 249.031642 295.488 
L 249.099417 265.248 
L 249.1446 280.368 
L 249.167192 280.368 
L 249.280151 295.488 
L 249.833648 295.488 
L 249.946607 280.368 
L 250.04827 280.368 
L 250.082157 295.488 
L 250.104749 265.248 
L 250.138637 265.248 
L 250.285483 265.248 
L 250.353258 250.128 
L 250.387146 265.248 
L 250.500105 265.248 
L 250.624359 295.488 
L 251.74265 295.488 
L 251.787834 280.368 
L 251.844313 295.488 
L 252.205781 295.488 
L 252.284852 265.248 
L 252.318739 280.368 
L 252.567248 280.368 
L 252.680207 295.488 
L 252.860941 295.488 
L 252.9739 280.368 
L 253.357959 280.368 
L 253.43703 265.248 
L 253.459622 280.368 
L 253.798498 280.368 
L 253.809794 265.248 
L 253.832386 295.488 
L 253.900161 280.368 
L 253.95664 280.368 
L 253.967936 265.248 
L 254.01312 295.488 
L 254.047007 295.488 
L 254.114782 295.488 
L 254.227741 280.368 
L 254.239037 280.368 
L 254.306812 265.248 
L 254.3407 280.368 
L 254.419771 280.368 
L 254.532729 295.488 
L 254.713463 295.488 
L 254.826422 280.368 
L 254.871606 280.368 
L 254.984564 295.488 
L 255.097523 280.368 
L 255.210482 295.488 
L 255.481582 295.488 
L 255.492878 280.368 
L 255.583245 295.488 
L 255.84305 295.488 
L 255.956009 280.368 
L 255.989896 280.368 
L 256.046376 295.488 
L 256.091559 280.368 
L 256.102855 280.368 
L 256.148039 295.488 
L 256.204518 280.368 
L 256.22711 280.368 
L 256.340068 295.488 
L 256.69024 295.488 
L 256.803199 280.368 
L 256.983933 280.368 
L 257.096892 295.488 
L 257.20985 280.368 
L 257.243738 280.368 
L 257.356697 295.488 
L 257.650389 295.488 
L 257.763348 280.368 
L 257.797235 280.368 
L 257.910194 265.248 
L 257.932786 265.248 
L 258.05704 235.008 
L 258.181295 235.008 
L 258.294254 250.128 
L 258.384621 250.128 
L 258.520171 295.488 
L 259.548095 295.488 
L 259.661054 280.368 
L 259.683645 280.368 
L 259.796604 265.248 
L 259.8079 265.248 
L 259.920859 250.128 
L 260.011226 250.128 
L 260.13548 219.888 
L 260.259735 219.888 
L 260.372693 235.008 
L 260.417877 235.008 
L 260.530835 250.128 
L 260.824528 250.128 
L 260.937487 235.008 
L 261.03915 235.008 
L 261.1747 280.368 
L 261.231179 280.368 
L 261.344138 295.488 
L 261.660422 295.488 
L 261.773381 280.368 
L 262.21392 280.368 
L 262.326878 295.488 
L 262.394654 295.488 
L 262.507612 280.368 
L 262.530204 280.368 
L 262.643163 295.488 
L 262.823897 295.488 
L 262.914264 265.248 
L 262.936855 280.368 
L 263.185364 280.368 
L 263.298323 295.488 
L 263.524241 295.488 
L 263.637199 280.368 
L 263.9083 280.368 
L 263.987371 295.488 
L 264.009963 280.368 
L 264.111626 280.368 
L 264.224584 295.488 
L 265.693047 295.488 
L 265.726935 280.368 
L 265.79471 295.488 
L 266.551533 295.488 
L 266.664492 280.368 
L 267.071143 280.368 
L 267.184102 295.488 
L 268.155546 295.488 
L 268.268505 280.368 
L 268.697748 280.368 
L 268.765523 265.248 
L 268.799411 280.368 
L 268.810707 280.368 
L 268.85589 295.488 
L 268.91237 280.368 
L 269.093103 280.368 
L 269.206062 295.488 
L 269.330317 295.488 
L 269.3755 280.368 
L 269.43198 295.488 
L 269.928998 295.488 
L 269.974181 280.368 
L 270.030661 295.488 
L 270.27917 295.488 
L 270.301761 280.368 
L 270.380832 295.488 
L 270.843963 295.488 
L 270.956922 280.368 
L 270.990809 280.368 
L 271.103768 295.488 
L 271.442644 295.488 
L 271.555603 280.368 
L 271.58949 280.368 
L 271.600786 295.488 
L 271.691153 280.368 
L 271.747632 280.368 
L 271.860591 295.488 
L 271.917071 295.488 
L 272.030029 280.368 
L 272.255947 280.368 
L 272.30113 295.488 
L 272.357609 280.368 
L 272.380201 280.368 
L 272.49316 295.488 
L 273.103137 295.488 
L 273.216095 280.368 
L 273.283871 280.368 
L 273.396829 295.488 
L 273.554971 295.488 
L 273.66793 280.368 
L 273.701818 280.368 
L 273.814776 295.488 
L 273.893847 295.488 
L 274.006806 280.368 
L 274.085877 280.368 
L 274.198836 295.488 
L 274.853996 295.488 
L 274.966955 280.368 
L 275.057322 280.368 
L 275.170281 295.488 
L 276.017471 295.488 
L 276.130429 280.368 
L 276.164317 280.368 
L 276.232092 295.488 
L 276.26598 280.368 
L 276.299867 280.368 
L 276.333755 295.488 
L 276.40153 280.368 
L 276.78559 280.368 
L 276.898548 295.488 
L 277.135762 295.488 
L 277.24872 280.368 
L 277.621484 280.368 
L 277.734443 295.488 
L 277.802218 295.488 
L 277.915176 280.368 
L 277.949064 280.368 
L 278.062023 265.248 
L 278.208869 265.248 
L 278.321828 250.128 
L 278.672 250.128 
L 278.784958 265.248 
L 278.9431 265.248 
L 279.056059 280.368 
L 279.101243 280.368 
L 279.214201 295.488 
L 279.440119 295.488 
L 279.553077 280.368 
L 279.745107 280.368 
L 279.812882 265.248 
L 279.84677 280.368 
L 280.129167 280.368 
L 280.242125 295.488 
L 280.332492 295.488 
L 280.355084 280.368 
L 280.434155 295.488 
L 280.614889 295.488 
L 280.727848 280.368 
L 280.82951 280.368 
L 280.942469 295.488 
L 281.145795 295.488 
L 281.258753 280.368 
L 282.049464 280.368 
L 282.162423 295.488 
L 282.975725 295.488 
L 283.077388 265.248 
L 283.088684 280.368 
L 283.145163 280.368 
L 283.212939 265.248 
L 283.246826 280.368 
L 283.890691 280.368 
L 284.003649 295.488 
L 284.048833 295.488 
L 284.094016 280.368 
L 284.150496 295.488 
L 284.545851 295.488 
L 284.557147 280.368 
L 284.647514 295.488 
L 284.997686 295.488 
L 285.110644 280.368 
L 285.155828 280.368 
L 285.268787 295.488 
L 286.16116 295.488 
L 286.274119 280.368 
L 286.35319 280.368 
L 286.466149 295.488 
L 286.737249 295.488 
L 286.838912 280.368 
L 286.951871 295.488 
L 287.098717 295.488 
L 287.20038 280.368 
L 287.268155 295.488 
L 287.302043 280.368 
L 287.33593 280.368 
L 287.448889 295.488 
L 287.595735 295.488 
L 287.607031 280.368 
L 287.697398 295.488 
L 287.957203 295.488 
L 288.070162 280.368 
L 288.386446 280.368 
L 288.465517 265.248 
L 288.488109 280.368 
L 288.872169 280.368 
L 288.985127 295.488 
L 289.007719 295.488 
L 289.120678 280.368 
L 289.267524 280.368 
L 289.380483 295.488 
L 289.459554 295.488 
L 289.583808 265.248 
L 289.911388 265.248 
L 290.024347 250.128 
L 290.171193 250.128 
L 290.295448 280.368 
L 290.329336 280.368 
L 290.374519 265.248 
L 290.430998 280.368 
L 290.45359 280.368 
L 290.487478 265.248 
L 290.521365 295.488 
L 290.543957 295.488 
L 290.566549 295.488 
L 290.702099 250.128 
L 290.747283 250.128 
L 290.826354 295.488 
L 290.871537 280.368 
L 290.916721 280.368 
L 291.029679 295.488 
L 291.244301 295.488 
L 291.289484 280.368 
L 291.345964 295.488 
L 291.752615 295.488 
L 291.775207 280.368 
L 291.854278 295.488 
L 291.967236 295.488 
L 292.080195 280.368 
L 292.215746 280.368 
L 292.328704 295.488 
L 292.486846 295.488 
L 292.611101 265.248 
L 292.961273 265.248 
L 293.040344 280.368 
L 293.062936 265.248 
L 293.221078 265.248 
L 293.345332 235.008 
L 293.537362 235.008 
L 293.57125 219.888 
L 293.639025 235.008 
L 293.763279 235.008 
L 293.876238 219.888 
L 294.203818 219.888 
L 294.316777 204.768 
L 294.542694 204.768 
L 294.666949 235.008 
L 294.836387 235.008 
L 294.949346 250.128 
L 294.994529 250.128 
L 295.107488 235.008 
L 295.638394 235.008 
L 295.751352 219.888 
L 295.898199 219.888 
L 295.965974 204.768 
L 295.999861 219.888 
L 296.033749 219.888 
L 296.158003 250.128 
L 296.180595 250.128 
L 296.293554 265.248 
L 296.338737 265.248 
L 296.451696 280.368 
L 296.609838 280.368 
L 296.621134 265.248 
L 296.711501 280.368 
L 296.722797 280.368 
L 296.745389 295.488 
L 296.82446 280.368 
L 297.016489 280.368 
L 297.129448 295.488 
L 297.15204 295.488 
L 297.242407 280.368 
L 297.253703 295.488 
L 297.457028 295.488 
L 297.581283 265.248 
L 297.603875 265.248 
L 297.716833 250.128 
L 297.86368 250.128 
L 297.976638 265.248 
L 298.067005 265.248 
L 298.078301 280.368 
L 298.168668 265.248 
L 298.19126 265.248 
L 298.225147 280.368 
L 298.292923 265.248 
L 298.304218 265.248 
L 298.417177 280.368 
L 298.51884 280.368 
L 298.631799 295.488 
L 299.106225 295.488 
L 299.219184 280.368 
L 299.433805 280.368 
L 299.546764 265.248 
L 299.761385 265.248 
L 299.874344 250.128 
L 299.998599 250.128 
L 300.032486 235.008 
L 300.100261 250.128 
L 300.224516 250.128 
L 300.292291 235.008 
L 300.326179 250.128 
L 300.676351 250.128 
L 300.789309 265.248 
L 300.811901 265.248 
L 300.92486 250.128 
L 301.241144 250.128 
L 301.354103 265.248 
L 301.557428 265.248 
L 301.681683 235.008 
L 301.77205 235.008 
L 301.896304 265.248 
L 302.043151 265.248 
L 302.156109 250.128 
L 302.167405 250.128 
L 302.280364 235.008 
L 302.607944 235.008 
L 302.743495 280.368 
L 302.890341 280.368 
L 302.958116 265.248 
L 302.992004 280.368 
L 303.13885 280.368 
L 303.251809 265.248 
L 303.398655 265.248 
L 303.511614 250.128 
L 303.669756 250.128 
L 303.79401 219.888 
L 303.895673 219.888 
L 303.997336 204.768 
L 304.121591 235.008 
L 304.155478 235.008 
L 304.279733 204.768 
L 304.302324 204.768 
L 304.415283 189.648 
L 304.754159 189.648 
L 304.878414 219.888 
L 304.912301 219.888 
L 304.991372 204.768 
L 305.013964 219.888 
L 305.239881 219.888 
L 305.35284 204.768 
L 305.398024 204.768 
L 305.510982 219.888 
L 305.725604 219.888 
L 305.838562 250.128 
L 305.951521 235.008 
L 306.211326 235.008 
L 306.25651 250.128 
L 306.312989 235.008 
L 306.358172 235.008 
L 306.493723 280.368 
L 306.572794 280.368 
L 306.617977 295.488 
L 306.674457 280.368 
L 306.945558 280.368 
L 307.058516 295.488 
L 307.284434 295.488 
L 307.397392 280.368 
L 307.453872 280.368 
L 307.56683 295.488 
L 307.724972 295.488 
L 307.837931 280.368 
L 307.905706 280.368 
L 308.029961 250.128 
L 308.063848 250.128 
L 308.176807 265.248 
L 308.515683 265.248 
L 308.628642 280.368 
L 308.786784 280.368 
L 308.899743 265.248 
L 309.566199 265.248 
L 309.611382 280.368 
L 309.667862 265.248 
L 309.859892 265.248 
L 309.882483 280.368 
L 309.961554 265.248 
L 309.995442 265.248 
L 310.119696 295.488 
L 310.628011 295.488 
L 310.740969 280.368 
L 310.786153 280.368 
L 310.865224 265.248 
L 310.887816 280.368 
L 311.01207 280.368 
L 311.125029 265.248 
L 311.158916 265.248 
L 311.283171 235.008 
L 311.373538 235.008 
L 311.497792 204.768 
L 311.678526 204.768 
L 311.780189 189.648 
L 311.904444 219.888 
L 312.039994 219.888 
L 312.152953 235.008 
L 312.24332 235.008 
L 312.356278 250.128 
L 312.469237 235.008 
L 312.864592 235.008 
L 312.988847 265.248 
L 313.079214 265.248 
L 313.192173 250.128 
L 313.214764 250.128 
L 313.327723 265.248 
L 313.350315 265.248 
L 313.395498 280.368 
L 313.451978 265.248 
L 313.508457 265.248 
L 313.632711 235.008 
L 313.74567 235.008 
L 313.869925 265.248 
L 313.926404 265.248 
L 313.960292 250.128 
L 313.994179 280.368 
L 314.016771 280.368 
L 314.287872 280.368 
L 314.40083 265.248 
L 314.45731 265.248 
L 314.581564 295.488 
L 314.626748 295.488 
L 314.739707 280.368 
L 314.841369 280.368 
L 314.954328 295.488 
L 316.34372 295.488 
L 316.456678 280.368 
L 316.524454 280.368 
L 316.637412 265.248 
L 316.739075 265.248 
L 316.852034 280.368 
L 316.86333 280.368 
L 316.976288 295.488 
L 317.066655 295.488 
L 317.179614 280.368 
L 317.236093 280.368 
L 317.303869 265.248 
L 317.337756 280.368 
L 317.371644 280.368 
L 317.484602 295.488 
L 317.541082 295.488 
L 317.654041 280.368 
L 317.800887 280.368 
L 317.913845 295.488 
L 317.992917 295.488 
L 318.049396 280.368 
L 318.094579 295.488 
L 318.88529 295.488 
L 319.009545 265.248 
L 319.224166 265.248 
L 319.337125 250.128 
L 320.071356 250.128 
L 320.082652 265.248 
L 320.173019 250.128 
L 320.184315 250.128 
L 320.229498 235.008 
L 320.285978 250.128 
L 320.613558 250.128 
L 320.726517 265.248 
L 320.749108 265.248 
L 320.862067 280.368 
L 320.975026 265.248 
L 321.008913 265.248 
L 321.121872 280.368 
L 321.144464 280.368 
L 321.268718 250.128 
L 321.381677 250.128 
L 321.460748 265.248 
L 321.48334 250.128 
L 321.551115 250.128 
L 321.664074 265.248 
L 322.025541 265.248 
L 322.093317 250.128 
L 322.127204 265.248 
L 322.240163 280.368 
L 322.285346 280.368 
L 322.398305 295.488 
L 322.816252 295.488 
L 322.951803 250.128 
L 323.019578 250.128 
L 323.121241 265.248 
L 323.234199 250.128 
L 323.268087 250.128 
L 323.290679 235.008 
L 323.36975 250.128 
L 323.539188 250.128 
L 323.674738 295.488 
L 324.73655 295.488 
L 324.849508 280.368 
L 324.860804 280.368 
L 324.973763 295.488 
L 325.369118 295.488 
L 325.482077 280.368 
L 325.764474 280.368 
L 325.877432 295.488 
L 325.990391 295.488 
L 326.125942 250.128 
L 326.250196 250.128 
L 326.29538 265.248 
L 326.351859 250.128 
L 326.374451 250.128 
L 326.487409 265.248 
L 326.939244 265.248 
L 327.063499 295.488 
L 327.119978 295.488 
L 327.232937 280.368 
L 327.707363 280.368 
L 327.820322 295.488 
L 328.306044 295.488 
L 328.419003 280.368 
L 328.565849 280.368 
L 328.656216 250.128 
L 328.678808 265.248 
L 328.735287 265.248 
L 328.848246 280.368 
L 328.938613 280.368 
L 329.051571 295.488 
L 329.435631 295.488 
L 329.54859 280.368 
L 329.571181 280.368 
L 329.68414 265.248 
L 330.056904 265.248 
L 330.181158 295.488 
L 330.632993 295.488 
L 330.678176 280.368 
L 330.734656 295.488 
L 330.892798 295.488 
L 331.005757 280.368 
L 331.028348 280.368 
L 331.141307 295.488 
L 331.276857 295.488 
L 331.389816 280.368 
L 331.446295 280.368 
L 331.559254 265.248 
L 331.581846 265.248 
L 331.649621 280.368 
L 331.683509 265.248 
L 331.728692 265.248 
L 331.739988 280.368 
L 331.830355 265.248 
L 331.875538 265.248 
L 332.011089 219.888 
L 332.078864 219.888 
L 332.214415 174.528 
L 332.248302 174.528 
L 332.361261 159.408 
L 332.530699 159.408 
L 332.575882 144.288 
L 332.598474 174.528 
L 332.621066 174.528 
L 332.8018 174.528 
L 332.914758 189.648 
L 332.93735 189.648 
L 333.016421 204.768 
L 333.039013 189.648 
L 333.106788 189.648 
L 333.219747 204.768 
L 333.490848 204.768 
L 333.603806 219.888 
L 333.64899 219.888 
L 333.761948 235.008 
L 333.829724 235.008 
L 333.942682 250.128 
L 334.179896 250.128 
L 334.258967 265.248 
L 334.281558 250.128 
L 334.383221 250.128 
L 334.428405 235.008 
L 334.484884 250.128 
L 334.609139 250.128 
L 334.710801 265.248 
L 334.846352 219.888 
L 334.948015 219.888 
L 334.993198 235.008 
L 335.049677 219.888 
L 335.253003 219.888 
L 335.388553 174.528 
L 335.411145 174.528 
L 335.524104 159.408 
L 335.625767 159.408 
L 335.738725 174.528 
L 335.953347 174.528 
L 336.066306 159.408 
L 336.38259 159.408 
L 336.495549 174.528 
L 336.57462 174.528 
L 336.585915 159.408 
L 336.676282 174.528 
L 336.732762 174.528 
L 336.84572 159.408 
L 336.947383 159.408 
L 337.071638 189.648 
L 337.55736 189.648 
L 337.670319 174.528 
L 337.783277 174.528 
L 337.828461 159.408 
L 337.88494 174.528 
L 338.088266 174.528 
L 338.21252 144.288 
L 338.302887 144.288 
L 338.325479 129.168 
L 338.393254 144.288 
L 338.506213 159.408 
L 338.528805 159.408 
L 338.641763 174.528 
L 338.845089 174.528 
L 338.958048 159.408 
L 339.014527 159.408 
L 339.127486 174.528 
L 339.353403 174.528 
L 339.466362 159.408 
L 339.782646 159.408 
L 339.895605 174.528 
L 339.906901 174.528 
L 339.929492 189.648 
L 340.008564 174.528 
L 340.076339 174.528 
L 340.189297 189.648 
L 340.505582 189.648 
L 340.539469 174.528 
L 340.584653 204.768 
L 340.697611 219.888 
L 340.708907 219.888 
L 340.833162 250.128 
L 340.844458 250.128 
L 340.957416 265.248 
L 341.19463 265.248 
L 341.296292 235.008 
L 341.307588 250.128 
L 341.488322 250.128 
L 341.556097 265.248 
L 341.589985 250.128 
L 341.601281 250.128 
L 341.680352 235.008 
L 341.702944 250.128 
L 341.838494 250.128 
L 341.962749 219.888 
L 342.019228 219.888 
L 342.132187 235.008 
L 342.324216 235.008 
L 342.437175 219.888 
L 342.471063 219.888 
L 342.595317 189.648 
L 342.606613 189.648 
L 342.730868 159.408 
L 342.855122 159.408 
L 342.968081 174.528 
L 343.013264 174.528 
L 343.137519 144.288 
L 343.227886 144.288 
L 343.363436 98.928 
L 343.510283 98.928 
L 343.566762 114.048 
L 343.611945 98.928 
L 344.323585 98.928 
L 344.436544 83.808 
L 344.605982 83.808 
L 344.730236 114.048 
L 344.831899 114.048 
L 344.956154 83.808 
L 345.215959 83.808 
L 345.328917 68.688 
L 345.566131 68.688 
L 345.690385 98.928 
L 345.712977 98.928 
L 345.837231 68.688 
L 345.882415 68.688 
L 345.995374 53.568 
L 346.097036 53.568 
L 346.221291 83.808 
L 346.740901 83.808 
L 346.79738 68.688 
L 346.842564 83.808 
L 346.944227 114.048 
L 346.955522 98.928 
L 347.023298 98.928 
L 347.136256 83.808 
L 347.31699 83.808 
L 347.407357 53.568 
L 347.429949 68.688 
L 347.565499 68.688 
L 347.678458 83.808 
L 347.768825 83.808 
L 347.814008 98.928 
L 347.870488 83.808 
L 347.926967 83.808 
L 348.039926 98.928 
L 348.186772 98.928 
L 348.299731 114.048 
L 348.570832 114.048 
L 348.68379 98.928 
L 348.774157 98.928 
L 348.808045 114.048 
L 348.87582 98.928 
L 349.056554 98.928 
L 349.169513 83.808 
L 349.666531 83.808 
L 349.790785 114.048 
L 350.174845 114.048 
L 350.310395 159.408 
L 350.344283 159.408 
L 350.457242 144.288 
L 350.717046 144.288 
L 350.830005 129.168 
L 351.044627 129.168 
L 351.157585 114.048 
L 351.270544 114.048 
L 351.293136 98.928 
L 351.372207 114.048 
L 351.507757 114.048 
L 351.620716 129.168 
L 351.677195 129.168 
L 351.711083 98.928 
L 351.790154 114.048 
L 351.903113 114.048 
L 351.959592 129.168 
L 352.004775 114.048 
L 352.162918 114.048 
L 352.275876 129.168 
L 352.32106 129.168 
L 352.445314 159.408 
L 352.51309 159.408 
L 352.592161 174.528 
L 352.614752 159.408 
L 352.705119 159.408 
L 352.818078 174.528 
L 352.829374 174.528 
L 352.953628 204.768 
L 353.077883 174.528 
L 353.258617 174.528 
L 353.382871 204.768 
L 353.653972 204.768 
L 353.778227 235.008 
L 353.87989 235.008 
L 354.004144 204.768 
L 354.309133 204.768 
L 354.433387 235.008 
L 354.840038 235.008 
L 354.952997 219.888 
L 354.975589 219.888 
L 355.088547 204.768 
L 355.145027 204.768 
L 355.19021 219.888 
L 355.24669 204.768 
L 355.269281 204.768 
L 355.38224 219.888 
L 355.551678 219.888 
L 355.664637 235.008 
L 355.687228 235.008 
L 355.800187 250.128 
L 355.890554 250.128 
L 356.003513 265.248 
L 356.014809 265.248 
L 356.127767 280.368 
L 356.139063 280.368 
L 356.252022 265.248 
L 356.353685 265.248 
L 356.466643 250.128 
L 356.511827 250.128 
L 356.624785 235.008 
L 356.737744 250.128 
L 356.782928 250.128 
L 356.907182 219.888 
L 357.031437 219.888 
L 357.110508 235.008 
L 357.1331 219.888 
L 357.189579 219.888 
L 357.302538 204.768 
L 357.392905 204.768 
L 357.483271 235.008 
L 357.505863 219.888 
L 357.754372 219.888 
L 357.867331 204.768 
L 358.036769 204.768 
L 358.149728 219.888 
L 358.206207 219.888 
L 358.296574 204.768 
L 358.30787 219.888 
L 358.578971 219.888 
L 358.590267 204.768 
L 358.646746 250.128 
L 358.658042 250.128 
L 358.737113 250.128 
L 358.838776 265.248 
L 358.883959 235.008 
L 358.940438 265.248 
L 359.121172 265.248 
L 359.177652 250.128 
L 359.222835 265.248 
L 359.279315 265.248 
L 359.313202 250.128 
L 359.380977 265.248 
L 359.426161 265.248 
L 359.539119 280.368 
L 359.753741 280.368 
L 359.8667 265.248 
L 359.877996 265.248 
L 359.923179 250.128 
L 359.979658 265.248 
L 360.668706 265.248 
L 360.792961 295.488 
L 361.007582 295.488 
L 361.131837 265.248 
L 361.470713 265.248 
L 361.594967 235.008 
L 361.798293 235.008 
L 361.911252 219.888 
L 362.182353 219.888 
L 362.295311 235.008 
L 362.351791 235.008 
L 362.464749 219.888 
L 362.509933 219.888 
L 362.566412 235.008 
L 362.611596 219.888 
L 362.814921 219.888 
L 362.92788 235.008 
L 363.210277 235.008 
L 363.334531 265.248 
L 363.402306 265.248 
L 363.503969 250.128 
L 363.616928 265.248 
L 363.63952 265.248 
L 363.707295 219.888 
L 363.763774 235.008 
L 364.034875 235.008 
L 364.147834 250.128 
L 364.15913 250.128 
L 364.272088 265.248 
L 364.317272 265.248 
L 364.43023 250.128 
L 364.633556 250.128 
L 364.746515 265.248 
L 364.882065 265.248 
L 364.995024 280.368 
L 365.14187 280.368 
L 365.254829 265.248 
L 365.412971 265.248 
L 365.52593 250.128 
L 365.638888 265.248 
L 365.66148 265.248 
L 365.774439 280.368 
L 365.79703 280.368 
L 365.909989 295.488 
L 366.113315 295.488 
L 366.18109 280.368 
L 366.214978 295.488 
L 366.282753 295.488 
L 366.395711 280.368 
L 366.497374 280.368 
L 366.610333 265.248 
L 366.666812 265.248 
L 366.791067 295.488 
L 366.870138 295.488 
L 366.89273 280.368 
L 366.971801 295.488 
L 367.050872 295.488 
L 367.16383 280.368 
L 367.502706 280.368 
L 367.615665 295.488 
L 367.73992 295.488 
L 367.864174 265.248 
L 368.157867 265.248 
L 368.282121 235.008 
L 368.575814 235.008 
L 368.700069 265.248 
L 369.084128 265.248 
L 369.197087 280.368 
L 369.343933 280.368 
L 369.411708 295.488 
L 369.445596 280.368 
L 369.513371 280.368 
L 369.62633 295.488 
L 369.999093 295.488 
L 370.112052 280.368 
L 370.168531 280.368 
L 370.191123 265.248 
L 370.270194 280.368 
L 370.349265 280.368 
L 370.462224 295.488 
L 370.586478 295.488 
L 370.710733 265.248 
L 370.767212 265.248 
L 370.880171 280.368 
L 371.219047 280.368 
L 371.332006 295.488 
L 371.478852 295.488 
L 371.535331 280.368 
L 371.580515 295.488 
L 371.941983 295.488 
L 371.964574 280.368 
L 372.043645 295.488 
L 372.054941 295.488 
L 372.1679 280.368 
L 372.201788 280.368 
L 372.314746 295.488 
L 373.150641 295.488 
L 373.263599 280.368 
L 373.286191 280.368 
L 373.39915 295.488 
L 373.433037 295.488 
L 373.489517 280.368 
L 373.5347 295.488 
L 373.805801 295.488 
L 373.873576 280.368 
L 373.907464 295.488 
L 374.065606 295.488 
L 374.178565 280.368 
L 374.18986 280.368 
L 374.302819 295.488 
L 374.460961 295.488 
L 374.57392 280.368 
L 374.777246 280.368 
L 374.890204 295.488 
L 375.003163 295.488 
L 375.116122 280.368 
L 375.895536 280.368 
L 376.008495 295.488 
L 376.336075 295.488 
L 376.46033 265.248 
L 376.516809 265.248 
L 376.629768 280.368 
L 376.65236 280.368 
L 376.765318 295.488 
L 377.104194 295.488 
L 377.17197 280.368 
L 377.205857 295.488 
L 377.657692 295.488 
L 377.725467 265.248 
L 377.770651 280.368 
L 377.849722 280.368 
L 377.96268 265.248 
L 378.041751 265.248 
L 378.15471 280.368 
L 378.550066 280.368 
L 378.663024 265.248 
L 378.80987 265.248 
L 378.922829 250.128 
L 379.171338 250.128 
L 379.284297 265.248 
L 379.340776 265.248 
L 379.453735 280.368 
L 379.623173 280.368 
L 379.657061 295.488 
L 379.724836 280.368 
L 379.803907 280.368 
L 379.826499 265.248 
L 379.882978 295.488 
L 379.894274 295.488 
L 379.928161 295.488 
L 379.973345 280.368 
L 380.029824 295.488 
L 380.176671 295.488 
L 380.300925 265.248 
L 380.3687 265.248 
L 380.481659 280.368 
L 380.504251 280.368 
L 380.617209 295.488 
L 381.317553 295.488 
L 381.430512 280.368 
L 381.588654 280.368 
L 381.701613 295.488 
L 381.859755 295.488 
L 381.972714 280.368 
L 382.006601 280.368 
L 382.096968 295.488 
L 382.108264 280.368 
L 382.176039 280.368 
L 382.277702 295.488 
L 382.334181 280.368 
L 382.379365 295.488 
L 382.627874 295.488 
L 382.740833 280.368 
L 382.763424 280.368 
L 382.876383 295.488 
L 383.226555 295.488 
L 383.339514 280.368 
L 383.350809 280.368 
L 383.463768 295.488 
L 383.689685 295.488 
L 383.802644 280.368 
L 383.960786 280.368 
L 384.073745 295.488 
L 384.198 295.488 
L 384.310958 280.368 
L 384.378733 280.368 
L 384.491692 295.488 
L 385.101669 295.488 
L 385.214628 280.368 
L 385.259811 280.368 
L 385.293699 265.248 
L 385.361474 280.368 
L 385.542208 280.368 
L 385.655167 295.488 
L 386.9316 295.488 
L 387.044558 280.368 
L 387.06715 280.368 
L 387.180109 295.488 
L 387.315659 295.488 
L 387.39473 280.368 
L 387.417322 295.488 
L 387.473801 295.488 
L 387.58676 280.368 
L 387.711015 280.368 
L 387.77879 295.488 
L 387.812677 280.368 
L 387.925636 265.248 
L 388.061186 265.248 
L 388.174145 250.128 
L 388.490429 250.128 
L 388.614684 280.368 
L 388.648572 280.368 
L 388.705051 265.248 
L 388.750234 280.368 
L 389.066519 280.368 
L 389.168182 295.488 
L 389.190773 280.368 
L 389.269844 295.488 
L 389.540945 295.488 
L 389.6652 265.248 
L 389.891117 265.248 
L 390.004076 280.368 
L 390.071851 280.368 
L 390.12833 295.488 
L 390.173514 280.368 
L 390.625349 280.368 
L 390.636644 295.488 
L 390.727011 280.368 
L 390.851266 280.368 
L 390.964225 265.248 
L 391.257917 265.248 
L 391.269213 250.128 
L 391.35958 265.248 
L 391.630681 265.248 
L 391.698456 250.128 
L 391.732344 265.248 
L 392.048628 265.248 
L 392.172882 295.488 
L 392.895818 295.488 
L 393.020073 265.248 
L 393.133031 280.368 
L 393.189511 280.368 
L 393.302469 295.488 
L 393.494499 295.488 
L 393.607458 280.368 
L 393.652641 280.368 
L 393.720416 295.488 
L 393.754304 280.368 
L 393.833375 280.368 
L 393.889854 295.488 
L 393.935038 280.368 
L 393.991517 280.368 
L 394.104476 295.488 
L 394.206139 295.488 
L 394.319097 280.368 
L 394.352985 280.368 
L 394.375577 265.248 
L 394.432056 295.488 
L 394.443352 295.488 
L 395.008145 295.488 
L 395.121104 280.368 
L 395.154992 280.368 
L 395.26795 265.248 
L 395.426092 265.248 
L 395.45998 250.128 
L 395.482572 280.368 
L 395.505164 280.368 
L 395.618122 295.488 
L 396.194212 295.488 
L 396.30717 280.368 
L 396.431425 280.368 
L 396.555679 250.128 
L 396.713821 250.128 
L 396.849372 295.488 
L 397.176952 295.488 
L 397.301207 265.248 
L 397.414165 280.368 
L 397.425461 280.368 
L 397.549716 250.128 
L 397.561012 250.128 
L 397.685266 280.368 
L 397.888592 280.368 
L 398.00155 295.488 
L 398.012846 295.488 
L 398.103213 280.368 
L 398.114509 295.488 
L 398.340426 295.488 
L 398.453385 280.368 
L 398.475977 280.368 
L 398.487273 295.488 
L 398.487273 295.488 
" clip-path="url(#p46bcbb3355)" style="fill: none; stroke: #1f77b4; stroke-width: 1.5; stroke-linecap: square"/>
   </g>
   <g id="patch_3">
    <path d="M 57.6 307.584 
L 57.6 41.472 
" style="fill: none; stroke: #000000; stroke-width: 0.8; stroke-linejoin: miter; stroke-linecap: square"/>
   </g>
   <g id="patch_4">
    <path d="M 414.72 307.584 
L 414.72 41.472 
" style="fill: none; stroke: #000000; stroke-width: 0.8; stroke-linejoin: miter; stroke-linecap: square"/>
   </g>
   <g id="patch_5">
    <path d="M 57.6 307.584 
L 414.72 307.584 
" style="fill: none; stroke: #000000; stroke-width: 0.8; stroke-linejoin: miter; stroke-linecap: square"/>
   </g>
   <g id="patch_6">
    <path d="M 57.6 41.472 
L 414.72 41.472 
" style="fill: none; stroke: #000000; stroke-width: 0.8; stroke-linejoin: miter; stroke-linecap: square"/>
   </g>
  </g>
 </g>
 <defs>
  <clipPath id="p46bcbb3355">
   <rect x="57.6" y="41.472" width="357.12" height="266.112"/>
  </clipPath>
 </defs>
</svg>
