<?xml version="1.0" encoding="utf-8" standalone="no"?>
<!DOCTYPE svg PUBLIC "-//W3C//DTD SVG 1.1//EN"
  "http://www.w3.org/Graphics/SVG/1.1/DTD/svg11.dtd">
<svg xmlns:xlink="http://www.w3.org/1999/xlink" width="360pt" height="432pt" viewBox="0 0 360 432" xmlns="http://www.w3.org/2000/svg" version="1.1">
 <metadata>
  <rdf:RDF xmlns:dc="http://purl.org/dc/elements/1.1/" xmlns:cc="http://creativecommons.org/ns#" xmlns:rdf="http://www.w3.org/1999/02/22-rdf-syntax-ns#">
   <cc:Work>
    <dc:type rdf:resource="http://purl.org/dc/dcmitype/StillImage"/>
    <dc:date>2022-11-10T15:29:12.015153</dc:date>
    <dc:format>image/svg+xml</dc:format>
    <dc:creator>
     <cc:Agent>
      <dc:title>Matplotlib v3.6.2, https://matplotlib.org/</dc:title>
     </cc:Agent>
    </dc:creator>
   </cc:Work>
  </rdf:RDF>
 </metadata>
 <defs>
  <style type="text/css">*{stroke-linejoin: round; stroke-linecap: butt}</style>
 </defs>
 <g id="figure_1">
  <g id="patch_1">
   <path d="M 0 432 
L 360 432 
L 360 0 
L 0 0 
z
" style="fill: #ffffff"/>
  </g>
  <g id="patch_2">
   <path d="M 45 357.66 
L 324 357.66 
L 324 78.66 
L 45 78.66 
z
" style="fill: #ffffff"/>
  </g>
  <g id="pane3d_1">
   <g id="patch_3">
    <path d="M 255.545078 201.937624 
L 294.753296 119.370239 
L 299.308548 243.742403 
L 258.133593 316.978283 
" style="fill: #f2f2f2; opacity: 0.5; stroke: #f2f2f2; stroke-linejoin: miter"/>
   </g>
  </g>
  <g id="pane3d_2">
   <g id="patch_4">
    <path d="M 90.42445 188.524448 
L 255.545078 201.937624 
L 258.133593 316.978283 
L 86.591511 305.122162 
" style="fill: #e6e6e6; opacity: 0.5; stroke: #e6e6e6; stroke-linejoin: miter"/>
   </g>
  </g>
  <g id="pane3d_3">
   <g id="patch_5">
    <path d="M 90.42445 188.524448 
L 255.545078 201.937624 
L 294.753296 119.370239 
L 112.342094 102.895436 
" style="fill: #ececec; opacity: 0.5; stroke: #ececec; stroke-linejoin: miter"/>
   </g>
  </g>
  <g id="axis3d_1">
   <g id="line2d_1">
    <path d="M 294.753296 119.370239 
L 112.342094 102.895436 
" style="fill: none; stroke: #000000; stroke-width: 0.8; stroke-linecap: square"/>
   </g>
   <g id="text_1">
    <!-- Potencia [MW] -->
    <g transform="translate(174.078783 73.601773) rotate(-354.839228) scale(0.1 -0.1)">
     <defs>
      <path id="DejaVuSans-50" d="M 1259 4147 
L 1259 2394 
L 2053 2394 
Q 2494 2394 2734 2622 
Q 2975 2850 2975 3272 
Q 2975 3691 2734 3919 
Q 2494 4147 2053 4147 
L 1259 4147 
z
M 628 4666 
L 2053 4666 
Q 2838 4666 3239 4311 
Q 3641 3956 3641 3272 
Q 3641 2581 3239 2228 
Q 2838 1875 2053 1875 
L 1259 1875 
L 1259 0 
L 628 0 
L 628 4666 
z
" transform="scale(0.015625)"/>
      <path id="DejaVuSans-6f" d="M 1959 3097 
Q 1497 3097 1228 2736 
Q 959 2375 959 1747 
Q 959 1119 1226 758 
Q 1494 397 1959 397 
Q 2419 397 2687 759 
Q 2956 1122 2956 1747 
Q 2956 2369 2687 2733 
Q 2419 3097 1959 3097 
z
M 1959 3584 
Q 2709 3584 3137 3096 
Q 3566 2609 3566 1747 
Q 3566 888 3137 398 
Q 2709 -91 1959 -91 
Q 1206 -91 779 398 
Q 353 888 353 1747 
Q 353 2609 779 3096 
Q 1206 3584 1959 3584 
z
" transform="scale(0.015625)"/>
      <path id="DejaVuSans-74" d="M 1172 4494 
L 1172 3500 
L 2356 3500 
L 2356 3053 
L 1172 3053 
L 1172 1153 
Q 1172 725 1289 603 
Q 1406 481 1766 481 
L 2356 481 
L 2356 0 
L 1766 0 
Q 1100 0 847 248 
Q 594 497 594 1153 
L 594 3053 
L 172 3053 
L 172 3500 
L 594 3500 
L 594 4494 
L 1172 4494 
z
" transform="scale(0.015625)"/>
      <path id="DejaVuSans-65" d="M 3597 1894 
L 3597 1613 
L 953 1613 
Q 991 1019 1311 708 
Q 1631 397 2203 397 
Q 2534 397 2845 478 
Q 3156 559 3463 722 
L 3463 178 
Q 3153 47 2828 -22 
Q 2503 -91 2169 -91 
Q 1331 -91 842 396 
Q 353 884 353 1716 
Q 353 2575 817 3079 
Q 1281 3584 2069 3584 
Q 2775 3584 3186 3129 
Q 3597 2675 3597 1894 
z
M 3022 2063 
Q 3016 2534 2758 2815 
Q 2500 3097 2075 3097 
Q 1594 3097 1305 2825 
Q 1016 2553 972 2059 
L 3022 2063 
z
" transform="scale(0.015625)"/>
      <path id="DejaVuSans-6e" d="M 3513 2113 
L 3513 0 
L 2938 0 
L 2938 2094 
Q 2938 2591 2744 2837 
Q 2550 3084 2163 3084 
Q 1697 3084 1428 2787 
Q 1159 2491 1159 1978 
L 1159 0 
L 581 0 
L 581 3500 
L 1159 3500 
L 1159 2956 
Q 1366 3272 1645 3428 
Q 1925 3584 2291 3584 
Q 2894 3584 3203 3211 
Q 3513 2838 3513 2113 
z
" transform="scale(0.015625)"/>
      <path id="DejaVuSans-63" d="M 3122 3366 
L 3122 2828 
Q 2878 2963 2633 3030 
Q 2388 3097 2138 3097 
Q 1578 3097 1268 2742 
Q 959 2388 959 1747 
Q 959 1106 1268 751 
Q 1578 397 2138 397 
Q 2388 397 2633 464 
Q 2878 531 3122 666 
L 3122 134 
Q 2881 22 2623 -34 
Q 2366 -91 2075 -91 
Q 1284 -91 818 406 
Q 353 903 353 1747 
Q 353 2603 823 3093 
Q 1294 3584 2113 3584 
Q 2378 3584 2631 3529 
Q 2884 3475 3122 3366 
z
" transform="scale(0.015625)"/>
      <path id="DejaVuSans-69" d="M 603 3500 
L 1178 3500 
L 1178 0 
L 603 0 
L 603 3500 
z
M 603 4863 
L 1178 4863 
L 1178 4134 
L 603 4134 
L 603 4863 
z
" transform="scale(0.015625)"/>
      <path id="DejaVuSans-61" d="M 2194 1759 
Q 1497 1759 1228 1600 
Q 959 1441 959 1056 
Q 959 750 1161 570 
Q 1363 391 1709 391 
Q 2188 391 2477 730 
Q 2766 1069 2766 1631 
L 2766 1759 
L 2194 1759 
z
M 3341 1997 
L 3341 0 
L 2766 0 
L 2766 531 
Q 2569 213 2275 61 
Q 1981 -91 1556 -91 
Q 1019 -91 701 211 
Q 384 513 384 1019 
Q 384 1609 779 1909 
Q 1175 2209 1959 2209 
L 2766 2209 
L 2766 2266 
Q 2766 2663 2505 2880 
Q 2244 3097 1772 3097 
Q 1472 3097 1187 3025 
Q 903 2953 641 2809 
L 641 3341 
Q 956 3463 1253 3523 
Q 1550 3584 1831 3584 
Q 2591 3584 2966 3190 
Q 3341 2797 3341 1997 
z
" transform="scale(0.015625)"/>
      <path id="DejaVuSans-20" transform="scale(0.015625)"/>
      <path id="DejaVuSans-5b" d="M 550 4863 
L 1875 4863 
L 1875 4416 
L 1125 4416 
L 1125 -397 
L 1875 -397 
L 1875 -844 
L 550 -844 
L 550 4863 
z
" transform="scale(0.015625)"/>
      <path id="DejaVuSans-4d" d="M 628 4666 
L 1569 4666 
L 2759 1491 
L 3956 4666 
L 4897 4666 
L 4897 0 
L 4281 0 
L 4281 4097 
L 3078 897 
L 2444 897 
L 1241 4097 
L 1241 0 
L 628 0 
L 628 4666 
z
" transform="scale(0.015625)"/>
      <path id="DejaVuSans-57" d="M 213 4666 
L 850 4666 
L 1831 722 
L 2809 4666 
L 3519 4666 
L 4500 722 
L 5478 4666 
L 6119 4666 
L 4947 0 
L 4153 0 
L 3169 4050 
L 2175 0 
L 1381 0 
L 213 4666 
z
" transform="scale(0.015625)"/>
      <path id="DejaVuSans-5d" d="M 1947 4863 
L 1947 -844 
L 622 -844 
L 622 -397 
L 1369 -397 
L 1369 4416 
L 622 4416 
L 622 4863 
L 1947 4863 
z
" transform="scale(0.015625)"/>
     </defs>
     <use xlink:href="#DejaVuSans-50"/>
     <use xlink:href="#DejaVuSans-6f" x="56.677734"/>
     <use xlink:href="#DejaVuSans-74" x="117.859375"/>
     <use xlink:href="#DejaVuSans-65" x="157.068359"/>
     <use xlink:href="#DejaVuSans-6e" x="218.591797"/>
     <use xlink:href="#DejaVuSans-63" x="281.970703"/>
     <use xlink:href="#DejaVuSans-69" x="336.951172"/>
     <use xlink:href="#DejaVuSans-61" x="364.734375"/>
     <use xlink:href="#DejaVuSans-20" x="426.013672"/>
     <use xlink:href="#DejaVuSans-5b" x="457.800781"/>
     <use xlink:href="#DejaVuSans-4d" x="496.814453"/>
     <use xlink:href="#DejaVuSans-57" x="583.09375"/>
     <use xlink:href="#DejaVuSans-5d" x="681.970703"/>
    </g>
   </g>
   <g id="Line3DCollection_1">
    <path d="M 134.939297 104.936344 
L 110.846203 190.18336 
L 107.819924 306.589363 
" style="fill: none; stroke: #b0b0b0; stroke-width: 0.8"/>
    <path d="M 156.425791 106.876936 
L 130.272946 191.761444 
L 128.010757 307.984851 
" style="fill: none; stroke: #b0b0b0; stroke-width: 0.8"/>
    <path d="M 177.816314 108.808861 
L 149.621416 193.33317 
L 148.117069 309.374497 
" style="fill: none; stroke: #b0b0b0; stroke-width: 0.8"/>
    <path d="M 199.111508 110.732175 
L 168.892083 194.898577 
L 168.139393 310.758339 
" style="fill: none; stroke: #b0b0b0; stroke-width: 0.8"/>
    <path d="M 220.312007 112.646937 
L 188.085417 196.457701 
L 188.078252 312.136412 
" style="fill: none; stroke: #b0b0b0; stroke-width: 0.8"/>
    <path d="M 241.418442 114.553204 
L 207.201882 198.010581 
L 207.934167 313.508753 
" style="fill: none; stroke: #b0b0b0; stroke-width: 0.8"/>
    <path d="M 262.431438 116.451031 
L 226.241939 199.557254 
L 227.707655 314.875396 
" style="fill: none; stroke: #b0b0b0; stroke-width: 0.8"/>
    <path d="M 283.351614 118.340475 
L 245.206045 201.097757 
L 247.399229 316.236378 
" style="fill: none; stroke: #b0b0b0; stroke-width: 0.8"/>
   </g>
   <g id="xtick_1">
    <g id="line2d_2">
     <path d="M 134.72572 105.692028 
L 135.36757 103.421013 
" style="fill: none; stroke: #000000; stroke-width: 0.8; stroke-linecap: square"/>
    </g>
    <g id="text_2">
     <!-- 600 -->
     <g transform="translate(127.69854 95.410289) scale(0.1 -0.1)">
      <defs>
       <path id="DejaVuSans-36" d="M 2113 2584 
Q 1688 2584 1439 2293 
Q 1191 2003 1191 1497 
Q 1191 994 1439 701 
Q 1688 409 2113 409 
Q 2538 409 2786 701 
Q 3034 994 3034 1497 
Q 3034 2003 2786 2293 
Q 2538 2584 2113 2584 
z
M 3366 4563 
L 3366 3988 
Q 3128 4100 2886 4159 
Q 2644 4219 2406 4219 
Q 1781 4219 1451 3797 
Q 1122 3375 1075 2522 
Q 1259 2794 1537 2939 
Q 1816 3084 2150 3084 
Q 2853 3084 3261 2657 
Q 3669 2231 3669 1497 
Q 3669 778 3244 343 
Q 2819 -91 2113 -91 
Q 1303 -91 875 529 
Q 447 1150 447 2328 
Q 447 3434 972 4092 
Q 1497 4750 2381 4750 
Q 2619 4750 2861 4703 
Q 3103 4656 3366 4563 
z
" transform="scale(0.015625)"/>
       <path id="DejaVuSans-30" d="M 2034 4250 
Q 1547 4250 1301 3770 
Q 1056 3291 1056 2328 
Q 1056 1369 1301 889 
Q 1547 409 2034 409 
Q 2525 409 2770 889 
Q 3016 1369 3016 2328 
Q 3016 3291 2770 3770 
Q 2525 4250 2034 4250 
z
M 2034 4750 
Q 2819 4750 3233 4129 
Q 3647 3509 3647 2328 
Q 3647 1150 3233 529 
Q 2819 -91 2034 -91 
Q 1250 -91 836 529 
Q 422 1150 422 2328 
Q 422 3509 836 4129 
Q 1250 4750 2034 4750 
z
" transform="scale(0.015625)"/>
      </defs>
      <use xlink:href="#DejaVuSans-36"/>
      <use xlink:href="#DejaVuSans-30" x="63.623047"/>
      <use xlink:href="#DejaVuSans-30" x="127.246094"/>
     </g>
    </g>
   </g>
   <g id="xtick_2">
    <g id="line2d_3">
     <path d="M 156.194006 107.629242 
L 156.890574 105.368387 
" style="fill: none; stroke: #000000; stroke-width: 0.8; stroke-linecap: square"/>
    </g>
    <g id="text_3">
     <!-- 800 -->
     <g transform="translate(149.294693 97.399788) scale(0.1 -0.1)">
      <defs>
       <path id="DejaVuSans-38" d="M 2034 2216 
Q 1584 2216 1326 1975 
Q 1069 1734 1069 1313 
Q 1069 891 1326 650 
Q 1584 409 2034 409 
Q 2484 409 2743 651 
Q 3003 894 3003 1313 
Q 3003 1734 2745 1975 
Q 2488 2216 2034 2216 
z
M 1403 2484 
Q 997 2584 770 2862 
Q 544 3141 544 3541 
Q 544 4100 942 4425 
Q 1341 4750 2034 4750 
Q 2731 4750 3128 4425 
Q 3525 4100 3525 3541 
Q 3525 3141 3298 2862 
Q 3072 2584 2669 2484 
Q 3125 2378 3379 2068 
Q 3634 1759 3634 1313 
Q 3634 634 3220 271 
Q 2806 -91 2034 -91 
Q 1263 -91 848 271 
Q 434 634 434 1313 
Q 434 1759 690 2068 
Q 947 2378 1403 2484 
z
M 1172 3481 
Q 1172 3119 1398 2916 
Q 1625 2713 2034 2713 
Q 2441 2713 2670 2916 
Q 2900 3119 2900 3481 
Q 2900 3844 2670 4047 
Q 2441 4250 2034 4250 
Q 1625 4250 1398 4047 
Q 1172 3844 1172 3481 
z
" transform="scale(0.015625)"/>
      </defs>
      <use xlink:href="#DejaVuSans-38"/>
      <use xlink:href="#DejaVuSans-30" x="63.623047"/>
      <use xlink:href="#DejaVuSans-30" x="127.246094"/>
     </g>
    </g>
   </g>
   <g id="xtick_3">
    <g id="line2d_4">
     <path d="M 177.566486 109.557812 
L 178.317276 107.307048 
" style="fill: none; stroke: #000000; stroke-width: 0.8; stroke-linecap: square"/>
    </g>
    <g id="text_4">
     <!-- 1000 -->
     <g transform="translate(167.612621 99.380353) scale(0.1 -0.1)">
      <defs>
       <path id="DejaVuSans-31" d="M 794 531 
L 1825 531 
L 1825 4091 
L 703 3866 
L 703 4441 
L 1819 4666 
L 2450 4666 
L 2450 531 
L 3481 531 
L 3481 0 
L 794 0 
L 794 531 
z
" transform="scale(0.015625)"/>
      </defs>
      <use xlink:href="#DejaVuSans-31"/>
      <use xlink:href="#DejaVuSans-30" x="63.623047"/>
      <use xlink:href="#DejaVuSans-30" x="127.246094"/>
      <use xlink:href="#DejaVuSans-30" x="190.869141"/>
     </g>
    </g>
   </g>
   <g id="xtick_4">
    <g id="line2d_5">
     <path d="M 198.843798 111.477794 
L 199.648321 109.237054 
" style="fill: none; stroke: #000000; stroke-width: 0.8; stroke-linecap: square"/>
    </g>
    <g id="text_5">
     <!-- 1200 -->
     <g transform="translate(189.015474 101.352045) scale(0.1 -0.1)">
      <defs>
       <path id="DejaVuSans-32" d="M 1228 531 
L 3431 531 
L 3431 0 
L 469 0 
L 469 531 
Q 828 903 1448 1529 
Q 2069 2156 2228 2338 
Q 2531 2678 2651 2914 
Q 2772 3150 2772 3378 
Q 2772 3750 2511 3984 
Q 2250 4219 1831 4219 
Q 1534 4219 1204 4116 
Q 875 4013 500 3803 
L 500 4441 
Q 881 4594 1212 4672 
Q 1544 4750 1819 4750 
Q 2544 4750 2975 4387 
Q 3406 4025 3406 3419 
Q 3406 3131 3298 2873 
Q 3191 2616 2906 2266 
Q 2828 2175 2409 1742 
Q 1991 1309 1228 531 
z
" transform="scale(0.015625)"/>
      </defs>
      <use xlink:href="#DejaVuSans-31"/>
      <use xlink:href="#DejaVuSans-32" x="63.623047"/>
      <use xlink:href="#DejaVuSans-30" x="127.246094"/>
      <use xlink:href="#DejaVuSans-30" x="190.869141"/>
     </g>
    </g>
   </g>
   <g id="xtick_5">
    <g id="line2d_6">
     <path d="M 220.026577 113.389245 
L 220.884349 111.158463 
" style="fill: none; stroke: #000000; stroke-width: 0.8; stroke-linecap: square"/>
    </g>
    <g id="text_6">
     <!-- 1400 -->
     <g transform="translate(210.32265 103.314922) scale(0.1 -0.1)">
      <defs>
       <path id="DejaVuSans-34" d="M 2419 4116 
L 825 1625 
L 2419 1625 
L 2419 4116 
z
M 2253 4666 
L 3047 4666 
L 3047 1625 
L 3713 1625 
L 3713 1100 
L 3047 1100 
L 3047 0 
L 2419 0 
L 2419 1100 
L 313 1100 
L 313 1709 
L 2253 4666 
z
" transform="scale(0.015625)"/>
      </defs>
      <use xlink:href="#DejaVuSans-31"/>
      <use xlink:href="#DejaVuSans-34" x="63.623047"/>
      <use xlink:href="#DejaVuSans-30" x="127.246094"/>
      <use xlink:href="#DejaVuSans-30" x="190.869141"/>
     </g>
    </g>
   </g>
   <g id="xtick_6">
    <g id="line2d_7">
     <path d="M 241.115452 115.292224 
L 242.025992 113.071332 
" style="fill: none; stroke: #000000; stroke-width: 0.8; stroke-linecap: square"/>
    </g>
    <g id="text_7">
     <!-- 1600 -->
     <g transform="translate(231.534788 105.269045) scale(0.1 -0.1)">
      <use xlink:href="#DejaVuSans-31"/>
      <use xlink:href="#DejaVuSans-36" x="63.623047"/>
      <use xlink:href="#DejaVuSans-30" x="127.246094"/>
      <use xlink:href="#DejaVuSans-30" x="190.869141"/>
     </g>
    </g>
   </g>
   <g id="xtick_7">
    <g id="line2d_8">
     <path d="M 262.111047 117.186784 
L 263.073879 114.975718 
" style="fill: none; stroke: #000000; stroke-width: 0.8; stroke-linecap: square"/>
    </g>
    <g id="text_8">
     <!-- 1800 -->
     <g transform="translate(252.652522 107.21447) scale(0.1 -0.1)">
      <use xlink:href="#DejaVuSans-31"/>
      <use xlink:href="#DejaVuSans-38" x="63.623047"/>
      <use xlink:href="#DejaVuSans-30" x="127.246094"/>
      <use xlink:href="#DejaVuSans-30" x="190.869141"/>
     </g>
    </g>
   </g>
   <g id="xtick_8">
    <g id="line2d_9">
     <path d="M 283.013977 119.072983 
L 284.028632 116.871678 
" style="fill: none; stroke: #000000; stroke-width: 0.8; stroke-linecap: square"/>
    </g>
    <g id="text_9">
     <!-- 2000 -->
     <g transform="translate(273.676482 109.151257) scale(0.1 -0.1)">
      <use xlink:href="#DejaVuSans-32"/>
      <use xlink:href="#DejaVuSans-30" x="63.623047"/>
      <use xlink:href="#DejaVuSans-30" x="127.246094"/>
      <use xlink:href="#DejaVuSans-30" x="190.869141"/>
     </g>
    </g>
   </g>
  </g>
  <g id="axis3d_2">
   <g id="line2d_10">
    <path d="M 90.42445 188.524448 
L 112.342094 102.895436 
" style="fill: none; stroke: #000000; stroke-width: 0.8; stroke-linecap: square"/>
   </g>
   <g id="text_10">
    <!-- $f_{P}$(p, t) -->
    <g transform="translate(69.787776 141.811189) rotate(-75.642788) scale(0.1 -0.1)">
     <defs>
      <path id="DejaVuSans-Oblique-66" d="M 3059 4863 
L 2969 4384 
L 2419 4384 
Q 2106 4384 1964 4261 
Q 1822 4138 1753 3809 
L 1691 3500 
L 2638 3500 
L 2553 3053 
L 1606 3053 
L 1013 0 
L 434 0 
L 1031 3053 
L 481 3053 
L 563 3500 
L 1113 3500 
L 1159 3744 
Q 1278 4363 1576 4613 
Q 1875 4863 2516 4863 
L 3059 4863 
z
" transform="scale(0.015625)"/>
      <path id="DejaVuSans-Oblique-50" d="M 1081 4666 
L 2541 4666 
Q 3178 4666 3512 4369 
Q 3847 4072 3847 3500 
Q 3847 2731 3353 2303 
Q 2859 1875 1966 1875 
L 1172 1875 
L 806 0 
L 172 0 
L 1081 4666 
z
M 1613 4147 
L 1275 2394 
L 2069 2394 
Q 2606 2394 2893 2669 
Q 3181 2944 3181 3456 
Q 3181 3784 2986 3965 
Q 2791 4147 2438 4147 
L 1613 4147 
z
" transform="scale(0.015625)"/>
      <path id="DejaVuSans-28" d="M 1984 4856 
Q 1566 4138 1362 3434 
Q 1159 2731 1159 2009 
Q 1159 1288 1364 580 
Q 1569 -128 1984 -844 
L 1484 -844 
Q 1016 -109 783 600 
Q 550 1309 550 2009 
Q 550 2706 781 3412 
Q 1013 4119 1484 4856 
L 1984 4856 
z
" transform="scale(0.015625)"/>
      <path id="DejaVuSans-70" d="M 1159 525 
L 1159 -1331 
L 581 -1331 
L 581 3500 
L 1159 3500 
L 1159 2969 
Q 1341 3281 1617 3432 
Q 1894 3584 2278 3584 
Q 2916 3584 3314 3078 
Q 3713 2572 3713 1747 
Q 3713 922 3314 415 
Q 2916 -91 2278 -91 
Q 1894 -91 1617 61 
Q 1341 213 1159 525 
z
M 3116 1747 
Q 3116 2381 2855 2742 
Q 2594 3103 2138 3103 
Q 1681 3103 1420 2742 
Q 1159 2381 1159 1747 
Q 1159 1113 1420 752 
Q 1681 391 2138 391 
Q 2594 391 2855 752 
Q 3116 1113 3116 1747 
z
" transform="scale(0.015625)"/>
      <path id="DejaVuSans-2c" d="M 750 794 
L 1409 794 
L 1409 256 
L 897 -744 
L 494 -744 
L 750 256 
L 750 794 
z
" transform="scale(0.015625)"/>
      <path id="DejaVuSans-29" d="M 513 4856 
L 1013 4856 
Q 1481 4119 1714 3412 
Q 1947 2706 1947 2009 
Q 1947 1309 1714 600 
Q 1481 -109 1013 -844 
L 513 -844 
Q 928 -128 1133 580 
Q 1338 1288 1338 2009 
Q 1338 2731 1133 3434 
Q 928 4138 513 4856 
z
" transform="scale(0.015625)"/>
     </defs>
     <use xlink:href="#DejaVuSans-Oblique-66" transform="translate(0 0.015625)"/>
     <use xlink:href="#DejaVuSans-Oblique-50" transform="translate(35.205078 -16.390625) scale(0.7)"/>
     <use xlink:href="#DejaVuSans-28" transform="translate(80.151367 0.015625)"/>
     <use xlink:href="#DejaVuSans-70" transform="translate(119.165039 0.015625)"/>
     <use xlink:href="#DejaVuSans-2c" transform="translate(182.641602 0.015625)"/>
     <use xlink:href="#DejaVuSans-20" transform="translate(214.428711 0.015625)"/>
     <use xlink:href="#DejaVuSans-74" transform="translate(246.21582 0.015625)"/>
     <use xlink:href="#DejaVuSans-29" transform="translate(285.424805 0.015625)"/>
    </g>
   </g>
   <g id="Line3DCollection_2">
    <path d="M 260.505475 312.759533 
L 257.812482 197.162767 
L 91.689712 183.581253 
" style="fill: none; stroke: #b0b0b0; stroke-width: 0.8"/>
    <path d="M 268.565907 298.422837 
L 265.509785 180.953253 
L 95.98702 166.792303 
" style="fill: none; stroke: #b0b0b0; stroke-width: 0.8"/>
    <path d="M 276.984755 283.448642 
L 273.536052 164.050983 
L 100.471344 149.272708 
" style="fill: none; stroke: #b0b0b0; stroke-width: 0.8"/>
    <path d="M 285.78647 267.793461 
L 281.912833 146.410577 
L 105.155165 130.973711 
" style="fill: none; stroke: #b0b0b0; stroke-width: 0.8"/>
    <path d="M 294.997777 251.40976 
L 290.6636 127.982603 
L 110.052096 111.842118 
" style="fill: none; stroke: #b0b0b0; stroke-width: 0.8"/>
   </g>
   <g id="xtick_9">
    <g id="line2d_11">
     <path d="M 93.041801 183.691794 
L 88.984396 183.360077 
" style="fill: none; stroke: #000000; stroke-width: 0.8; stroke-linecap: square"/>
    </g>
    <g id="text_11">
     <!-- 0.0000 -->
     <g transform="translate(61.128063 181.181294) scale(0.1 -0.1)">
      <defs>
       <path id="DejaVuSans-2e" d="M 684 794 
L 1344 794 
L 1344 0 
L 684 0 
L 684 794 
z
" transform="scale(0.015625)"/>
      </defs>
      <use xlink:href="#DejaVuSans-30"/>
      <use xlink:href="#DejaVuSans-2e" x="63.623047"/>
      <use xlink:href="#DejaVuSans-30" x="95.410156"/>
      <use xlink:href="#DejaVuSans-30" x="159.033203"/>
      <use xlink:href="#DejaVuSans-30" x="222.65625"/>
      <use xlink:href="#DejaVuSans-30" x="286.279297"/>
     </g>
    </g>
   </g>
   <g id="xtick_10">
    <g id="line2d_12">
     <path d="M 97.367284 166.907602 
L 93.225305 166.561605 
" style="fill: none; stroke: #000000; stroke-width: 0.8; stroke-linecap: square"/>
    </g>
    <g id="text_12">
     <!-- 0.0001 -->
     <g transform="translate(65.140489 164.207409) scale(0.1 -0.1)">
      <use xlink:href="#DejaVuSans-30"/>
      <use xlink:href="#DejaVuSans-2e" x="63.623047"/>
      <use xlink:href="#DejaVuSans-30" x="95.410156"/>
      <use xlink:href="#DejaVuSans-30" x="159.033203"/>
      <use xlink:href="#DejaVuSans-30" x="222.65625"/>
      <use xlink:href="#DejaVuSans-31" x="286.279297"/>
     </g>
    </g>
   </g>
   <g id="xtick_11">
    <g id="line2d_13">
     <path d="M 101.880982 149.393079 
L 97.65083 149.031859 
" style="fill: none; stroke: #000000; stroke-width: 0.8; stroke-linecap: square"/>
    </g>
    <g id="text_13">
     <!-- 0.0002 -->
     <g transform="translate(69.32724 146.496073) scale(0.1 -0.1)">
      <use xlink:href="#DejaVuSans-30"/>
      <use xlink:href="#DejaVuSans-2e" x="63.623047"/>
      <use xlink:href="#DejaVuSans-30" x="95.410156"/>
      <use xlink:href="#DejaVuSans-30" x="159.033203"/>
      <use xlink:href="#DejaVuSans-30" x="222.65625"/>
      <use xlink:href="#DejaVuSans-32" x="286.279297"/>
     </g>
    </g>
   </g>
   <g id="xtick_12">
    <g id="line2d_14">
     <path d="M 106.595453 131.099496 
L 102.273295 130.722027 
" style="fill: none; stroke: #000000; stroke-width: 0.8; stroke-linecap: square"/>
    </g>
    <g id="text_14">
     <!-- 0.0003 -->
     <g transform="translate(73.699928 127.99816) scale(0.1 -0.1)">
      <defs>
       <path id="DejaVuSans-33" d="M 2597 2516 
Q 3050 2419 3304 2112 
Q 3559 1806 3559 1356 
Q 3559 666 3084 287 
Q 2609 -91 1734 -91 
Q 1441 -91 1130 -33 
Q 819 25 488 141 
L 488 750 
Q 750 597 1062 519 
Q 1375 441 1716 441 
Q 2309 441 2620 675 
Q 2931 909 2931 1356 
Q 2931 1769 2642 2001 
Q 2353 2234 1838 2234 
L 1294 2234 
L 1294 2753 
L 1863 2753 
Q 2328 2753 2575 2939 
Q 2822 3125 2822 3475 
Q 2822 3834 2567 4026 
Q 2313 4219 1838 4219 
Q 1578 4219 1281 4162 
Q 984 4106 628 3988 
L 628 4550 
Q 988 4650 1302 4700 
Q 1616 4750 1894 4750 
Q 2613 4750 3031 4423 
Q 3450 4097 3450 3541 
Q 3450 3153 3228 2886 
Q 3006 2619 2597 2516 
z
" transform="scale(0.015625)"/>
      </defs>
      <use xlink:href="#DejaVuSans-30"/>
      <use xlink:href="#DejaVuSans-2e" x="63.623047"/>
      <use xlink:href="#DejaVuSans-30" x="95.410156"/>
      <use xlink:href="#DejaVuSans-30" x="159.033203"/>
      <use xlink:href="#DejaVuSans-30" x="222.65625"/>
      <use xlink:href="#DejaVuSans-33" x="286.279297"/>
     </g>
    </g>
   </g>
   <g id="xtick_13">
    <g id="line2d_15">
     <path d="M 111.524397 111.973691 
L 107.106144 111.578851 
" style="fill: none; stroke: #000000; stroke-width: 0.8; stroke-linecap: square"/>
    </g>
    <g id="text_15">
     <!-- 0.0004 -->
     <g transform="translate(78.271222 108.660081) scale(0.1 -0.1)">
      <use xlink:href="#DejaVuSans-30"/>
      <use xlink:href="#DejaVuSans-2e" x="63.623047"/>
      <use xlink:href="#DejaVuSans-30" x="95.410156"/>
      <use xlink:href="#DejaVuSans-30" x="159.033203"/>
      <use xlink:href="#DejaVuSans-30" x="222.65625"/>
      <use xlink:href="#DejaVuSans-34" x="286.279297"/>
     </g>
    </g>
   </g>
  </g>
  <g id="axis3d_3">
   <g id="line2d_16">
    <path d="M 90.42445 188.524448 
L 86.591511 305.122162 
" style="fill: none; stroke: #000000; stroke-width: 0.8; stroke-linecap: square"/>
   </g>
   <g id="text_16">
    <!-- Tiempo [hr] -->
    <g transform="translate(57.909473 285.144654) rotate(-88.117183) scale(0.1 -0.1)">
     <defs>
      <path id="DejaVuSans-54" d="M -19 4666 
L 3928 4666 
L 3928 4134 
L 2272 4134 
L 2272 0 
L 1638 0 
L 1638 4134 
L -19 4134 
L -19 4666 
z
" transform="scale(0.015625)"/>
      <path id="DejaVuSans-6d" d="M 3328 2828 
Q 3544 3216 3844 3400 
Q 4144 3584 4550 3584 
Q 5097 3584 5394 3201 
Q 5691 2819 5691 2113 
L 5691 0 
L 5113 0 
L 5113 2094 
Q 5113 2597 4934 2840 
Q 4756 3084 4391 3084 
Q 3944 3084 3684 2787 
Q 3425 2491 3425 1978 
L 3425 0 
L 2847 0 
L 2847 2094 
Q 2847 2600 2669 2842 
Q 2491 3084 2119 3084 
Q 1678 3084 1418 2786 
Q 1159 2488 1159 1978 
L 1159 0 
L 581 0 
L 581 3500 
L 1159 3500 
L 1159 2956 
Q 1356 3278 1631 3431 
Q 1906 3584 2284 3584 
Q 2666 3584 2933 3390 
Q 3200 3197 3328 2828 
z
" transform="scale(0.015625)"/>
      <path id="DejaVuSans-68" d="M 3513 2113 
L 3513 0 
L 2938 0 
L 2938 2094 
Q 2938 2591 2744 2837 
Q 2550 3084 2163 3084 
Q 1697 3084 1428 2787 
Q 1159 2491 1159 1978 
L 1159 0 
L 581 0 
L 581 4863 
L 1159 4863 
L 1159 2956 
Q 1366 3272 1645 3428 
Q 1925 3584 2291 3584 
Q 2894 3584 3203 3211 
Q 3513 2838 3513 2113 
z
" transform="scale(0.015625)"/>
      <path id="DejaVuSans-72" d="M 2631 2963 
Q 2534 3019 2420 3045 
Q 2306 3072 2169 3072 
Q 1681 3072 1420 2755 
Q 1159 2438 1159 1844 
L 1159 0 
L 581 0 
L 581 3500 
L 1159 3500 
L 1159 2956 
Q 1341 3275 1631 3429 
Q 1922 3584 2338 3584 
Q 2397 3584 2469 3576 
Q 2541 3569 2628 3553 
L 2631 2963 
z
" transform="scale(0.015625)"/>
     </defs>
     <use xlink:href="#DejaVuSans-54"/>
     <use xlink:href="#DejaVuSans-69" x="57.958984"/>
     <use xlink:href="#DejaVuSans-65" x="85.742188"/>
     <use xlink:href="#DejaVuSans-6d" x="147.265625"/>
     <use xlink:href="#DejaVuSans-70" x="244.677734"/>
     <use xlink:href="#DejaVuSans-6f" x="308.154297"/>
     <use xlink:href="#DejaVuSans-20" x="369.335938"/>
     <use xlink:href="#DejaVuSans-5b" x="401.123047"/>
     <use xlink:href="#DejaVuSans-68" x="440.136719"/>
     <use xlink:href="#DejaVuSans-72" x="503.515625"/>
     <use xlink:href="#DejaVuSans-5d" x="544.628906"/>
    </g>
   </g>
   <g id="Line3DCollection_3">
    <path d="M 90.350625 190.770188 
L 255.594967 204.154832 
L 294.840735 121.757596 
" style="fill: none; stroke: #b0b0b0; stroke-width: 0.8"/>
    <path d="M 89.573582 214.407786 
L 256.119998 227.488638 
L 295.761786 146.90508 
" style="fill: none; stroke: #b0b0b0; stroke-width: 0.8"/>
    <path d="M 88.784107 238.423537 
L 256.653282 251.189241 
L 296.698897 172.491035 
" style="fill: none; stroke: #b0b0b0; stroke-width: 0.8"/>
    <path d="M 87.981901 262.826591 
L 257.195016 275.265359 
L 297.652491 198.52703 
" style="fill: none; stroke: #b0b0b0; stroke-width: 0.8"/>
    <path d="M 87.166653 287.626391 
L 257.745401 299.725987 
L 298.623006 225.025045 
" style="fill: none; stroke: #b0b0b0; stroke-width: 0.8"/>
   </g>
   <g id="xtick_14">
    <g id="line2d_17">
     <path d="M 91.695438 190.879117 
L 87.659874 190.55224 
" style="fill: none; stroke: #000000; stroke-width: 0.8; stroke-linecap: square"/>
    </g>
    <g id="text_17">
     <!-- 0 -->
     <g transform="translate(72.39466 203.354888) scale(0.1 -0.1)">
      <use xlink:href="#DejaVuSans-30"/>
     </g>
    </g>
   </g>
   <g id="xtick_15">
    <g id="line2d_18">
     <path d="M 90.929174 214.514257 
L 86.861253 214.194755 
" style="fill: none; stroke: #000000; stroke-width: 0.8; stroke-linecap: square"/>
    </g>
    <g id="text_18">
     <!-- 5 -->
     <g transform="translate(71.506126 226.879728) scale(0.1 -0.1)">
      <defs>
       <path id="DejaVuSans-35" d="M 691 4666 
L 3169 4666 
L 3169 4134 
L 1269 4134 
L 1269 2991 
Q 1406 3038 1543 3061 
Q 1681 3084 1819 3084 
Q 2600 3084 3056 2656 
Q 3513 2228 3513 1497 
Q 3513 744 3044 326 
Q 2575 -91 1722 -91 
Q 1428 -91 1123 -41 
Q 819 9 494 109 
L 494 744 
Q 775 591 1075 516 
Q 1375 441 1709 441 
Q 2250 441 2565 725 
Q 2881 1009 2881 1497 
Q 2881 1984 2565 2268 
Q 2250 2553 1709 2553 
Q 1456 2553 1204 2497 
Q 953 2441 691 2322 
L 691 4666 
z
" transform="scale(0.015625)"/>
      </defs>
      <use xlink:href="#DejaVuSans-35"/>
     </g>
    </g>
   </g>
   <g id="xtick_16">
    <g id="line2d_19">
     <path d="M 90.150653 238.527457 
L 86.049853 238.21561 
" style="fill: none; stroke: #000000; stroke-width: 0.8; stroke-linecap: square"/>
    </g>
    <g id="text_19">
     <!-- 10 -->
     <g transform="translate(67.422218 250.778478) scale(0.1 -0.1)">
      <use xlink:href="#DejaVuSans-31"/>
      <use xlink:href="#DejaVuSans-30" x="63.623047"/>
     </g>
    </g>
   </g>
   <g id="xtick_17">
    <g id="line2d_20">
     <path d="M 89.359579 262.927863 
L 85.225364 262.623959 
" style="fill: none; stroke: #000000; stroke-width: 0.8; stroke-linecap: square"/>
    </g>
    <g id="text_20">
     <!-- 15 -->
     <g transform="translate(66.505099 275.060123) scale(0.1 -0.1)">
      <use xlink:href="#DejaVuSans-31"/>
      <use xlink:href="#DejaVuSans-35" x="63.623047"/>
     </g>
    </g>
   </g>
   <g id="xtick_18">
    <g id="line2d_21">
     <path d="M 88.555646 287.724916 
L 84.387466 287.429256 
" style="fill: none; stroke: #000000; stroke-width: 0.8; stroke-linecap: square"/>
    </g>
    <g id="text_21">
     <!-- 20 -->
     <g transform="translate(65.573167 299.73394) scale(0.1 -0.1)">
      <use xlink:href="#DejaVuSans-32"/>
      <use xlink:href="#DejaVuSans-30" x="63.623047"/>
     </g>
    </g>
   </g>
  </g>
  <g id="axes_1">
   <g id="line2d_22">
    <path d="M 102.369403 186.713975 
L 103.857113 186.835229 
L 105.344368 186.956432 
L 106.83117 187.077575 
L 108.317522 187.198648 
L 109.80343 187.31963 
L 111.288904 187.440495 
L 112.773955 187.561197 
L 114.258605 187.681666 
L 115.742886 187.801796 
L 117.226849 187.921419 
L 118.710572 188.040278 
L 120.194177 188.157971 
L 121.677854 188.273876 
L 123.161903 188.387028 
L 124.646786 188.49593 
L 126.13323 188.598259 
L 127.622366 188.690411 
L 129.115962 188.766796 
L 130.616775 188.818737 
L 132.12911 188.832776 
L 133.659688 188.788032 
L 135.218994 188.652115 
L 136.823379 188.374816 
L 138.498309 187.878409 
L 140.283326 187.042934 
L 142.239439 185.684428 
L 144.459564 183.524528 
L 147.081414 180.153588 
L 150.29756 175.003786 
L 154.343128 167.391215 
L 159.407615 156.785997 
L 165.36976 143.605052 
L 171.317528 130.619723 
L 175.333437 123.526107 
L 175.668831 127.390947 
L 172.746049 140.786081 
L 168.848722 156.877146 
L 165.842879 170.196935 
L 164.263773 179.245514 
L 163.875464 184.772071 
L 164.279453 187.97368 
L 165.1573 189.793576 
L 166.303601 190.834913 
L 167.597693 191.449533 
L 168.971863 191.833654 
L 170.388986 192.094214 
L 171.828956 192.2888 
L 173.280954 192.448228 
L 174.739177 192.588934 
L 176.20052 192.719668 
L 177.663319 192.845084 
L 179.126689 192.967657 
L 180.590154 193.088703 
L 182.053461 193.208919 
L 183.516475 193.328678 
L 184.979124 193.448176 
L 186.44137 193.567519 
L 187.903191 193.686762 
L 189.364577 193.805936 
L 190.825523 193.925055 
L 192.286025 194.044128 
L 193.746082 194.163159 
L 195.205693 194.282152 
L 196.664859 194.401107 
L 198.123578 194.520024 
L 199.581851 194.638905 
L 201.039679 194.757749 
L 202.497061 194.876557 
L 203.953997 194.995328 
L 205.410488 195.114064 
L 206.866534 195.232762 
L 208.322135 195.351425 
L 209.777291 195.470051 
L 211.232003 195.588641 
L 212.686271 195.707195 
L 214.140094 195.825712 
L 215.593474 195.944194 
L 217.04641 196.062639 
L 218.498902 196.181048 
L 219.950951 196.299421 
L 221.402557 196.417758 
L 222.85372 196.536058 
L 224.304441 196.654323 
L 225.754719 196.772551 
L 227.204555 196.890744 
L 228.653949 197.0089 
L 230.1029 197.127021 
L 231.551411 197.245105 
L 232.999479 197.363154 
L 234.447107 197.481166 
L 235.894293 197.599143 
L 237.341039 197.717083 
L 238.787344 197.834988 
L 240.233209 197.952857 
L 241.678633 198.070689 
L 243.123617 198.188486 
L 244.568161 198.306247 
L 246.012266 198.423973 
L 247.455932 198.541662 
" clip-path="url(#pdd2f2600af)" style="fill: none; stroke: #008000; stroke-width: 1.5; stroke-linecap: square"/>
   </g>
   <g id="line2d_23">
    <path d="M 102.233234 191.429639 
L 103.72333 191.550333 
L 105.212973 191.67096 
L 106.702169 191.791504 
L 108.190925 191.911935 
L 109.679256 192.032209 
L 111.167183 192.152252 
L 112.654741 192.271948 
L 114.141985 192.39111 
L 115.629006 192.509436 
L 117.115949 192.626446 
L 118.603049 192.741363 
L 120.090686 192.852947 
L 121.579472 192.959203 
L 123.070396 193.056932 
L 124.565054 193.141001 
L 126.066027 193.203168 
L 127.577477 193.230209 
L 129.106131 193.200901 
L 130.662846 193.081189 
L 132.26514 192.816455 
L 133.941247 192.319216 
L 135.736538 191.449747 
L 137.723464 189.986324 
L 140.01614 187.581987 
L 142.789041 183.710081 
L 146.291754 177.623993 
L 150.827169 168.430906 
L 156.600175 155.559328 
L 163.272348 140.104569 
L 169.273278 126.862723 
L 171.987961 123.658553 
L 170.191956 133.976982 
L 165.847811 151.749467 
L 161.808424 168.416366 
L 159.36692 180.197256 
L 158.452921 187.381309 
L 158.582849 191.451434 
L 159.331083 193.689701 
L 160.421116 194.921121 
L 161.693625 195.617607 
L 163.06177 196.034721 
L 164.47949 196.307197 
L 165.922686 196.505117 
L 167.378836 196.664685 
L 168.841457 196.804539 
L 170.307199 196.934257 
L 171.774333 197.058757 
L 173.241968 197.180562 
L 174.709641 197.300967 
L 176.177116 197.420635 
L 177.644272 197.539909 
L 179.111044 197.658962 
L 180.577401 197.777884 
L 182.043325 197.896721 
L 183.508809 198.015497 
L 184.973848 198.134224 
L 186.43844 198.252908 
L 187.902584 198.371552 
L 189.36628 198.490158 
L 190.829528 198.608726 
L 192.292327 198.727258 
L 193.754678 198.845754 
L 195.21658 198.964212 
L 196.678035 199.082635 
L 198.139042 199.201021 
L 199.599602 199.319371 
L 201.059714 199.437685 
L 202.519379 199.555962 
L 203.978598 199.674204 
L 205.437369 199.792409 
L 206.895694 199.910578 
L 208.353573 200.02871 
L 209.811005 200.146807 
L 211.267992 200.264867 
L 212.724533 200.382892 
L 214.180629 200.50088 
L 215.636279 200.618832 
L 217.091484 200.736748 
L 218.546245 200.854628 
L 220.00056 200.972472 
L 221.454431 201.09028 
L 222.907858 201.208052 
L 224.360841 201.325788 
L 225.81338 201.443488 
L 227.265476 201.561152 
L 228.717128 201.678781 
L 230.168337 201.796373 
L 231.619102 201.913929 
L 233.069425 202.03145 
L 234.519305 202.148934 
L 235.968743 202.266383 
L 237.417739 202.383796 
L 238.866292 202.501173 
L 240.314404 202.618514 
L 241.762074 202.73582 
L 243.209303 202.85309 
L 244.656091 202.970324 
L 246.102437 203.087522 
L 247.548343 203.204684 
" clip-path="url(#pdd2f2600af)" style="fill: none; stroke: #008000; stroke-width: 1.5; stroke-linecap: square"/>
   </g>
   <g id="line2d_24">
    <path d="M 102.096622 196.160319 
L 103.589105 196.280471 
L 105.081134 196.400554 
L 106.572717 196.520546 
L 108.063863 196.640411 
L 109.554591 196.76009 
L 111.044929 196.879484 
L 112.534927 196.998428 
L 114.024667 197.116647 
L 115.514286 197.233683 
L 117.004016 197.348774 
L 118.494241 197.460651 
L 119.985609 197.5672 
L 121.479205 197.664903 
L 122.976844 197.747896 
L 124.481572 197.80642 
L 125.998489 197.824223 
L 127.536139 197.774254 
L 129.108822 197.611517 
L 130.74044 197.26127 
L 132.470821 196.599747 
L 134.365914 195.423297 
L 136.533507 193.401262 
L 139.145004 190.011562 
L 142.457323 184.478298 
L 146.805673 175.80186 
L 152.476387 163.157408 
L 159.279864 147.197101 
L 165.798173 132.295691 
L 169.331294 126.602408 
L 168.202455 134.996476 
L 164.026588 152.401357 
L 159.779975 169.813048 
L 157.033741 182.588923 
L 155.867604 190.575129 
L 155.828098 195.17876 
L 156.47356 197.740473 
L 157.504923 199.158697 
L 158.745492 199.960176 
L 160.097198 200.435319 
L 161.507255 200.739476 
L 162.947686 200.954489 
L 164.403781 201.123141 
L 165.867838 201.267708 
L 167.335832 201.39976 
L 168.805662 201.525306 
L 170.276233 201.64746 
L 171.746974 201.767838 
L 173.217586 201.887278 
L 174.687915 202.006213 
L 176.15788 202.12487 
L 177.627438 202.243365 
L 179.096569 202.361759 
L 180.565261 202.480082 
L 182.033507 202.598352 
L 183.501306 202.716576 
L 184.968656 202.834759 
L 186.435555 202.952903 
L 187.902005 203.07101 
L 189.368004 203.18908 
L 190.833554 203.307113 
L 192.298653 203.42511 
L 193.763303 203.54307 
L 195.227503 203.660994 
L 196.691254 203.778882 
L 198.154556 203.896734 
L 199.617409 204.01455 
L 201.079813 204.132329 
L 202.541768 204.250073 
L 204.003276 204.36778 
L 205.464335 204.485451 
L 206.924946 204.603086 
L 208.385109 204.720685 
L 209.844825 204.838248 
L 211.304094 204.955775 
L 212.762916 205.073266 
L 214.221291 205.190721 
L 215.679219 205.30814 
L 217.1367 205.425524 
L 218.593736 205.542871 
L 220.050325 205.660182 
L 221.506468 205.777457 
L 222.962166 205.894697 
L 224.417419 206.0119 
L 225.872226 206.129068 
L 227.326588 206.2462 
L 228.780505 206.363296 
L 230.233978 206.480356 
L 231.687006 206.59738 
L 233.13959 206.714369 
L 234.59173 206.831322 
L 236.043426 206.948239 
L 237.494679 207.06512 
L 238.945488 207.181966 
L 240.395854 207.298776 
L 241.845777 207.41555 
L 243.295257 207.532289 
L 244.744295 207.648992 
L 246.19289 207.765659 
L 247.641043 207.882291 
" clip-path="url(#pdd2f2600af)" style="fill: none; stroke: #008000; stroke-width: 1.5; stroke-linecap: square"/>
   </g>
   <g id="line2d_25">
    <path d="M 101.95963 200.905847 
L 103.454537 201.025346 
L 104.949007 201.144715 
L 106.443056 201.263901 
L 107.936709 201.382815 
L 109.430007 201.501319 
L 110.923017 201.619194 
L 112.415842 201.736088 
L 113.908652 201.851444 
L 115.401715 201.964375 
L 116.895461 202.073468 
L 118.390582 202.176475 
L 119.888182 202.269819 
L 121.39003 202.347808 
L 122.898963 202.401381 
L 124.419519 202.416113 
L 125.958975 202.369042 
L 127.528985 202.223608 
L 129.148218 201.921603 
L 130.846565 201.37041 
L 132.671801 200.422914 
L 134.699938 198.846502 
L 137.050607 196.277457 
L 139.907304 192.161856 
L 143.534765 185.707555 
L 148.25868 175.953966 
L 154.300124 162.284166 
L 161.254846 145.999472 
L 167.255953 132.795243 
L 169.295183 131.663709 
L 166.408605 145.272117 
L 161.392333 165.049794 
L 157.34994 181.718376 
L 155.24045 192.515073 
L 154.688029 198.639442 
L 155.094635 201.908649 
L 156.026669 203.623516 
L 157.231074 204.537001 
L 158.572868 205.047993 
L 159.982959 205.359386 
L 161.426672 205.5724 
L 162.886767 205.737064 
L 164.354713 205.87799 
L 165.8263 206.007262 
L 167.29945 206.130804 
L 168.773139 206.251521 
L 170.246864 206.370835 
L 171.720375 206.489443 
L 173.193551 206.607686 
L 174.666332 206.725733 
L 176.138688 206.843665 
L 177.610604 206.961522 
L 179.082075 207.079323 
L 180.553095 207.19708 
L 182.023665 207.314795 
L 183.493783 207.432472 
L 184.963449 207.550112 
L 186.432662 207.667715 
L 187.901424 207.785281 
L 189.369734 207.902811 
L 190.837593 208.020305 
L 192.305 208.137763 
L 193.771955 208.255185 
L 195.23846 208.372571 
L 196.704515 208.48992 
L 198.170118 208.607233 
L 199.635271 208.724511 
L 201.099975 208.841752 
L 202.564228 208.958958 
L 204.028031 209.076127 
L 205.491385 209.19326 
L 206.95429 209.310358 
L 208.416745 209.427419 
L 209.878752 209.544445 
L 211.34031 209.661434 
L 212.801419 209.778388 
L 214.26208 209.895306 
L 215.722293 210.012188 
L 217.182059 210.129034 
L 218.641376 210.245844 
L 220.100246 210.362619 
L 221.558669 210.479357 
L 223.016645 210.59606 
L 224.474174 210.712727 
L 225.931256 210.829359 
L 227.387892 210.945954 
L 228.844081 211.062514 
L 230.299825 211.179038 
L 231.755123 211.295527 
L 233.209975 211.41198 
L 234.664382 211.528397 
L 236.118343 211.644779 
L 237.57186 211.761125 
L 239.024932 211.877435 
L 240.477559 211.99371 
L 241.929742 212.109949 
L 243.381481 212.226153 
L 244.832775 212.342321 
L 246.283626 212.458453 
L 247.734033 212.57455 
" clip-path="url(#pdd2f2600af)" style="fill: none; stroke: #008000; stroke-width: 1.5; stroke-linecap: square"/>
   </g>
   <g id="line2d_26">
    <path d="M 101.822366 205.665899 
L 103.319766 205.784529 
L 104.816764 205.902906 
L 106.313387 206.020934 
L 107.80968 206.138469 
L 109.305702 206.255305 
L 110.801547 206.371144 
L 112.297344 206.485549 
L 113.79329 206.597888 
L 115.289666 206.707241 
L 116.786886 206.812274 
L 118.285557 206.911043 
L 119.786562 207.000729 
L 121.291199 207.07723 
L 122.80136 207.134586 
L 124.319815 207.164133 
L 125.85062 207.153272 
L 127.399706 207.083674 
L 128.97576 206.928672 
L 130.591505 206.649441 
L 132.265585 206.189424 
L 134.025334 205.466204 
L 135.910819 204.359685 
L 137.980666 202.695203 
L 140.320152 200.220266 
L 143.051347 196.57586 
L 146.342088 191.272385 
L 150.400076 183.711449 
L 155.408427 173.382988 
L 161.2961 160.548967 
L 167.216403 147.770333 
L 171.080635 141.216993 
L 170.719678 147.150268 
L 166.748849 163.554998 
L 162.257499 181.280579 
L 159.346946 194.239159 
L 158.211676 201.954581 
L 158.294733 206.105696 
L 159.067982 208.251539 
L 160.199536 209.362337 
L 161.509527 209.960094 
L 162.90655 210.308389 
L 164.345508 210.536484 
L 165.804458 210.706905 
L 167.272795 210.849702 
L 168.745408 210.979269 
L 170.219841 211.102496 
L 171.694911 211.222673 
L 173.17005 211.341375 
L 174.644987 211.459352 
L 176.119589 211.576965 
L 177.593795 211.694384 
L 179.067574 211.811693 
L 180.540912 211.928929 
L 182.013802 212.046112 
L 183.486241 212.163251 
L 184.958228 212.28035 
L 186.429761 212.397411 
L 187.900842 212.514435 
L 189.37147 212.631422 
L 190.841644 212.748374 
L 192.311366 212.865289 
L 193.780635 212.982168 
L 195.249452 213.099011 
L 196.717817 213.215818 
L 198.18573 213.332589 
L 199.653191 213.449324 
L 201.1202 213.566023 
L 202.586758 213.682687 
L 204.052865 213.799314 
L 205.518521 213.915906 
L 206.983726 214.032461 
L 208.448481 214.148981 
L 209.912785 214.265465 
L 211.376639 214.381914 
L 212.840044 214.498326 
L 214.302998 214.614703 
L 215.765504 214.731044 
L 217.227559 214.847349 
L 218.689166 214.963618 
L 220.150324 215.079852 
L 221.611034 215.19605 
L 223.071294 215.312213 
L 224.531107 215.428339 
L 225.990472 215.544431 
L 227.449388 215.660486 
L 228.907858 215.776506 
L 230.365879 215.89249 
L 231.823454 216.008439 
L 233.280581 216.124352 
L 234.737262 216.24023 
L 236.193496 216.356072 
L 237.649284 216.471878 
L 239.104625 216.587649 
L 240.559521 216.703385 
L 242.01397 216.819085 
L 243.467975 216.93475 
L 244.921533 217.050379 
L 246.374647 217.165973 
L 247.827316 217.281531 
" clip-path="url(#pdd2f2600af)" style="fill: none; stroke: #008000; stroke-width: 1.5; stroke-linecap: square"/>
   </g>
   <g id="line2d_27">
    <path d="M 101.699226 210.388787 
L 103.201883 210.497087 
L 104.704662 210.60341 
L 106.207678 210.70739 
L 107.711072 210.808588 
L 109.215009 210.906487 
L 110.719689 211.000468 
L 112.22535 211.089797 
L 113.732277 211.173599 
L 115.240812 211.250836 
L 116.751363 211.320269 
L 118.264419 211.380429 
L 119.780565 211.429563 
L 121.300503 211.465588 
L 122.82507 211.486025 
L 124.355271 211.487922 
L 125.892309 211.467764 
L 127.437622 211.421369 
L 128.992937 211.343751 
L 130.560321 211.228974 
L 132.14225 211.069961 
L 133.741694 210.858276 
L 135.362217 210.583856 
L 137.008091 210.234696 
L 138.684447 209.796463 
L 140.397442 209.252047 
L 142.154468 208.581017 
L 143.964395 207.758997 
L 145.837846 206.756953 
L 147.787495 205.54045 
L 149.828346 204.06899 
L 151.977885 202.295741 
L 154.255868 200.168348 
L 156.683211 197.632315 
L 159.278864 194.640081 
L 162.05247 191.171881 
L 164.988874 187.279148 
L 168.018966 183.165153 
L 170.97426 179.308797 
L 173.542115 176.582391 
L 175.288124 176.178188 
L 175.8488 179.065171 
L 175.257285 185.097154 
L 174.054478 192.738816 
L 172.945818 200.039823 
L 172.373859 205.805448 
L 172.426635 209.823234 
L 172.992781 212.420281 
L 173.91602 214.036518 
L 175.066177 215.03318 
L 176.353385 215.657413 
L 177.720975 216.063946 
L 179.13488 216.345209 
L 180.575147 216.555023 
L 182.030257 216.72428 
L 183.493614 216.870576 
L 184.961458 217.003886 
L 186.43165 217.129851 
L 187.902977 217.251657 
L 189.374751 217.371102 
L 190.846582 217.4892 
L 192.318247 217.606523 
L 193.789623 217.723394 
L 195.260637 217.839994 
L 196.731251 217.956425 
L 198.201441 218.072747 
L 199.671195 218.18899 
L 201.140506 218.305174 
L 202.609369 218.421308 
L 204.077782 218.5374 
L 205.545745 218.653451 
L 207.013257 218.769464 
L 208.480317 218.88544 
L 209.946926 219.00138 
L 211.413084 219.117283 
L 212.87879 219.23315 
L 214.344046 219.348982 
L 215.80885 219.464778 
L 217.273204 219.580539 
L 218.737107 219.696263 
L 220.20056 219.811952 
L 221.663563 219.927606 
L 223.126116 220.043224 
L 224.58822 220.158806 
L 226.049874 220.274353 
L 227.511079 220.389864 
L 228.971834 220.50534 
L 230.432141 220.620781 
L 231.892 220.736185 
L 233.35141 220.851555 
L 234.810371 220.966889 
L 236.268885 221.082188 
L 237.726951 221.197451 
L 239.184569 221.312679 
L 240.64174 221.427871 
L 242.098464 221.543028 
L 243.554741 221.65815 
L 245.010571 221.773236 
L 246.465954 221.888288 
L 247.920891 222.003303 
" clip-path="url(#pdd2f2600af)" style="fill: none; stroke: #008000; stroke-width: 1.5; stroke-linecap: square"/>
   </g>
   <g id="line2d_28">
    <path d="M 101.70165 214.677032 
L 103.216458 214.753908 
L 104.731826 214.82771 
L 106.247837 214.898215 
L 107.764581 214.965179 
L 109.282154 215.028345 
L 110.800661 215.087434 
L 112.320214 215.142146 
L 113.840936 215.192159 
L 115.362957 215.237129 
L 116.88642 215.276685 
L 118.411479 215.310426 
L 119.938299 215.337924 
L 121.467059 215.35872 
L 122.997952 215.372316 
L 124.531188 215.378182 
L 126.066992 215.375745 
L 127.605607 215.36439 
L 129.147298 215.343454 
L 130.692349 215.312229 
L 132.241068 215.269947 
L 133.793786 215.215787 
L 135.350863 215.148865 
L 136.912688 215.068228 
L 138.47968 214.972853 
L 140.052293 214.861638 
L 141.631018 214.733397 
L 143.216384 214.586853 
L 144.808967 214.420632 
L 146.409386 214.233255 
L 148.018314 214.023128 
L 149.636476 213.788533 
L 151.26466 213.52762 
L 152.903718 213.238396 
L 154.55457 212.91871 
L 156.218216 212.566243 
L 157.895738 212.178493 
L 159.588307 211.752762 
L 161.297196 211.286135 
L 163.023783 210.775464 
L 164.769562 210.217348 
L 166.536157 209.608112 
L 168.325328 208.943782 
L 170.138988 208.220061 
L 171.97921 207.43231 
L 173.848237 206.575532 
L 175.748475 205.644406 
L 177.68244 204.63343 
L 179.652572 203.537421 
L 181.660647 202.353058 
L 183.706019 201.083452 
L 185.780457 199.751433 
L 187.853453 198.437191 
L 189.832938 197.37821 
L 191.477905 197.189641 
L 192.30322 199.097783 
L 191.848666 204.240286 
L 190.621101 211.285287 
L 189.919682 216.934285 
L 190.214808 220.030803 
L 191.175587 221.437825 
L 192.44701 222.060747 
L 193.843898 222.36802 
L 195.28856 222.555001 
L 196.75086 222.697063 
L 198.21944 222.822466 
L 199.690066 222.941693 
L 201.161164 223.05862 
L 202.632151 223.174675 
L 204.102812 223.290386 
L 205.573066 223.405949 
L 207.042884 223.521433 
L 208.512255 223.636867 
L 209.981175 223.752259 
L 211.449643 223.867614 
L 212.917659 223.982933 
L 214.385222 224.098215 
L 215.852333 224.213462 
L 217.318992 224.328673 
L 218.785199 224.443849 
L 220.250955 224.55899 
L 221.716259 224.674094 
L 223.181111 224.789164 
L 224.645513 224.904198 
L 226.109464 225.019197 
L 227.572964 225.13416 
L 229.036013 225.249088 
L 230.498612 225.36398 
L 231.960762 225.478837 
L 233.422461 225.593659 
L 234.883711 225.708445 
L 236.344511 225.823196 
L 237.804863 225.937912 
L 239.264765 226.052593 
L 240.724218 226.167238 
L 242.183223 226.281848 
L 243.64178 226.396423 
L 245.099888 226.510963 
L 246.557549 226.625467 
L 248.014761 226.739936 
" clip-path="url(#pdd2f2600af)" style="fill: none; stroke: #008000; stroke-width: 1.5; stroke-linecap: square"/>
   </g>
   <g id="line2d_29">
    <path d="M 101.421116 219.990682 
L 102.927682 220.101253 
L 104.434074 220.210849 
L 105.940334 220.319344 
L 107.446511 220.42659 
L 108.952662 220.532422 
L 110.458851 220.636653 
L 111.965149 220.739068 
L 113.471642 220.839423 
L 114.978424 220.937443 
L 116.485605 221.032813 
L 117.99331 221.125176 
L 119.50168 221.214125 
L 121.010881 221.299198 
L 122.521097 221.379871 
L 124.032542 221.455545 
L 125.545461 221.525542 
L 127.060132 221.589089 
L 128.576873 221.645308 
L 130.096051 221.693201 
L 131.618082 221.731631 
L 133.143443 221.759305 
L 134.67268 221.774754 
L 136.206417 221.776305 
L 137.745369 221.762054 
L 139.290352 221.729834 
L 140.842301 221.677179 
L 142.402288 221.601281 
L 143.971537 221.498943 
L 145.551451 221.366521 
L 147.143637 221.199865 
L 148.749937 220.994243 
L 150.372459 220.744261 
L 152.013623 220.443763 
L 153.676203 220.085726 
L 155.363383 219.662126 
L 157.07882 219.163796 
L 158.826713 218.580252 
L 160.611895 217.899495 
L 162.439923 217.10778 
L 164.317204 216.189343 
L 166.251122 215.126087 
L 168.250204 213.897212 
L 170.324301 212.47879 
L 172.484796 210.843295 
L 174.744813 208.959145 
L 177.119334 206.790486 
L 179.624957 204.297969 
L 182.278363 201.44287 
L 185.090638 198.201965 
L 188.048734 194.615443 
L 191.059592 190.930136 
L 193.803017 187.973604 
L 195.472082 187.80504 
L 194.877606 193.416434 
L 192.076007 204.574445 
L 189.361534 215.397042 
L 188.316592 221.912247 
L 188.642997 224.931754 
L 189.657998 226.207461 
L 190.958718 226.763041 
L 192.369452 227.042091 
L 193.821219 227.2178 
L 195.287952 227.355264 
L 196.759941 227.478614 
L 198.233587 227.596747 
L 199.707557 227.71294 
L 201.18136 227.828396 
L 202.654813 227.943559 
L 204.127851 228.058591 
L 205.600448 228.173553 
L 207.072596 228.288467 
L 208.544291 228.403341 
L 210.015531 228.518178 
L 211.486318 228.632978 
L 212.956651 228.747743 
L 214.426529 228.862472 
L 215.895954 228.977166 
L 217.364926 229.091824 
L 218.833444 229.206447 
L 220.301509 229.321035 
L 221.769121 229.435587 
L 223.23628 229.550104 
L 224.702987 229.664585 
L 226.169241 229.779032 
L 227.635044 229.893443 
L 229.100395 230.007818 
L 230.565293 230.122159 
L 232.029741 230.236464 
L 233.493737 230.350734 
L 234.957282 230.464969 
L 236.420377 230.579169 
L 237.883021 230.693333 
L 239.345214 230.807462 
L 240.806957 230.921557 
L 242.26825 231.035616 
L 243.729094 231.149639 
L 245.189487 231.263628 
L 246.649432 231.377582 
L 248.108927 231.491501 
" clip-path="url(#pdd2f2600af)" style="fill: none; stroke: #008000; stroke-width: 1.5; stroke-linecap: square"/>
   </g>
   <g id="line2d_30">
    <path d="M 101.269457 224.856876 
L 102.77671 224.972732 
L 104.283544 225.088382 
L 105.789968 225.203799 
L 107.295994 225.318951 
L 108.801634 225.433798 
L 110.306904 225.548297 
L 111.811821 225.662394 
L 113.316405 225.776031 
L 114.820681 225.889135 
L 116.324678 226.001624 
L 117.828428 226.113401 
L 119.331971 226.224355 
L 120.835352 226.334354 
L 122.338625 226.443245 
L 123.841852 226.550848 
L 125.345109 226.656956 
L 126.848481 226.761326 
L 128.35207 226.863673 
L 129.855994 226.963666 
L 131.360395 227.06092 
L 132.865436 227.154982 
L 134.371309 227.245327 
L 135.878241 227.33134 
L 137.386496 227.412305 
L 138.896385 227.487386 
L 140.408274 227.555606 
L 141.92259 227.615826 
L 143.439836 227.666716 
L 144.960602 227.706722 
L 146.48558 227.734032 
L 148.015584 227.746529 
L 149.551567 227.74174 
L 151.09465 227.716778 
L 152.64615 227.668267 
L 154.20761 227.592265 
L 155.780849 227.484162 
L 157.368001 227.33857 
L 158.971574 227.149185 
L 160.59452 226.908628 
L 162.240311 226.608264 
L 163.913036 226.237971 
L 165.617511 225.78589 
L 167.359413 225.238101 
L 169.145441 224.57826 
L 170.983506 223.787156 
L 172.882961 222.842178 
L 174.854878 221.716683 
L 176.912372 220.379252 
L 179.070985 218.792819 
L 181.349104 216.913741 
L 183.768334 214.69101 
L 186.353555 212.066302 
L 189.131855 208.976888 
L 192.127985 205.36728 
L 195.349799 201.225781 
L 198.746783 196.687446 
L 202.105526 192.291337 
L 204.847457 189.472696 
L 205.896525 190.867159 
L 204.374376 198.570729 
L 201.201844 210.234791 
L 198.586247 220.42587 
L 197.550298 226.688622 
L 197.769042 229.86487 
L 198.676104 231.358817 
L 199.906088 232.067363 
L 201.277652 232.432726 
L 202.709411 232.652262 
L 204.16631 232.810545 
L 205.6335 232.943212 
L 207.104738 233.065177 
L 208.577405 233.182662 
L 210.050405 233.29826 
L 211.52328 233.413053 
L 212.995837 233.527489 
L 214.467997 233.641756 
L 215.939726 233.755933 
L 217.41101 233.87005 
L 218.881843 233.984123 
L 220.352224 234.098157 
L 221.822151 234.212154 
L 223.291624 234.326114 
L 224.760643 234.44004 
L 226.229209 234.55393 
L 227.697321 234.667784 
L 229.16498 234.781604 
L 230.632185 234.895388 
L 232.098938 235.009138 
L 233.565238 235.122852 
L 235.031086 235.236531 
L 236.496482 235.350175 
L 237.961425 235.463784 
L 239.425917 235.577358 
L 240.889957 235.690897 
L 242.353546 235.804401 
L 243.816683 235.91787 
L 245.279369 236.031304 
L 246.741605 236.144703 
L 248.20339 236.258067 
" clip-path="url(#pdd2f2600af)" style="fill: none; stroke: #008000; stroke-width: 1.5; stroke-linecap: square"/>
   </g>
   <g id="line2d_31">
    <path d="M 101.128258 229.699718 
L 102.637695 229.815869 
L 104.146667 229.931955 
L 105.655177 230.04797 
L 107.163228 230.16391 
L 108.670821 230.279764 
L 110.177961 230.395525 
L 111.68465 230.511181 
L 113.190895 230.626719 
L 114.6967 230.742122 
L 116.202072 230.857373 
L 117.707019 230.972448 
L 119.21155 231.087321 
L 120.715677 231.201958 
L 122.219413 231.316323 
L 123.722774 231.430368 
L 125.22578 231.544038 
L 126.728455 231.65727 
L 128.230825 231.769983 
L 129.732925 231.882084 
L 131.234795 231.993463 
L 132.736483 232.103986 
L 134.238046 232.213494 
L 135.739555 232.321797 
L 137.241093 232.428668 
L 138.742759 232.533836 
L 140.244674 232.63698 
L 141.746982 232.737711 
L 143.249855 232.835571 
L 144.753503 232.930007 
L 146.258173 233.020364 
L 147.764165 233.105857 
L 149.271839 233.185547 
L 150.781625 233.258316 
L 152.294044 233.322827 
L 153.809715 233.377482 
L 155.329388 233.420374 
L 156.853958 233.449222 
L 158.384505 233.461303 
L 159.922322 233.453362 
L 161.468967 233.421505 
L 163.026309 233.36108 
L 164.596595 233.266522 
L 166.182529 233.131171 
L 167.787362 232.947058 
L 169.415006 232.704639 
L 171.070173 232.39248 
L 172.758539 231.996869 
L 174.486947 231.501355 
L 176.263657 230.886176 
L 178.098645 230.127573 
L 180.003978 229.196942 
L 181.994267 228.059805 
L 184.087219 226.674567 
L 186.304297 224.991038 
L 188.671458 222.948811 
L 191.219831 220.475831 
L 193.985875 217.488303 
L 197.009615 213.895355 
L 200.326932 209.61814 
L 203.945098 204.649323 
L 207.775305 199.215261 
L 211.47542 194.150492 
L 214.20297 191.476949 
L 214.653397 194.28283 
L 212.263609 203.828435 
L 208.626647 216.237008 
L 205.972639 226.20472 
L 204.98522 232.162225 
L 205.218211 235.210425 
L 206.116758 236.681633 
L 207.334518 237.400033 
L 208.696857 237.778603 
L 210.122946 238.007456 
L 211.576699 238.171036 
L 213.042254 238.306277 
L 214.512686 238.429229 
L 215.984979 238.546843 
L 217.457824 238.662129 
L 218.93065 238.776389 
L 220.40321 238.890185 
L 221.875396 239.003761 
L 223.347163 239.117222 
L 224.818491 239.230613 
L 226.28937 239.343954 
L 227.759797 239.457253 
L 229.22977 239.570514 
L 230.69929 239.68374 
L 232.168355 239.796929 
L 233.636966 239.910084 
L 235.105124 240.023203 
L 236.572828 240.136288 
L 238.040078 240.249337 
L 239.506875 240.362352 
L 240.97322 240.475331 
L 242.439111 240.588276 
L 243.90455 240.701186 
L 245.369536 240.814061 
L 246.83407 240.926901 
L 248.298152 241.039706 
" clip-path="url(#pdd2f2600af)" style="fill: none; stroke: #008000; stroke-width: 1.5; stroke-linecap: square"/>
   </g>
   <g id="line2d_32">
    <path d="M 100.987992 234.553228 
L 102.499855 234.668882 
L 104.011247 234.784486 
L 105.522171 234.900036 
L 107.032627 235.015529 
L 108.542617 235.130961 
L 110.052143 235.246327 
L 111.561208 235.36162 
L 113.069813 235.476833 
L 114.577963 235.591957 
L 116.085662 235.70698 
L 117.592913 235.82189 
L 119.099723 235.936671 
L 120.606099 236.051302 
L 122.112048 236.165762 
L 123.617582 236.28002 
L 125.122712 236.394044 
L 126.627453 236.507791 
L 128.131823 236.621212 
L 129.635843 236.734247 
L 131.139541 236.846823 
L 132.642947 236.958851 
L 134.146101 237.070226 
L 135.64905 237.180819 
L 137.151851 237.290475 
L 138.654573 237.399007 
L 140.1573 237.506188 
L 141.660134 237.611746 
L 143.1632 237.71535 
L 144.666649 237.816601 
L 146.170662 237.915017 
L 147.675464 238.010017 
L 149.181322 238.100897 
L 150.688566 238.186808 
L 152.197594 238.266723 
L 153.708888 238.339402 
L 155.223038 238.403346 
L 156.740756 238.456744 
L 158.26291 238.497406 
L 159.790554 238.522688 
L 161.324969 238.529389 
L 162.86771 238.513641 
L 164.42067 238.470766 
L 165.98615 238.395105 
L 167.566948 238.279807 
L 169.166469 238.116581 
L 170.788858 237.895383 
L 172.439162 237.60404 
L 174.123533 237.227792 
L 175.849472 236.748725 
L 177.626134 236.145078 
L 179.464704 235.390398 
L 181.37885 234.452497 
L 183.385293 233.292198 
L 185.504465 231.861844 
L 187.761259 230.103667 
L 190.185745 227.948273 
L 192.813482 225.314166 
L 195.684432 222.110737 
L 198.837838 218.250977 
L 202.296663 213.68917 
L 206.027345 208.517019 
L 209.85 203.175964 
L 213.284422 198.816582 
L 215.440918 197.540601 
L 215.369188 201.551503 
L 213.103734 210.689743 
L 210.096064 221.477792 
L 207.887186 230.297364 
L 206.972836 236.026602 
L 207.098965 239.297162 
L 207.868136 241.058119 
L 208.988433 241.998962 
L 210.289189 242.519987 
L 211.679903 242.832229 
L 213.114712 243.042081 
L 214.570865 243.20205 
L 216.037194 243.337789 
L 217.508243 243.461768 
L 218.981353 243.580033 
L 220.455231 243.695516 
L 221.929247 243.809633 
L 223.403097 243.923071 
L 224.87663 244.036163 
L 226.349775 244.149069 
L 227.822497 244.261867 
L 229.294779 244.374595 
L 230.766613 244.487271 
L 232.237995 244.599904 
L 233.708923 244.712498 
L 235.179397 244.825055 
L 236.649416 244.937577 
L 238.118981 245.050063 
L 239.588091 245.162514 
L 241.056746 245.274931 
L 242.524948 245.387312 
L 243.992695 245.499659 
L 245.459988 245.611971 
L 246.926828 245.724248 
L 248.393214 245.83649 
" clip-path="url(#pdd2f2600af)" style="fill: none; stroke: #008000; stroke-width: 1.5; stroke-linecap: square"/>
   </g>
   <g id="line2d_33">
    <path d="M 100.847529 239.421485 
L 102.36187 239.536493 
L 103.875741 239.651441 
L 105.389146 239.766326 
L 106.902085 239.881144 
L 108.41456 239.995888 
L 109.926575 240.110552 
L 111.438132 240.22513 
L 112.949233 240.339611 
L 114.459883 240.453987 
L 115.970087 240.568245 
L 117.479848 240.682372 
L 118.989174 240.79635 
L 120.498071 240.910161 
L 122.006547 241.023783 
L 123.514612 241.137189 
L 125.022277 241.250348 
L 126.529555 241.363225 
L 128.036462 241.475777 
L 129.543016 241.587954 
L 131.049239 241.699701 
L 132.555156 241.810947 
L 134.060796 241.921615 
L 135.566194 242.031611 
L 137.071392 242.140827 
L 138.576438 242.249136 
L 140.081388 242.356388 
L 141.58631 242.462409 
L 143.091282 242.566995 
L 144.596397 242.669906 
L 146.101764 242.770863 
L 147.607511 242.869536 
L 149.11379 242.965541 
L 150.620778 243.058429 
L 152.128686 243.147671 
L 153.637759 243.232652 
L 155.148288 243.312646 
L 156.660615 243.386807 
L 158.175142 243.454142 
L 159.692343 243.513489 
L 161.212777 243.563486 
L 162.737099 243.602535 
L 164.266086 243.628767 
L 165.800648 243.639989 
L 167.341858 243.633632 
L 168.890984 243.606684 
L 170.449515 243.555611 
L 172.01921 243.47627 
L 173.60214 243.3638 
L 175.20075 243.212494 
L 176.817922 243.015655 
L 178.457059 242.765413 
L 180.122179 242.452519 
L 181.81803 242.066098 
L 183.550223 241.593349 
L 185.325399 241.019195 
L 187.151425 240.325861 
L 189.037622 239.492367 
L 190.995056 238.493928 
L 193.036867 237.301228 
L 195.17867 235.879588 
L 197.438996 234.188037 
L 199.839727 232.178431 
L 202.406321 229.795096 
L 205.167263 226.976324 
L 208.151092 223.661504 
L 211.376619 219.81398 
L 214.825064 215.485335 
L 218.368922 210.978023 
L 221.620494 207.188461 
L 223.737855 206.03778 
L 223.606722 210.031879 
L 221.060522 219.475151 
L 217.796707 230.45096 
L 215.661486 238.782378 
L 215.042281 243.639148 
L 215.472048 246.111596 
L 216.463264 247.31504 
L 217.722622 247.915037 
L 219.103623 248.242051 
L 220.538455 248.448249 
L 221.996737 248.601475 
L 223.465043 248.731562 
L 224.937479 248.851549 
L 226.411464 248.96712 
L 227.885868 249.08075 
L 229.360198 249.193515 
L 230.834238 249.305885 
L 232.307894 249.418062 
L 233.781125 249.530137 
L 235.253913 249.642147 
L 236.726251 249.75411 
L 238.198135 249.866032 
L 239.669564 249.977918 
L 241.140538 250.089767 
L 242.611057 250.201581 
L 244.08112 250.313361 
L 245.550727 250.425106 
L 247.01988 250.536816 
L 248.488578 250.648491 
" clip-path="url(#pdd2f2600af)" style="fill: none; stroke: #008000; stroke-width: 1.5; stroke-linecap: square"/>
   </g>
   <g id="line2d_34">
    <path d="M 100.706338 244.306408 
L 102.223119 244.420913 
L 103.739425 244.535372 
L 105.255259 244.649782 
L 106.770619 244.764143 
L 108.285508 244.878451 
L 109.799927 244.992703 
L 111.313877 245.106896 
L 112.82736 245.221026 
L 114.340378 245.335087 
L 115.852933 245.449074 
L 117.365028 245.562979 
L 118.876665 245.676794 
L 120.38785 245.79051 
L 121.898585 245.904115 
L 123.408877 246.017594 
L 124.91873 246.130933 
L 126.428154 246.24411 
L 127.937155 246.357104 
L 129.445744 246.469888 
L 130.953933 246.582429 
L 132.461736 246.69469 
L 133.969171 246.806626 
L 135.476256 246.918184 
L 136.983016 247.029302 
L 138.489479 247.139906 
L 139.995679 247.249907 
L 141.501655 247.359203 
L 143.007454 247.467671 
L 144.513133 247.575166 
L 146.01876 247.681516 
L 147.524412 247.786519 
L 149.030185 247.889933 
L 150.536192 247.991476 
L 152.042565 248.090811 
L 153.549464 248.187541 
L 155.057078 248.281194 
L 156.565632 248.371215 
L 158.075393 248.456945 
L 159.586679 248.537603 
L 161.099868 248.612269 
L 162.615411 248.679851 
L 164.133841 248.739056 
L 165.655797 248.788357 
L 167.182034 248.825942 
L 168.713455 248.84967 
L 170.251131 248.857003 
L 171.796338 248.844937 
L 173.350596 248.809914 
L 174.915712 248.747717 
L 176.49384 248.653349 
L 178.087546 248.520889 
L 179.699886 248.34331 
L 181.334504 248.112278 
L 182.995747 247.8179 
L 184.688801 247.448423 
L 186.419862 246.989874 
L 188.196333 246.42563 
L 190.027074 245.73589 
L 191.922695 244.897044 
L 193.89592 243.880897 
L 195.962031 242.65374 
L 198.139397 241.17522 
L 200.450105 239.397026 
L 202.92065 237.261466 
L 205.582518 234.700349 
L 208.472071 231.635491 
L 211.627951 227.984984 
L 215.080575 223.687452 
L 218.818552 218.778446 
L 222.694151 213.603505 
L 226.203781 209.308469 
L 228.194507 208.482567 
L 227.222451 214.318921 
L 223.531457 226.177292 
L 219.750392 238.12363 
L 217.773276 245.962963 
L 217.488619 249.99884 
L 218.174098 251.869002 
L 219.315769 252.725761 
L 220.654782 253.145728 
L 222.076131 253.383714 
L 223.531194 253.546922 
L 224.999823 253.679564 
L 226.473734 253.799729 
L 227.949534 253.914793 
L 229.425835 254.027761 
L 230.90207 254.139856 
L 232.378007 254.251574 
L 233.853551 254.363119 
L 235.328663 254.474573 
L 236.803328 254.58597 
L 238.27754 254.697322 
L 239.751297 254.808636 
L 241.224597 254.919914 
L 242.697439 255.031157 
L 244.169825 255.142365 
L 245.641755 255.253538 
L 247.113228 255.364677 
L 248.584244 255.475781 
" clip-path="url(#pdd2f2600af)" style="fill: none; stroke: #008000; stroke-width: 1.5; stroke-linecap: square"/>
   </g>
   <g id="line2d_35">
    <path d="M 100.564942 249.206248 
L 102.084215 249.320104 
L 103.603016 249.433903 
L 105.121345 249.547642 
L 106.639205 249.661318 
L 108.156596 249.774926 
L 109.673523 249.88846 
L 111.189986 250.001913 
L 112.705988 250.115278 
L 114.221534 250.228547 
L 115.736627 250.341707 
L 117.251271 250.454748 
L 118.765472 250.567654 
L 120.279237 250.680409 
L 121.792572 250.792992 
L 123.305486 250.905381 
L 124.81799 251.017548 
L 126.330095 251.129461 
L 127.841816 251.241081 
L 129.353169 251.352367 
L 130.864173 251.463264 
L 132.374851 251.573713 
L 133.885231 251.683643 
L 135.395344 251.792971 
L 136.905227 251.901598 
L 138.414925 252.009411 
L 139.924489 252.116274 
L 141.433981 252.222032 
L 142.943472 252.326498 
L 144.453047 252.429457 
L 145.962807 252.530655 
L 147.472869 252.629795 
L 148.983373 252.726528 
L 150.49448 252.820445 
L 152.006386 252.911068 
L 153.519316 252.997833 
L 155.033539 253.080082 
L 156.549371 253.157042 
L 158.067184 253.227807 
L 159.587416 253.291314 
L 161.110586 253.346315 
L 162.637302 253.39135 
L 164.168285 253.424702 
L 165.704381 253.444358 
L 167.246591 253.447957 
L 168.796094 253.432728 
L 170.354282 253.395415 
L 171.922796 253.3322 
L 173.503573 253.238596 
L 175.0989 253.109333 
L 176.711478 252.938216 
L 178.344497 252.717963 
L 180.001729 252.440008 
L 181.687631 252.094268 
L 183.407479 251.668869 
L 185.167522 251.149813 
L 186.97516 250.52059 
L 188.839175 249.761704 
L 190.769987 248.85012 
L 192.779972 247.758601 
L 194.88382 246.454959 
L 197.098934 244.901244 
L 199.445791 243.053036 
L 201.948081 240.859276 
L 204.632109 238.263839 
L 207.524107 235.211885 
L 210.642125 231.668544 
L 213.974664 227.667498 
L 217.42993 223.425271 
L 220.733156 219.57026 
L 223.286568 217.449644 
L 224.198085 219.047354 
L 222.925802 225.524255 
L 220.232839 235.108005 
L 217.752784 244.127696 
L 216.460296 250.437957 
L 216.330617 254.131628 
L 216.968635 256.110368 
L 218.031622 257.144845 
L 219.310894 257.700731 
L 220.69583 258.023418 
L 222.1313 258.234569 
L 223.590596 258.392833 
L 225.060949 258.526114 
L 226.536292 258.647607 
L 228.013753 258.763533 
L 229.491972 258.876821 
L 230.970306 258.98885 
L 232.448452 259.100269 
L 233.926267 259.211383 
L 235.403683 259.322335 
L 236.880668 259.433192 
L 238.357207 259.543987 
L 239.833294 259.654734 
L 241.308925 259.76544 
L 242.784098 259.876109 
L 244.258814 259.986743 
L 245.733072 260.097341 
L 247.206873 260.207904 
L 248.680215 260.318434 
" clip-path="url(#pdd2f2600af)" style="fill: none; stroke: #008000; stroke-width: 1.5; stroke-linecap: square"/>
   </g>
   <g id="line2d_36">
    <path d="M 100.42403 254.118744 
L 101.945936 254.231523 
L 103.467388 254.344182 
L 104.988392 254.456708 
L 106.508952 254.569088 
L 108.029075 254.681307 
L 109.548766 254.793346 
L 111.068033 254.905187 
L 112.586885 255.016804 
L 114.105331 255.128174 
L 115.623382 255.239264 
L 117.141051 255.350041 
L 118.658352 255.460467 
L 120.175302 255.570496 
L 121.69192 255.680077 
L 123.208228 255.789153 
L 124.724251 255.897658 
L 126.240017 256.005515 
L 127.75556 256.112639 
L 129.270916 256.218932 
L 130.78613 256.32428 
L 132.30125 256.428557 
L 133.816333 256.531616 
L 135.331445 256.633291 
L 136.84666 256.733391 
L 138.362064 256.831699 
L 139.877755 256.927968 
L 141.393845 257.021916 
L 142.910464 257.113219 
L 144.42776 257.20151 
L 145.945903 257.28637 
L 147.465088 257.367319 
L 148.985539 257.443809 
L 150.507512 257.515218 
L 152.031302 257.580833 
L 153.557246 257.63984 
L 155.085733 257.691311 
L 156.617206 257.734188 
L 158.152176 257.767259 
L 159.69123 257.789143 
L 161.235038 257.798263 
L 162.784373 257.792816 
L 164.340119 257.770745 
L 165.903295 257.729697 
L 167.475068 257.666986 
L 169.056778 257.579539 
L 170.649967 257.463845 
L 172.256405 257.315887 
L 173.878127 257.131072 
L 175.517473 256.904139 
L 177.177135 256.629069 
L 178.860211 256.298965 
L 180.570266 255.905922 
L 182.311412 255.440873 
L 184.088383 254.893414 
L 185.906646 254.251593 
L 187.77251 253.501672 
L 189.693264 252.627847 
L 191.677334 251.611926 
L 193.734459 250.43298 
L 195.875872 249.066969 
L 198.114465 247.486452 
L 200.464817 245.660597 
L 202.942837 243.556093 
L 205.564333 241.14054 
L 208.340747 238.392235 
L 211.267824 235.325887 
L 214.297581 232.055656 
L 217.275744 228.934683 
L 219.830637 226.800195 
L 221.286208 227.157191 
L 220.932082 231.558264 
L 218.911492 239.626098 
L 216.570374 248.326499 
L 215.166868 254.876791 
L 214.934134 258.796067 
L 215.527289 260.874786 
L 216.580345 261.934385 
L 217.862913 262.487568 
L 219.254259 262.801379 
L 220.695847 263.004602 
L 222.16026 263.157256 
L 223.634855 263.286883 
L 225.113843 263.40604 
L 226.59458 263.520428 
L 228.075863 263.632637 
L 229.557142 263.743838 
L 231.038169 263.854564 
L 232.518828 263.965056 
L 233.99907 264.075424 
L 235.478871 264.185716 
L 236.958219 264.295955 
L 238.437111 264.406151 
L 239.915544 264.516309 
L 241.393518 264.626431 
L 242.871032 264.736518 
L 244.348086 264.846571 
L 245.824681 264.956589 
L 247.300816 265.066572 
L 248.776492 265.176522 
" clip-path="url(#pdd2f2600af)" style="fill: none; stroke: #008000; stroke-width: 1.5; stroke-linecap: square"/>
   </g>
   <g id="line2d_37">
    <path d="M 100.283055 259.045879 
L 101.807636 259.157476 
L 103.331786 259.268883 
L 104.855511 259.380081 
L 106.378822 259.491047 
L 107.901726 259.601756 
L 109.424235 259.712178 
L 110.94636 259.822282 
L 112.468114 259.932031 
L 113.989514 260.041383 
L 115.510577 260.150291 
L 117.031322 260.258703 
L 118.551772 260.36656 
L 120.071953 260.473792 
L 121.591892 260.580325 
L 123.111624 260.686071 
L 124.631185 260.790934 
L 126.150618 260.894805 
L 127.669971 260.997557 
L 129.189298 261.099052 
L 130.708662 261.199131 
L 132.228132 261.297614 
L 133.747788 261.394299 
L 135.267722 261.488958 
L 136.788037 261.581332 
L 138.308849 261.67113 
L 139.830291 261.758021 
L 141.352514 261.841633 
L 142.875691 261.921544 
L 144.400015 261.99728 
L 145.925709 262.068302 
L 147.453023 262.134002 
L 148.982244 262.193693 
L 150.513695 262.246599 
L 152.047745 262.291843 
L 153.584814 262.328433 
L 155.125377 262.355246 
L 156.669974 262.371015 
L 158.219222 262.374306 
L 159.773818 262.363497 
L 161.334556 262.336753 
L 162.90234 262.291999 
L 164.478195 262.226888 
L 166.06329 262.13876 
L 167.658952 262.024609 
L 169.266692 261.881026 
L 170.88823 261.704153 
L 172.525524 261.489617 
L 174.180803 261.232462 
L 175.856608 260.927066 
L 177.555833 260.567053 
L 179.28178 260.145181 
L 181.038216 259.653225 
L 182.829444 259.081834 
L 184.660379 258.420372 
L 186.536642 257.656723 
L 188.464666 256.777083 
L 190.451821 255.765702 
L 192.506552 254.604607 
L 194.638537 253.273292 
L 196.858832 251.748435 
L 199.179962 250.003759 
L 201.615773 248.010456 
L 204.180553 245.739276 
L 206.886014 243.167479 
L 209.732284 240.299286 
L 212.682787 237.222368 
L 215.599853 234.251638 
L 218.107485 232.232944 
L 219.433271 232.884595 
L 218.695211 238.135969 
L 216.179565 247.284322 
L 213.727367 256.204071 
L 212.639194 262.037751 
L 212.81091 265.05761 
L 213.705558 266.473686 
L 214.94081 267.137795 
L 216.323565 267.477313 
L 217.767863 267.681449 
L 219.237314 267.829902 
L 220.716822 267.955572 
L 222.200178 268.07193 
L 223.684834 268.184474 
L 225.169747 268.295445 
L 226.654493 268.405754 
L 228.138895 268.515773 
L 229.622884 268.625655 
L 231.106429 268.735459 
L 232.58952 268.845213 
L 234.072151 268.954925 
L 235.554321 269.0646 
L 237.036029 269.174239 
L 238.517275 269.283844 
L 239.99806 269.393414 
L 241.478382 269.502951 
L 242.958243 269.612453 
L 244.437643 269.721921 
L 245.916582 269.831354 
L 247.395059 269.940754 
L 248.873077 270.05012 
" clip-path="url(#pdd2f2600af)" style="fill: none; stroke: #008000; stroke-width: 1.5; stroke-linecap: square"/>
   </g>
   <g id="line2d_38">
    <path d="M 100.140612 263.992483 
L 101.667757 264.103273 
L 103.194479 264.213844 
L 104.720789 264.324172 
L 106.246694 264.434231 
L 107.772207 264.543989 
L 109.29734 264.653411 
L 110.822108 264.762458 
L 112.346527 264.871085 
L 113.870616 264.979242 
L 115.394397 265.086872 
L 116.917894 265.193909 
L 118.441134 265.300281 
L 119.964149 265.405904 
L 121.486975 265.510686 
L 123.009651 265.61452 
L 124.532225 265.717285 
L 126.054748 265.818846 
L 127.57728 265.91905 
L 129.09989 266.017722 
L 130.622655 266.114665 
L 132.145662 266.209657 
L 133.669012 266.302445 
L 135.192818 266.392744 
L 136.71721 266.480231 
L 138.242335 266.56454 
L 139.76836 266.645258 
L 141.295477 266.721916 
L 142.823903 266.793985 
L 144.353884 266.860863 
L 145.885701 266.921872 
L 147.419674 266.976243 
L 148.956166 267.023105 
L 150.495593 267.061473 
L 152.038426 267.090228 
L 153.5852 267.108108 
L 155.136527 267.11368 
L 156.693102 267.105322 
L 158.255718 267.081197 
L 159.825275 267.03922 
L 161.402801 266.977033 
L 162.989466 266.891959 
L 164.586603 266.780965 
L 166.195731 266.640609 
L 167.818583 266.466988 
L 169.457134 266.25567 
L 171.113636 266.001625 
L 172.790662 265.699139 
L 174.491148 265.341718 
L 176.218446 264.921975 
L 177.976392 264.431509 
L 179.769369 263.86075 
L 181.602396 263.198796 
L 183.481223 262.43321 
L 185.412439 261.549795 
L 187.403604 260.532337 
L 189.463394 259.36231 
L 191.601749 258.018577 
L 193.830011 256.477143 
L 196.160963 254.711135 
L 198.608537 252.691548 
L 201.186591 250.39015 
L 203.905078 247.788285 
L 206.759305 244.901279 
L 209.701752 241.84192 
L 212.574868 238.970684 
L 214.982687 237.179728 
L 216.182932 238.122382 
L 215.436325 243.412649 
L 213.116149 252.155231 
L 210.867794 260.653253 
L 209.839186 266.378766 
L 209.982472 269.477021 
L 210.835202 270.995979 
L 212.040883 271.733207 
L 213.407515 272.11523 
L 214.844697 272.341737 
L 216.312156 272.501226 
L 217.792366 272.632021 
L 219.277776 272.750554 
L 220.765145 272.863844 
L 222.253087 272.97488 
L 223.741006 273.084937 
L 225.22865 273.194558 
L 226.71591 273.303973 
L 228.202739 273.413281 
L 229.689118 273.522525 
L 231.175039 273.63172 
L 232.660498 273.740876 
L 234.145494 273.849996 
L 235.630026 273.95908 
L 237.114094 274.06813 
L 238.597699 274.177146 
L 240.080841 274.286127 
L 241.563519 274.395075 
L 243.045734 274.503988 
L 244.527487 274.612867 
L 246.008777 274.721713 
L 247.489604 274.830524 
L 248.96997 274.939301 
" clip-path="url(#pdd2f2600af)" style="fill: none; stroke: #008000; stroke-width: 1.5; stroke-linecap: square"/>
   </g>
   <g id="line2d_39">
    <path d="M 99.995756 268.961715 
L 101.525234 269.072447 
L 103.05427 269.183012 
L 104.58287 269.293392 
L 106.111044 269.403564 
L 107.638802 269.5135 
L 109.166153 269.62317 
L 110.693112 269.732538 
L 112.219693 269.841564 
L 113.745913 269.950199 
L 115.271793 270.058391 
L 116.797357 270.166074 
L 118.32263 270.273178 
L 119.847645 270.379618 
L 121.372437 270.485297 
L 122.897049 270.590103 
L 124.421531 270.693908 
L 125.945938 270.796563 
L 127.470336 270.897896 
L 128.994802 270.997709 
L 130.519425 271.095774 
L 132.044307 271.191827 
L 133.569568 271.285562 
L 135.095346 271.37663 
L 136.621802 271.464623 
L 138.149122 271.549074 
L 139.677522 271.629443 
L 141.207255 271.705105 
L 142.73861 271.775341 
L 144.271927 271.83932 
L 145.807597 271.896081 
L 147.346078 271.944516 
L 148.887896 271.983347 
L 150.433668 272.011095 
L 151.984105 272.026054 
L 153.540035 272.026252 
L 155.102419 272.009414 
L 156.672375 271.972906 
L 158.251199 271.913688 
L 159.840398 271.828245 
L 161.441724 271.71251 
L 163.057212 271.561782 
L 164.68923 271.370619 
L 166.340533 271.132722 
L 168.014327 270.840795 
L 169.714344 270.486383 
L 171.444934 270.059682 
L 173.211169 269.549315 
L 175.018966 268.942067 
L 176.875235 268.222575 
L 178.788056 267.372963 
L 180.76688 266.372408 
L 182.822772 265.196642 
L 184.968685 263.817386 
L 187.219741 262.201778 
L 189.593466 260.31195 
L 192.109745 258.10525 
L 194.789927 255.536481 
L 197.653457 252.565832 
L 200.707805 249.182169 
L 203.921184 245.465402 
L 207.155637 241.738166 
L 210.03183 238.869257 
L 211.779075 238.601495 
L 211.471392 242.994584 
L 209.144946 251.89684 
L 206.406048 261.635892 
L 204.783126 268.786203 
L 204.501651 272.88514 
L 205.117109 274.960566 
L 206.205708 275.974639 
L 207.518792 276.487313 
L 208.933375 276.773856 
L 210.392768 276.960467 
L 211.871619 277.103296 
L 213.358737 277.227008 
L 214.849207 277.342375 
L 216.340881 277.454092 
L 217.832817 277.564202 
L 219.324604 277.673593 
L 220.816063 277.782652 
L 222.307116 277.891548 
L 223.797728 278.000354 
L 225.287884 278.1091 
L 226.777578 278.217803 
L 228.266808 278.326466 
L 229.755573 278.435094 
L 231.243872 278.543686 
L 232.731705 278.652244 
L 234.219072 278.760769 
L 235.705973 278.869259 
L 237.19241 278.977715 
L 238.678381 279.086137 
L 240.163887 279.194525 
L 241.648929 279.302879 
L 243.133506 279.411199 
L 244.617618 279.519486 
L 246.101267 279.627738 
L 247.584452 279.735957 
L 249.067173 279.844142 
" clip-path="url(#pdd2f2600af)" style="fill: none; stroke: #008000; stroke-width: 1.5; stroke-linecap: square"/>
   </g>
   <g id="line2d_40">
    <path d="M 99.850861 273.945639 
L 101.38268 274.056309 
L 102.914028 274.166896 
L 104.444908 274.277393 
L 105.975322 274.387792 
L 107.505275 274.498083 
L 109.03477 274.608254 
L 110.563814 274.718292 
L 112.092412 274.828181 
L 113.62057 274.937903 
L 115.148297 275.047439 
L 116.675601 275.156763 
L 118.202493 275.265848 
L 119.728985 275.374661 
L 121.255092 275.483166 
L 122.78083 275.591319 
L 124.306218 275.69907 
L 125.831278 275.806361 
L 127.356038 275.913124 
L 128.880526 276.019283 
L 130.404778 276.124747 
L 131.928835 276.229411 
L 133.452745 276.333156 
L 134.976563 276.43584 
L 136.500354 276.537302 
L 138.024193 276.637354 
L 139.548168 276.735779 
L 141.07238 276.832325 
L 142.596948 276.9267 
L 144.122011 277.018567 
L 145.647729 277.107535 
L 147.174289 277.193149 
L 148.70191 277.274886 
L 150.230846 277.352137 
L 151.761392 277.424197 
L 153.293893 277.490251 
L 154.82875 277.549353 
L 156.36643 277.600408 
L 157.907479 277.642145 
L 159.452528 277.673094 
L 161.002318 277.691549 
L 162.557708 277.695533 
L 164.119701 277.682754 
L 165.689466 277.650556 
L 167.268364 277.595854 
L 168.857983 277.515074 
L 170.460176 277.404067 
L 172.077101 277.258014 
L 173.71128 277.071324 
L 175.365655 276.837496 
L 177.04366 276.54898 
L 178.749312 276.19699 
L 180.487304 275.771303 
L 182.263129 275.260014 
L 184.083219 274.649243 
L 185.955111 273.922793 
L 187.887654 273.061741 
L 189.89124 272.043952 
L 191.978099 270.843488 
L 194.162641 269.429918 
L 196.461862 267.767493 
L 198.895807 265.814234 
L 201.488007 263.521091 
L 204.265608 260.83183 
L 207.25815 257.685966 
L 210.491503 254.032445 
L 213.965568 249.879101 
L 217.581144 245.453324 
L 220.931659 241.656083 
L 222.90098 240.928257 
L 221.770187 246.979656 
L 217.681704 259.401523 
L 213.930362 270.973534 
L 212.454726 277.534608 
L 212.668977 280.412078 
L 213.674057 281.575797 
L 214.990212 282.068309 
L 216.420956 282.31414 
L 217.892752 282.471358 
L 219.37894 282.596989 
L 220.869962 282.711381 
L 222.362406 282.821763 
L 223.855054 282.930701 
L 225.347474 283.039105 
L 226.839511 283.147297 
L 228.33111 283.255393 
L 229.822252 283.363433 
L 231.31293 283.47143 
L 232.803142 283.579391 
L 234.292887 283.687318 
L 235.782165 283.79521 
L 237.270977 283.903068 
L 238.759322 284.010892 
L 240.2472 284.118683 
L 241.734612 284.22644 
L 243.221559 284.334162 
L 244.708039 284.441852 
L 246.194054 284.549507 
L 247.679604 284.657129 
L 249.164688 284.764717 
" clip-path="url(#pdd2f2600af)" style="fill: none; stroke: #008000; stroke-width: 1.5; stroke-linecap: square"/>
   </g>
   <g id="line2d_41">
    <path d="M 99.706023 278.944033 
L 101.240274 279.054373 
L 102.774037 279.164675 
L 104.307312 279.274939 
L 105.840102 279.385164 
L 107.372404 279.495349 
L 108.904221 279.605493 
L 110.435554 279.715595 
L 111.966402 279.825653 
L 113.496766 279.935665 
L 115.026649 280.04563 
L 116.55605 280.155544 
L 118.084972 280.265404 
L 119.613416 280.375206 
L 121.141384 280.484945 
L 122.668879 280.594615 
L 124.195904 280.704207 
L 125.722462 280.813714 
L 127.248558 280.923125 
L 128.774197 281.032425 
L 130.299386 281.141598 
L 131.824131 281.250625 
L 133.348444 281.359481 
L 134.872335 281.468136 
L 136.395819 281.576555 
L 137.918913 281.684695 
L 139.441638 281.7925 
L 140.96402 281.899908 
L 142.486091 282.006838 
L 144.007889 282.113195 
L 145.529462 282.218861 
L 147.050867 282.323694 
L 148.572176 282.427521 
L 150.093474 282.53013 
L 151.614868 282.631264 
L 153.136487 282.730611 
L 154.65849 282.827789 
L 156.18107 282.922334 
L 157.704466 283.013682 
L 159.228967 283.101144 
L 160.75493 283.183884 
L 162.282789 283.260883 
L 163.813078 283.330897 
L 165.346448 283.392417 
L 166.883698 283.443601 
L 168.425805 283.482206 
L 169.973967 283.5055 
L 171.529648 283.510156 
L 173.094642 283.492118 
L 174.671149 283.446446 
L 176.26186 283.367116 
L 177.870073 283.246786 
L 179.499829 283.076508 
L 181.156079 282.845372 
L 182.844884 282.540083 
L 184.573663 282.144452 
L 186.351484 281.638795 
L 188.189401 280.999235 
L 190.10083 280.196953 
L 192.101928 279.197443 
L 194.211894 277.959974 
L 196.453015 276.437649 
L 198.850083 274.578871 
L 201.428484 272.331756 
L 204.209672 269.654262 
L 207.201875 266.534587 
L 210.38313 263.027954 
L 213.674245 259.314447 
L 216.90473 255.770523 
L 219.790259 253.013308 
L 221.964113 251.826481 
L 223.106909 252.876274 
L 223.142821 256.29292 
L 222.345901 261.4564 
L 221.220332 267.269176 
L 220.244657 272.708998 
L 219.698355 277.19246 
L 219.653772 280.581489 
L 220.057225 283.003608 
L 220.809455 284.678594 
L 221.81234 285.819765 
L 222.986783 286.597326 
L 224.275111 287.13444 
L 225.637577 287.515466 
L 227.047679 287.79633 
L 228.488101 288.013383 
L 229.947668 288.189964 
L 231.419226 288.340946 
L 232.898214 288.475761 
L 234.381736 288.600372 
L 235.867954 288.718543 
L 237.355707 288.832646 
L 238.844258 288.944177 
L 240.333142 289.054077 
L 241.822064 289.162938 
L 243.310838 289.271132 
L 244.799346 289.378895 
L 246.287516 289.486374 
L 247.775299 289.593662 
L 249.262667 289.700817 
" clip-path="url(#pdd2f2600af)" style="fill: none; stroke: #008000; stroke-width: 1.5; stroke-linecap: square"/>
   </g>
   <g id="line2d_42">
    <path d="M 99.561251 283.956972 
L 101.098029 284.066701 
L 102.634318 284.176393 
L 104.170118 284.286048 
L 105.705429 284.395667 
L 107.240251 284.505248 
L 108.774585 284.614792 
L 110.308431 284.724296 
L 111.84179 284.83376 
L 113.374663 284.943183 
L 114.90705 285.052563 
L 116.438953 285.161898 
L 117.970372 285.271185 
L 119.50131 285.380421 
L 121.031768 285.489602 
L 122.561747 285.598722 
L 124.091252 285.707774 
L 125.620285 285.81675 
L 127.148851 285.925639 
L 128.676954 286.034426 
L 130.204603 286.143095 
L 131.731805 286.251623 
L 133.258572 286.359982 
L 134.784917 286.468137 
L 136.310857 286.576043 
L 137.836416 286.683644 
L 139.36162 286.790868 
L 140.886506 286.897625 
L 142.411119 287.003801 
L 143.935516 287.109252 
L 145.45977 287.213795 
L 146.983974 287.3172 
L 148.508246 287.419176 
L 150.032736 287.519356 
L 151.557633 287.617274 
L 153.083179 287.712341 
L 154.609681 287.803817 
L 156.137529 287.89076 
L 157.667219 287.971985 
L 159.199381 288.04599 
L 160.734816 288.110879 
L 162.274542 288.164252 
L 163.819852 288.203078 
L 165.37239 288.223523 
L 166.934247 288.22074 
L 168.508079 288.188599 
L 170.097262 288.119352 
L 171.706086 288.003206 
L 173.339996 287.827789 
L 175.005907 287.577483 
L 176.712573 287.232608 
L 178.471065 286.768421 
L 180.29531 286.153956 
L 182.202723 285.350731 
L 184.214822 284.311485 
L 186.357709 282.97932 
L 188.662031 281.288023 
L 191.161746 279.165162 
L 193.890366 276.540836 
L 196.872465 273.366939 
L 200.107281 269.653716 
L 203.54144 265.529697 
L 207.032339 261.320726 
L 210.317451 257.613368 
L 213.027564 255.21894 
L 214.790187 254.939652 
L 215.414385 257.162957 
L 215.035515 261.555668 
L 214.073218 267.173174 
L 213.020587 272.930618 
L 212.24232 278.040862 
L 211.90658 282.15317 
L 212.02772 285.251514 
L 212.54029 287.48947 
L 213.355434 289.06707 
L 214.390364 290.167755 
L 215.578822 290.936903 
L 216.871854 291.481114 
L 218.234942 291.875076 
L 219.644428 292.16968 
L 221.084384 292.399005 
L 222.544207 292.585617 
L 224.016892 292.744353 
L 225.497828 292.884925 
L 226.983995 293.013671 
L 228.473413 293.134718 
L 229.964791 293.250753 
L 231.457283 293.36352 
L 232.95034 293.474155 
L 234.4436 293.583392 
L 235.93683 293.691711 
L 237.429878 293.799423 
L 238.922642 293.906728 
L 240.415059 294.013757 
L 241.907087 294.120596 
L 243.398698 294.2273 
L 244.889873 294.333903 
L 246.380602 294.440431 
L 247.870877 294.546897 
L 249.360693 294.653312 
" clip-path="url(#pdd2f2600af)" style="fill: none; stroke: #008000; stroke-width: 1.5; stroke-linecap: square"/>
   </g>
   <g id="line2d_43">
    <path d="M 99.41603 288.986242 
L 100.955351 289.095335 
L 102.494182 289.204388 
L 104.032524 289.313402 
L 105.570376 289.422374 
L 107.10774 289.531303 
L 108.644616 289.640186 
L 110.181007 289.749021 
L 111.716913 289.857804 
L 113.252337 289.966532 
L 114.787279 290.075197 
L 116.321744 290.183795 
L 117.855735 290.292315 
L 119.389255 290.400747 
L 120.92231 290.509077 
L 122.454907 290.617288 
L 123.987054 290.725358 
L 125.518762 290.833258 
L 127.050043 290.940956 
L 128.580915 291.048406 
L 130.111399 291.155554 
L 131.641521 291.26233 
L 133.171315 291.368647 
L 134.700824 291.474397 
L 136.230101 291.579439 
L 137.759216 291.683601 
L 139.288253 291.786664 
L 140.817324 291.888351 
L 142.346565 291.988316 
L 143.876152 292.086122 
L 145.406307 292.181219 
L 146.937311 292.272914 
L 148.469518 292.360337 
L 150.003378 292.442388 
L 151.539461 292.517686 
L 153.078487 292.584491 
L 154.621369 292.640612 
L 156.169263 292.683287 
L 157.723632 292.709042 
L 159.286331 292.713496 
L 160.859707 292.691132 
L 162.446735 292.634998 
L 164.051183 292.536333 
L 165.677827 292.384098 
L 167.332712 292.16438 
L 169.023499 291.859656 
L 170.759878 291.44787 
L 172.554088 290.901313 
L 174.421544 290.185281 
L 176.381549 289.256565 
L 178.458039 288.061922 
L 180.680177 286.536943 
L 183.082383 284.606282 
L 185.702908 282.187285 
L 188.579153 279.201033 
L 191.736501 275.598009 
L 195.165666 271.409303 
L 198.783503 266.833953 
L 202.379967 262.354999 
L 205.579938 258.818331 
L 207.891002 257.315922 
L 208.907569 258.723136 
L 208.596795 263.068307 
L 207.396499 269.337643 
L 205.971326 276.038509 
L 204.858081 281.988441 
L 204.3045 286.658781 
L 204.323283 290.041161 
L 204.813585 292.372406 
L 205.650221 293.936918 
L 206.724809 294.977597 
L 207.956419 295.674219 
L 209.289089 296.150218 
L 210.685773 296.48681 
L 212.122569 296.736102 
L 213.584288 296.931025 
L 215.06137 297.092199 
L 216.547833 297.232463 
L 218.039946 297.359784 
L 219.535387 297.479094 
L 221.032714 297.593445 
L 222.531031 297.704721 
L 224.029782 297.814086 
L 225.528624 297.922259 
L 227.027342 298.029684 
L 228.525803 298.136633 
L 230.023926 298.243277 
L 231.52166 298.349719 
L 233.018974 298.456025 
L 234.515848 298.562232 
L 236.01227 298.668367 
L 237.508232 298.774444 
L 239.003732 298.880473 
L 240.498765 298.986458 
L 241.99333 299.092405 
L 243.487427 299.198315 
L 244.981055 299.30419 
L 246.474213 299.410029 
L 247.966902 299.515835 
L 249.459121 299.621607 
" clip-path="url(#pdd2f2600af)" style="fill: none; stroke: #008000; stroke-width: 1.5; stroke-linecap: square"/>
   </g>
   <g id="line2d_44">
    <path d="M 99.270313 294.032072 
L 100.812181 294.140539 
L 102.353557 294.248965 
L 103.894442 294.35735 
L 105.434838 294.465692 
L 106.974744 294.573987 
L 108.514164 294.682231 
L 110.053098 294.790419 
L 111.591551 294.898544 
L 113.129524 295.006597 
L 114.667024 295.114563 
L 116.204057 295.222427 
L 117.74063 295.330163 
L 119.276757 295.437743 
L 120.812451 295.545122 
L 122.347734 295.652247 
L 123.882633 295.759042 
L 125.417186 295.865406 
L 126.951442 295.971206 
L 128.485469 296.076261 
L 130.019358 296.180331 
L 131.55323 296.283094 
L 133.087251 296.384118 
L 134.621642 296.482824 
L 136.156702 296.578439 
L 137.692832 296.669924 
L 139.230575 296.755891 
L 140.77066 296.83448 
L 142.31407 296.903197 
L 143.862132 296.958704 
L 145.41663 296.996528 
L 146.979971 297.010675 
L 148.555398 296.993112 
L 150.147284 296.933071 
L 151.761523 296.816118 
L 153.406065 296.6229 
L 155.091624 296.327472 
L 156.832641 295.895068 
L 158.648551 295.279157 
L 160.565442 294.41764 
L 162.618138 293.228115 
L 164.852615 291.602474 
L 167.328291 289.402022 
L 170.118731 286.4566 
L 173.307115 282.576523 
L 176.968102 277.596965 
L 181.120222 271.491805 
L 185.627746 264.604451 
L 190.054951 257.984302 
L 193.583487 253.56279 
L 195.265582 253.533585 
L 194.717808 258.722176 
L 192.603622 267.499925 
L 190.159926 276.945925 
L 188.321578 284.897169 
L 187.403452 290.656464 
L 187.312946 294.469561 
L 187.827152 296.872291 
L 188.738654 298.354337 
L 189.896371 299.268857 
L 191.201697 299.844632 
L 192.593812 300.221871 
L 194.036337 300.483948 
L 195.507878 300.679615 
L 196.995978 300.837108 
L 198.493421 300.972696 
L 199.996041 301.09572 
L 201.501437 301.211538 
L 203.008227 301.323217 
L 204.515615 301.432514 
L 206.023145 301.540434 
L 207.530553 301.647552 
L 209.037689 301.754196 
L 210.544465 301.860555 
L 212.050833 301.966737 
L 213.556762 302.072804 
L 215.062238 302.178789 
L 216.56725 302.284714 
L 218.071794 302.390591 
L 219.575867 302.496425 
L 221.079467 302.60222 
L 222.582593 302.70798 
L 224.085244 302.813704 
L 225.587422 302.919394 
L 227.089126 303.02505 
L 228.590355 303.130672 
L 230.09111 303.23626 
L 231.591392 303.341816 
L 233.0912 303.447338 
L 234.590535 303.552826 
L 236.089396 303.658282 
L 237.587785 303.763704 
L 239.085701 303.869092 
L 240.583145 303.974448 
L 242.080116 304.07977 
L 243.576616 304.185059 
L 245.072644 304.290315 
L 246.5682 304.395538 
L 248.063284 304.500727 
L 249.557898 304.605883 
" clip-path="url(#pdd2f2600af)" style="fill: none; stroke: #008000; stroke-width: 1.5; stroke-linecap: square"/>
   </g>
   <g id="line2d_45">
    <path d="M 99.124125 299.094452 
L 100.668551 299.202278 
L 102.212485 299.31006 
L 103.755928 299.417795 
L 105.298884 299.525476 
L 106.841353 299.633096 
L 108.383342 299.740643 
L 109.924855 299.8481 
L 111.465901 299.955445 
L 113.006493 300.062643 
L 114.546647 300.169646 
L 116.086387 300.276385 
L 117.62575 300.382763 
L 119.164785 300.488638 
L 120.703565 300.593809 
L 122.242195 300.69799 
L 123.780825 300.80077 
L 125.31967 300.901561 
L 126.85904 300.999525 
L 128.399382 301.093463 
L 129.941338 301.181661 
L 131.485831 301.261668 
L 133.034188 301.32998 
L 134.588319 301.38159 
L 136.150973 301.409333 
L 137.726104 301.402966 
L 139.319403 301.347835 
L 140.939059 301.222972 
L 142.596863 300.998378 
L 144.309784 300.631127 
L 146.102231 300.059841 
L 148.009248 299.196919 
L 150.080934 297.917896 
L 152.388217 296.047677 
L 155.029448 293.345175 
L 158.135024 289.493539 
L 161.860869 284.118869 
L 166.346465 276.897423 
L 171.586517 267.874919 
L 177.158156 258.133633 
L 181.903434 250.546762 
L 184.149485 249.186068 
L 183.057528 255.993013 
L 179.766273 268.062929 
L 176.338692 280.325288 
L 174.037604 289.744907 
L 173.049922 295.923286 
L 173.068951 299.642728 
L 173.735185 301.7929 
L 174.782795 303.023901 
L 176.045161 303.739922 
L 177.425532 304.174084 
L 178.869831 304.455873 
L 180.34843 304.655824 
L 181.845262 304.811967 
L 183.351663 304.944695 
L 184.862975 305.064915 
L 186.376695 305.178448 
L 187.891484 305.2884 
L 189.406621 305.396428 
L 190.921723 305.503414 
L 192.436581 305.60983 
L 193.951086 305.715925 
L 195.465179 305.821835 
L 196.978828 305.927629 
L 198.492016 306.033347 
L 200.004735 306.139008 
L 201.51698 306.244623 
L 203.028748 306.350198 
L 204.540038 306.455736 
L 206.05085 306.561239 
L 207.561183 306.666707 
L 209.071038 306.772142 
L 210.580414 306.877542 
L 212.089312 306.98291 
L 213.597733 307.088243 
L 215.105675 307.193544 
L 216.61314 307.298811 
L 218.120128 307.404044 
L 219.626638 307.509244 
L 221.132672 307.614411 
L 222.638228 307.719545 
L 224.143309 307.824645 
L 225.647913 307.929713 
L 227.152041 308.034747 
L 228.655693 308.139747 
L 230.15887 308.244715 
L 231.661571 308.349649 
L 233.163798 308.45455 
L 234.665549 308.559418 
L 236.166826 308.664253 
L 237.667628 308.769054 
L 239.167957 308.873823 
L 240.667811 308.978558 
L 242.167191 309.083261 
L 243.666098 309.18793 
L 245.164532 309.292566 
L 246.662492 309.39717 
L 248.15998 309.50174 
L 249.656995 309.606277 
" clip-path="url(#pdd2f2600af)" style="fill: none; stroke: #008000; stroke-width: 1.5; stroke-linecap: square"/>
   </g>
  </g>
 </g>
 <defs>
  <clipPath id="pdd2f2600af">
   <rect x="45" y="78.66" width="279" height="279"/>
  </clipPath>
 </defs>
</svg>
